<?xml version="1.0" encoding="utf-8"?>
<!-- Generator: Adobe Illustrator 27.7.0, SVG Export Plug-In . SVG Version: 6.00 Build 0)  -->
<svg version="1.1" id="Layer_1" xmlns="http://www.w3.org/2000/svg" xmlns:xlink="http://www.w3.org/1999/xlink" x="0px" y="0px"
	 viewBox="0 0 500 500" style="enable-background:new 0 0 500 500;" xml:space="preserve">
<style type="text/css">
	.st0{fill:#FFFFFF;}
</style>
<g>
	<g>
		<path class="st0" d="M250,139.7l-62.1-32v-72L250,0l62.3,35.7v71.7L250,139.7z M198.4,101.3l51.5,26.5l51.8-26.8V41.8L250,12.1
			l-51.6,29.7V101.3z"/>
	</g>
	<g>
		<polygon class="st0" points="255.2,133.8 244.7,133.8 244.7,63.8 304.7,34.1 309.3,43.5 255.2,70.4 		"/>
	</g>
	<g>

			<rect x="216.3" y="21.2" transform="matrix(0.4459 -0.8951 0.8951 0.4459 75.3861 227.6468)" class="st0" width="10.5" height="63.5"/>
	</g>
	<g>
		<path class="st0" d="M98.8,237.2l-62.1-32v-72l62.1-35.7l62.3,35.7v71.7L98.8,237.2z M47.3,198.8l51.6,26.5l51.8-26.8v-59.2
			l-51.8-29.7l-51.6,29.7V198.8z"/>
	</g>
	<g>
		<polygon class="st0" points="104.1,231.3 93.6,231.3 93.6,161.3 153.5,131.6 158.2,141 104.1,167.9 		"/>
	</g>
	<g>

			<rect x="65.2" y="118.7" transform="matrix(0.4459 -0.8951 0.8951 0.4459 -95.6524 146.4072)" class="st0" width="10.5" height="63.5"/>
	</g>
	<g>
		<path class="st0" d="M98.7,401.6l-62.1-32v-72l62.1-35.7l62.3,35.7v71.7L98.7,401.6z M47.2,363.2l51.6,26.5l51.8-26.8v-59.2
			L98.7,274l-51.6,29.7V363.2z"/>
	</g>
	<g>
		<polygon class="st0" points="104,395.6 93.5,395.6 93.5,325.7 153.4,296 158.1,305.4 104,332.2 		"/>
	</g>
	<g>

			<rect x="65.1" y="283.1" transform="matrix(0.4459 -0.8951 0.8951 0.4459 -242.8299 237.3986)" class="st0" width="10.5" height="63.5"/>
	</g>
	<g>
		<path class="st0" d="M401.1,237.7l-62.1-32v-72L401.1,98l62.3,35.7v71.7L401.1,237.7z M349.5,199.3l51.6,26.5l51.8-26.8v-59.2
			l-51.8-29.7l-51.6,29.7V199.3z"/>
	</g>
	<g>
		<polygon class="st0" points="406.3,231.7 395.8,231.7 395.8,161.8 455.7,132 460.4,141.5 406.3,168.3 		"/>
	</g>
	<g>

			<rect x="367.4" y="119.2" transform="matrix(0.4459 -0.8951 0.8951 0.4459 71.4207 417.1862)" class="st0" width="10.5" height="63.5"/>
	</g>
	<g>
		<path class="st0" d="M401,402l-62.1-32v-72l62.1-35.7l62.3,35.7v71.7L401,402z M349.4,363.6l51.5,26.5l51.8-26.8v-59.2L401,274.5
			l-51.6,29.7V363.6z"/>
	</g>
	<g>
		<polygon class="st0" points="406.2,396.1 395.7,396.1 395.7,326.2 455.6,296.4 460.3,305.8 406.2,332.7 		"/>
	</g>
	<g>

			<rect x="367.3" y="283.5" transform="matrix(0.4459 -0.8951 0.8951 0.4459 -75.7625 508.1574)" class="st0" width="10.5" height="63.5"/>
	</g>
	<g>
		<path class="st0" d="M249.9,500l-62.1-32v-72l62.1-35.7l62.3,35.7v71.7L249.9,500z M198.3,461.6l51.5,26.5l51.8-26.8v-59.2
			l-51.8-29.7l-51.6,29.7V461.6z"/>
	</g>
	<g>
		<polygon class="st0" points="255.1,494.1 244.6,494.1 244.6,424.1 304.6,394.4 309.2,403.8 255.1,430.7 		"/>
	</g>
	<g>

			<rect x="216.2" y="381.5" transform="matrix(0.4459 -0.8951 0.8951 0.4459 -247.1812 427.2067)" class="st0" width="10.5" height="63.5"/>
	</g>
	<g>
		<path class="st0" d="M204.5,283.2h11.7c1.3,8.6,4.9,15.3,10.9,20.2c6,4.9,13.3,7.4,22,7.4c9.7,0,17.8-3.4,24.3-10.2
			c6.5-6.8,9.8-15.4,9.8-25.7c0-9.9-3.3-18.2-9.9-24.8c-6.6-6.6-15.1-9.9-25.5-9.9c-4.1,0-7.9,0.6-11.4,1.7
			c-3.5,1.2-6.4,2.6-8.7,4.4c-2.3,1.8-4.1,3.4-5.4,4.8c-1.3,1.4-2.4,2.8-3.2,4.2h-11.9l5-77.5h74.6v11.4H223l-3.2,51.6l1.3,0
			c0.3-0.3,0.6-0.8,1.1-1.3c0.5-0.5,1.6-1.5,3.4-2.9c1.8-1.4,3.7-2.6,5.7-3.7s4.8-2,8.1-2.9c3.4-0.9,6.9-1.3,10.5-1.3
			c8.7,0,16.6,2.1,23.6,6.4c7,4.3,12.5,9.9,16.3,16.9c3.8,7,5.7,14.6,5.7,22.8c0,13.4-4.4,24.6-13.3,33.7
			c-8.8,9.1-19.8,13.6-32.8,13.6c-8,0-15.4-1.6-22-4.8c-6.6-3.2-12-7.8-16-13.7C207.4,297.8,205.1,290.9,204.5,283.2z"/>
	</g>
</g>
</svg>
