<?xml version="1.0" encoding="utf-8"?>
<!-- Generator: Adobe Illustrator 27.7.0, SVG Export Plug-In . SVG Version: 6.00 Build 0)  -->
<svg version="1.1" id="Layer_1" xmlns="http://www.w3.org/2000/svg" xmlns:xlink="http://www.w3.org/1999/xlink" x="0px" y="0px"
	 viewBox="0 0 500 500" style="enable-background:new 0 0 500 500;" xml:space="preserve">
<style type="text/css">
	.st0{fill:#1C1E21;}
</style>
<g>
	<g>
		<g>
			<path class="st0" d="M250.8,292.2l-8.4,8.4c1.9,0.6,3.7,1.1,5.7,1.8l8.3-8.3C254.5,293.4,252.6,292.7,250.8,292.2z M184.7,168.6
				c-0.1,0.2-0.5,0.9-1.2,2.1c-3.6,4.9-15.5,16.3-46.1,9.9c-24.7-5.2-30.1-13.8-35.3-22.1c-3.5-5.6-7.1-11.3-15.3-15.3
				c-15.7-7.7-22.1-0.3-23.6,2.1c-4,6.1-1.6,15,5.8,21.2c7.1,5.9,7.9,12.8,8,14.9c-3.8,9.4-31.1,80.5-24.3,141.9l0.3,2.6l2.2,1.4
				c1.1,0.6,16.5,9.8,42.4,14.1c2.1,0.4,4.3,0.7,6.5,1c2.2,0.3,4.4,0.5,6.8,0.7l10.2-10.2c-2.5,0-4.8-0.2-7.2-0.3
				c-2.4-0.2-4.7-0.4-6.9-0.7c-22.9-2.7-38.6-9.7-44.1-12.5c-1.3-13.6-0.8-27.8,0.7-41.6c16.8,12.5,45,20.3,46.4,20.7l0.4,0.1
				c10.6,1.9,19.8,2,28.6,1.2c2.9-0.3,5.8-0.6,8.6-1.1c3-0.4,5.9-0.9,8.9-1.5l12.9-12.9c-3.1,0.5-6,1-8.9,1.5
				c-1.1,0.2-2.1,0.4-3.2,0.6c-2,0.4-4,0.7-5.9,1c-12.6,2.2-24.3,3.6-38.9,0.9c-10.2-2.8-37-12-47.4-23
				c4.5-29.3,12.8-55.7,17.8-69.8c2.4-6.7,4-10.7,4.1-10.9l0.3-0.8l0-0.7v-0.1c0.1-0.6,1-13.9-11.8-24.5c-3.9-3.2-4.2-6.4-3.7-7.2
				c0.4-0.7,3.6-1.5,10.1,1.7c5.5,2.7,7.9,6.5,10.9,11.4c5.8,9.2,12.9,20.7,42.1,26.9c32.3,6.8,48-4,54.8-11.7
				c3-3.3,4.2-6.1,4.3-6.4L184.7,168.6z M457.9,288.8c-0.8-1-1.7-2-2.7-3.1l-2.7-2.7l-3.4,1.7c0,0-0.4,0.2-1.1,0.6l0,0h0
				c-11.4,5.3-99.5,44.1-181,12.5c-1.6-0.6-3.2-1.2-4.8-1.8c-1.9-0.7-3.7-1.4-5.6-2c-1.9-0.7-3.8-1.3-5.6-1.9l-8.4,8.4
				c1.9,0.6,3.7,1.1,5.7,1.8c1.8,0.6,3.7,1.2,5.6,1.9c3,1,6.1,2.2,9.2,3.4c82.5,32,168.3-3.2,187.2-11.8c2.6,3.3,3.8,6.4,3.5,9.3
				c-0.4,5.1-5,8.7-5,8.7c-55.6,35.3-151.5,27.4-192.4,24c-7.5-0.6-12.9-1.1-16-1.1c-5.1,0-9.7-2-14.2-4.9c-1.5-0.9-3-2-4.4-3.1
				c-1.2-0.9-2.4-1.8-3.6-2.7c-0.3-0.2-0.5-0.4-0.7-0.6l-7.6,7.6c0.6,0.5,1.3,1,1.9,1.4c0.8,0.6,1.5,1.1,2.3,1.7
				c1.4,1.1,2.9,2.1,4.4,3.1c6.2,4.2,13.3,7.8,21.8,7.8c2.7,0,8.2,0.4,15.1,1c15.7,1.3,39.1,3.2,65.4,3.2
				c44.4,0,96.9-5.5,133.8-28.9c0.4-0.3,8.9-6.4,9.7-16.5C464.7,300.3,462.6,294.5,457.9,288.8z"/>
		</g>
	</g>
	<g>
		<g>
			<path class="st0" d="M145.4,215.4c-5.1,0-10.6-0.4-16.4-1.4c-52.9-9.1-52.3-29.8-52.1-32.1l10.5,1.1c0.1,3.4,8.1,14.5,43.3,20.6
				c45.4,7.9,67.7-23.1,68.6-24.4l8.7,6C207.2,186.6,186.7,215.4,145.4,215.4z"/>
		</g>
	</g>
	<g>
		<g>
			<path class="st0" d="M270.4,176c-1.5-1-3-2-4.4-3.1c-22.2-15.5-45-31.5-61.8-43.2l-1-0.8l-1.3-0.2c-4.7-0.7-10.7-1-15,2.5
				c-4.7,3.9-5.1,10.3-5.5,18.3c-0.1,2-0.2,4.2-0.4,6.5c-0.5,5.9,0.6,10.8,2.5,14.7c1.7,3.7,4.1,6.5,6.6,8.6c2,1.7,4.1,3,5.8,3.6
				c0.1,0,0.2,0.1,0.3,0.2c3.1,1.6,6.4,3.2,9.9,4.9c9.4,4.7,19.6,9.7,30,14.8c1.7,0.8,3.3,1.7,5,2.5c1.7,0.8,3.3,1.7,5,2.5l7.9-7.9
				c-1.7-0.8-3.3-1.7-5-2.5c-1.7-0.8-3.4-1.7-5-2.5c-15.4-7.5-30.6-15-43.6-21.5l-0.4-0.2c-1-0.4-9.4-4.2-8.4-16.3
				c0.2-2.5,0.3-4.7,0.5-6.8c0.2-4.5,0.5-9.7,1.7-10.6c0.1-0.1,0.8-0.6,2.9-0.6c0.7,0,1.6,0,2.6,0.2c5.9,4.2,31.6,22.2,59.2,41.4
				c1.4,1,2.9,2,4.4,3.1c1.5,1,3,2,4.4,3.1l7.6-7.6C273.3,178,271.9,177,270.4,176z M346.1,229.5c-1.2-2.2-3.3-4.3-6.4-6
				c-0.6-0.3-1.7-1.1-3.2-2c-1.2-0.8-2.8-1.8-4.5-3c-1.4-0.9-2.8-1.9-4.4-3l-7.6,7.6c1.6,1.1,3.1,2.1,4.4,3c1.7,1.1,3.2,2.1,4.5,3
				c2.7,1.8,4.7,3.1,5.6,3.6c1.1,0.6,2.8,1.8,2.5,3.1c-0.3,1.1-1.6,1.9-2.3,2c-1.4-0.4-5-1.9-10.2-4.3c-1.6-0.7-3.3-1.5-5.2-2.3
				c-1.6-0.8-3.3-1.5-5.1-2.4l-7.9,7.9c1.8,0.8,3.5,1.6,5.1,2.4c1.8,0.8,3.6,1.7,5.2,2.4c9.2,4.2,15.4,6.8,17,6.9c0.3,0,0.7,0,1,0
				c4.9,0,9.7-3.2,11.9-7.7c0.3-0.6,0.5-1.1,0.7-1.7C348,236.2,347.9,232.7,346.1,229.5z M249,197.4l-8,7.9c1.7,0.8,3.3,1.7,5,2.5
				l7.9-7.9C252.4,199,250.7,198.2,249,197.4z"/>
		</g>
	</g>
	<g>
		<g>
			<path class="st0" d="M455.3,293l-7.9-7l4,3.5l-4-3.4c0.1-0.1,1.6-2,1.1-4.4c-0.4-1.8-2.4-5.5-11.3-9.6
				c-21.9-10.1-95.8-33-96.6-33.2l3.1-10.1c3.1,0.9,75.3,23.3,97.9,33.7c10,4.6,15.8,10.4,17.2,17.1
				C460.4,287.1,455.9,292.4,455.3,293z"/>
		</g>
	</g>
	<g>
		<g>
			<path class="st0" d="M305.8,242.4l-6,0.9l6.3-6.3C305.7,238.8,305.5,240.6,305.8,242.4z"/>
		</g>
	</g>
	<g>
		<g>
			<path class="st0" d="M453.3,104.7c-1-1.4-2.1-2.9-3.2-4.3c-1.1-1.4-2.2-2.9-3.2-4.3l-7.6,7.6c1.1,1.4,2.2,2.8,3.2,4.2
				c1.1,1.4,2.1,2.9,3.2,4.4c27.5,39,43.7,86.5,43.7,137.7c0,132-107.4,239.4-239.4,239.4c-51.2,0-98.8-16.2-137.7-43.7
				c-1.5-1.1-2.9-2.1-4.4-3.2c-1.4-1.1-2.8-2.1-4.2-3.2l-7.6,7.6c1.4,1.1,2.8,2.2,4.2,3.2c1.4,1.1,2.9,2.2,4.4,3.2
				c41,29.4,91.2,46.7,145.3,46.7c137.9,0,250-112.2,250-250C500,195.8,482.7,145.7,453.3,104.7z M397.8,48.5
				c-1.4-1.1-2.9-2.1-4.3-3.1C352.9,16.8,303.3,0,250,0C112.2,0,0,112.2,0,250c0,53.3,16.8,102.8,45.4,143.5c1,1.5,2.1,3,3.1,4.4
				c1.1,1.4,2.1,2.8,3.2,4.2l7.5-7.5c-1.1-1.4-2.1-2.8-3.2-4.3c-1.1-1.4-2.1-3-3.1-4.4C26.3,347.2,10.6,300.4,10.6,250
				C10.6,118,118,10.6,250,10.6c50.4,0,97.2,15.7,135.9,42.4c1.5,1,2.9,2,4.4,3.1c1.5,1,2.9,2.1,4.3,3.2l7.5-7.5
				C400.7,50.6,399.2,49.5,397.8,48.5z"/>
		</g>
	</g>
	<g>
		<g>
			<path class="st0" d="M402.1,51.7L51.7,402.1c-1.1-1.4-2.2-2.8-3.2-4.2l112.2-112.2l80.3-80.4l8-7.9l13.8-13.8l7.6-7.6L390.2,56.1
				l7.6-7.6C399.2,49.5,400.7,50.6,402.1,51.7z"/>
			<path class="st0" d="M450.1,100.4l-7.6,7.5L324.4,226.1l-5,5.1l-8,7.9l-63.3,63.3L221.5,329l-7.6,7.5L100.3,450.1
				c-1.4-1.1-2.8-2.2-4.2-3.2l7.6-7.6l106-106L306,237c0-0.1,0-0.3,0.1-0.3c0.1,0,0.1,0.1,0.2,0.1l7.9-7.9l5.7-5.7l127-127
				C448,97.5,449.1,98.9,450.1,100.4z"/>
		</g>
		<g>
			<path class="st0" d="M450.1,100.4c-1.1-1.4-2.2-2.9-3.2-4.3l-127,127l-5.7,5.7l-7.9,7.9l-96.6,96.6l-106,106l-7.6,7.6
				c1.4,1.1,2.8,2.2,4.2,3.2c1.4,1.1,2.9,2.2,4.4,3.2l7.6-7.6l106.1-106.1l7.6-7.6l27.7-27.7l8.3-8.3l66.9-66.9l7.6-7.6l109.2-109.2
				l7.6-7.6C452.3,103.3,451.2,101.8,450.1,100.4z M397.8,48.5c-1.4-1.1-2.9-2.1-4.3-3.1l-7.6,7.6L266,172.9l-7.6,7.6L244,194.9
				l-7.9,8l-84.4,84.4l-44.5,44.5l-9.4,9.5L53,385.8l-7.6,7.6c1,1.5,2.1,3,3.1,4.4c1.1,1.4,2.1,2.8,3.2,4.2L402.1,51.7
				C400.7,50.6,399.2,49.5,397.8,48.5z"/>
		</g>
	</g>
</g>
</svg>
