<?xml version="1.0" encoding="utf-8"?>
<!-- Generator: Adobe Illustrator 27.7.0, SVG Export Plug-In . SVG Version: 6.00 Build 0)  -->
<svg version="1.1" id="Layer_1" xmlns="http://www.w3.org/2000/svg" xmlns:xlink="http://www.w3.org/1999/xlink" x="0px" y="0px"
	 viewBox="0 0 500 500" style="enable-background:new 0 0 500 500;" xml:space="preserve">
<style type="text/css">
	.st0{fill:#1C1E21;}
</style>
<g>
	<path class="st0" d="M282,447H134.3c-16,0-29.1-13-29.1-29.1V296.8c0-16,13-29.1,29.1-29.1H282c16,0,29.1,13,29.1,29.1V418
		C311.1,434,298,447,282,447z M134.3,278.4c-10.2,0-18.4,8.3-18.4,18.4V418c0,10.2,8.3,18.4,18.4,18.4H282
		c10.2,0,18.4-8.3,18.4-18.4V296.8c0-10.2-8.3-18.4-18.4-18.4H134.3z"/>
</g>
<g>
	<path class="st0" d="M272.6,273.1l-0.1-27.4c0-35.5-28.9-64.4-64.4-64.4s-64.4,28.9-64.4,64.4v27.4h-10.6v-27.4
		c0-41.4,33.7-75,75-75s75,33.7,75,75l0.1,27.4L272.6,273.1z"/>
</g>
<g>
	<path class="st0" d="M261.3,273.1h-10.6v-27.4c0-23.4-19.1-42.5-42.5-42.5s-42.5,19.1-42.5,42.5v27.4H155v-27.4
		c0-29.3,23.8-53.1,53.1-53.1s53.1,23.8,53.1,53.1V273.1z"/>
</g>
<g>
	<path class="st0" d="M353.7,500H62.6c-14.4,0-26.1-11.7-26.1-26.1V60.4C36.5,27.1,63.6,0,96.9,0h222.6c33.3,0,60.4,27.1,60.4,60.4
		v413.5C379.9,488.3,368.1,500,353.7,500z M96.9,10.6c-27.4,0-49.7,22.3-49.7,49.7v413.5c0,8.5,7,15.5,15.5,15.5h291.1
		c8.5,0,15.5-7,15.5-15.5V60.4c0-27.4-22.3-49.7-49.7-49.7H96.9z"/>
</g>
<g>
	<path class="st0" d="M316.4,139.1H100c-13.7,0-24.8-11.1-24.8-24.8V65.8c0-13.7,11.1-24.8,24.8-24.8h216.4
		c13.7,0,24.8,11.1,24.8,24.8v48.5C341.2,128,330,139.1,316.4,139.1z M100,51.7c-7.8,0-14.1,6.3-14.1,14.1v48.5
		c0,7.8,6.3,14.1,14.1,14.1h216.4c7.8,0,14.1-6.3,14.1-14.1V65.8c0-7.8-6.3-14.1-14.1-14.1H100z"/>
</g>
<g>
	<path class="st0" d="M464.8,258h-39c-10.1,0-18.2-8.2-18.2-18.2v-69.5c0-6.3,3.4-12.3,8.8-15.6l39-23.6c5.7-3.5,12.6-3.6,18.4-0.3
		c5.8,3.3,9.3,9.2,9.3,15.9v93.1C483.1,249.8,474.9,258,464.8,258z M464.8,139.1c-1.4,0-2.7,0.4-3.9,1.1l-39,23.6
		c-2.3,1.4-3.7,3.9-3.7,6.5v69.5c0,4.2,3.4,7.6,7.6,7.6h39c4.2,0,7.6-3.4,7.6-7.6v-93.1c0-2.8-1.4-5.3-3.9-6.6
		C467.4,139.4,466.1,139.1,464.8,139.1z"/>
</g>
<g>
	<path class="st0" d="M440.9,152.7h-10.6V81.4c0-4-3.3-7.3-7.3-7.3h-24.8V41.1H426c20.6,0,37.4,16.8,37.4,37.4v54.3h-10.6V78.5
		c0-14.8-12-26.8-26.8-26.8h-17.2v11.8H423c9.9,0,17.9,8,17.9,17.9V152.7z"/>
</g>
<g>
	<path class="st0" d="M424.4,451.6c-14.5,0-26.2-11.8-26.2-26.2V311.9c0-9.2-7.5-16.6-16.6-16.6h-7.1v-10.6h7.1
		c15,0,27.2,12.2,27.2,27.2v113.4c0,8.6,7,15.6,15.6,15.6s15.6-7,15.6-15.6V252.7h10.6v172.7C450.6,439.8,438.9,451.6,424.4,451.6z"
		/>
</g>
</svg>
