<?xml version="1.0" encoding="utf-8"?>
<!-- Generator: Adobe Illustrator 27.7.0, SVG Export Plug-In . SVG Version: 6.00 Build 0)  -->
<svg version="1.1" id="Layer_1" xmlns="http://www.w3.org/2000/svg" xmlns:xlink="http://www.w3.org/1999/xlink" x="0px" y="0px"
	 viewBox="0 0 500 500" style="enable-background:new 0 0 500 500;" xml:space="preserve">
<style type="text/css">
	.st0{fill:#1C1E21;}
</style>
<g>
	<g>
		<path class="st0" d="M332.1,111.8c-9.7,0-18.4,4.3-24.3,11.1c-2.2,2.4-3.9,5.2-5.2,8.1c-1.8,4-2.7,8.4-2.7,13
			c0,17.1,13.3,31.1,30.1,32.2c0.7,0,1.5,0.1,2.2,0.1c2.5,0,5.1-0.3,7.4-0.8c14.2-3.4,24.9-16.2,24.9-31.5
			C364.4,126.2,349.9,111.8,332.1,111.8z M332.1,166.7c-12.5,0-22.6-10.2-22.6-22.7s10.1-22.6,22.6-22.6c12.5,0,22.7,10.1,22.7,22.6
			S344.6,166.7,332.1,166.7z"/>
	</g>
	<g>
		<path class="st0" d="M339.5,219.2c-2.4-0.5-4.9-0.8-7.4-0.8c-0.7,0-1.5,0-2.2,0.1c-16.8,1.1-30.1,15.2-30.1,32.2
			c0,4.8,1,9.3,2.9,13.4c1.3,3,3.2,5.7,5.3,8.1c5.9,6.6,14.5,10.8,24,10.8c17.8,0,32.3-14.5,32.3-32.3
			C364.4,235.4,353.8,222.6,339.5,219.2z M332.1,273.3c-12.5,0-22.6-10.2-22.6-22.7c0-12.5,10.1-22.7,22.6-22.7
			c12.5,0,22.7,10.2,22.7,22.7C354.8,263.1,344.6,273.3,332.1,273.3z"/>
	</g>
	<g>
		<path class="st0" d="M269.3,293.8c-1.2-3-2.8-5.9-4.9-8.4c-5.9-7.4-15-12.1-25.2-12.1c-9.4,0-18,4.1-23.9,10.6
			c-2.2,2.4-4,5.1-5.4,8.1c-2,4.2-3,8.8-3,13.6c0,17.8,14.5,32.3,32.3,32.3s32.3-14.5,32.3-32.3
			C271.6,301.4,270.8,297.5,269.3,293.8z M239.2,328.3c-12.5,0-22.7-10.2-22.7-22.7c0-12.5,10.2-22.6,22.7-22.6
			c12.5,0,22.7,10.1,22.7,22.6C261.9,318.1,251.7,328.3,239.2,328.3z"/>
	</g>
	<g>
		<path class="st0" d="M239.2,59.6c-17.8,0-32.3,14.5-32.3,32.3c0,3.9,0.7,7.5,1.9,11c1.1,3,2.7,5.9,4.6,8.5
			c5.9,7.8,15.3,12.8,25.8,12.8c11,0,20.6-5.5,26.5-13.8c1.9-2.6,3.3-5.6,4.3-8.7c1-3.1,1.5-6.4,1.5-9.8
			C271.6,74.1,257.1,59.6,239.2,59.6z M239.2,114.6c-12.5,0-22.7-10.1-22.7-22.6s10.2-22.7,22.7-22.7c12.5,0,22.7,10.2,22.7,22.7
			S251.7,114.6,239.2,114.6z"/>
	</g>
	<g>
		<path class="st0" d="M174,131.2c-1.3-3-3-5.7-5.2-8.2c-5.9-6.9-14.7-11.2-24.4-11.2c-17.8,0-32.3,14.5-32.3,32.3
			c0,16.2,11.9,29.6,27.5,31.9c1.6,0.3,3.2,0.4,4.8,0.4s3.2-0.1,4.8-0.4c15.5-2.3,27.5-15.8,27.5-31.9
			C176.7,139.5,175.8,135.2,174,131.2z M144.4,166.7c-12.5,0-22.6-10.2-22.6-22.7s10.1-22.6,22.6-22.6s22.7,10.1,22.7,22.6
			S156.9,166.7,144.4,166.7z"/>
	</g>
	<g>
		<path class="st0" d="M149.2,218.7c-1.6-0.3-3.2-0.4-4.8-0.4s-3.2,0.1-4.8,0.4c-15.5,2.3-27.5,15.8-27.5,31.9
			c0,17.8,14.5,32.3,32.3,32.3c9.9,0,18.8-4.5,24.7-11.6c2.1-2.5,3.8-5.2,5.1-8.2v0c1.6-3.9,2.5-8.1,2.5-12.5
			C176.7,234.5,164.8,221,149.2,218.7z M144.4,273.3c-12.5,0-22.6-10.2-22.6-22.7c0-12.5,10.1-22.7,22.6-22.7s22.7,10.2,22.7,22.7
			C167.1,263.1,156.9,273.3,144.4,273.3z"/>
	</g>
	<g>
		<rect x="139.6" y="171.5" class="st0" width="9.6" height="51.6"/>
	</g>
	<g>
		<rect x="329.9" y="172.9" class="st0" width="9.6" height="51.6"/>
	</g>
	<g>

			<rect x="261.7" y="273.3" transform="matrix(0.8727 -0.4883 0.4883 0.8727 -99.1941 175.8002)" class="st0" width="51.6" height="9.6"/>
	</g>
	<g>

			<rect x="188.4" y="252.3" transform="matrix(0.4498 -0.8931 0.8931 0.4498 -142.086 325.5677)" class="st0" width="9.6" height="51.6"/>
	</g>
	<g>

			<rect x="281.8" y="90.8" transform="matrix(0.4885 -0.8726 0.8726 0.4885 44.9008 309.7645)" class="st0" width="9.6" height="51.6"/>
	</g>
	<g>
		<rect x="166.5" y="111.8" transform="matrix(0.893 -0.45 0.45 0.893 -31.8874 99.037)" class="st0" width="51.6" height="9.6"/>
	</g>
</g>
<g>
	<path class="st0" d="M409,364.4l-7.8,7.8v13.7l7.8-7.8l1.9,1.9v-13.6L409,364.4z M401.2,402.2v13.6l9.6-9.6v-13.6L401.2,402.2z
		 M409,364.4l-7.8,7.8v13.7l7.8-7.8l1.9,1.9v-13.6L409,364.4z M334.1,445.2h-13.6l9.6,9.6h13.7L334.1,445.2z M358.2,445.2l-9.6,9.6
		h13.6l9.6-9.6H358.2z M142.4,0L62.4,80v374.8h227.7c-0.1-1.3-0.2-2.7-0.2-4v-5.6H72.1V83.9l74.3-74.3h254.8v327.8h2.1
		c2.6,0,5.1,0.2,7.6,0.7V0H142.4z M409,364.4l-7.8,7.8v13.7l7.8-7.8l1.9,1.9v-13.6L409,364.4z M358.2,445.2l-9.6,9.6h13.6l9.6-9.6
		H358.2z M409,364.4l-7.8,7.8v13.7l7.8-7.8l1.9,1.9v-13.6L409,364.4z"/>
</g>
<g>
	<polygon class="st0" points="149.2,86.8 67.3,86.8 67.3,77.1 139.6,77.1 139.6,4.8 149.2,4.8 	"/>
</g>
<g>
	<path class="st0" d="M410.9,366.2v13.6l6.3,6.3l-16,16v13.6l29.6-29.6L410.9,366.2z M410.9,366.2v13.6l6.3,6.3l-16,16l-43,43h13.6
		l59-59L410.9,366.2z M410.9,366.2l-1.9-1.9l-7.8,7.8l-55.1,55.1l-22.4-22.4L302,426.7l18.5,18.5l9.6,9.6l16,16l16-16l68.6-68.6
		L410.9,366.2z M401.2,402.2l-43,43l-12,12l-12-12l-18.5-18.5l8.1-8.1l22.4,22.4L409,378l8.2,8.2L401.2,402.2z M410.9,366.2
		l-1.9-1.9l-7.8,7.8l-55.1,55.1l-22.4-22.4L302,426.7l18.5,18.5l9.6,9.6l16,16l16-16l68.6-68.6L410.9,366.2z M401.2,402.2l-43,43
		l-12,12l-12-12l-18.5-18.5l8.1-8.1l22.4,22.4L409,378l8.2,8.2L401.2,402.2z M410.9,333.2c-2.4-0.4-5-0.7-7.6-0.7h-73.8
		c-24.5,0-44.4,19.9-44.4,44.4v73.8c0,1.3,0.1,2.7,0.2,4c2,22.7,21.1,40.4,44.2,40.4h73.8c24.5,0,44.4-19.9,44.4-44.4V377
		C447.7,355.1,431.8,336.8,410.9,333.2z M442.9,450.8c0,21.9-17.8,39.6-39.6,39.6h-73.8c-20.5,0-37.4-15.6-39.4-35.6
		c-0.1-1.3-0.2-2.7-0.2-4V377c0-21.8,17.8-39.6,39.6-39.6h73.8c2.6,0,5.1,0.2,7.6,0.7c18.2,3.5,32,19.6,32,38.9V450.8z M409,364.4
		l-7.8,7.8l-55.1,55.1l-22.4-22.4L302,426.7l18.5,18.5l9.6,9.6l16,16l16-16l68.6-68.6l-19.9-20L409,364.4z M417.2,386.2l-16,16
		l-43,43l-12,12l-12-12l-18.5-18.5l8.1-8.1l22.4,22.4L409,378L417.2,386.2z M410.9,366.2v13.6l6.3,6.3l-16,16l-43,43h13.6l59-59
		L410.9,366.2z M410.9,366.2v13.6l6.3,6.3l-16,16l-43,43h13.6l59-59L410.9,366.2z"/>
	<path class="st0" d="M410.9,328.3c-2.5-0.4-5-0.6-7.6-0.6h-73.8c-27.1,0-49.2,22.1-49.2,49.2v73.8c0,1.3,0,2.7,0.2,4
		c2,25.3,23.3,45.2,49,45.2h73.8c27.1,0,49.2-22.1,49.2-49.2V377C452.6,352.4,434.4,332,410.9,328.3z M442.9,450.8
		c0,21.9-17.8,39.6-39.6,39.6h-73.8c-20.5,0-37.4-15.6-39.4-35.6c-0.1-1.3-0.2-2.7-0.2-4V377c0-21.8,17.8-39.6,39.6-39.6h73.8
		c2.6,0,5.1,0.2,7.6,0.7c18.2,3.5,32,19.6,32,38.9V450.8z"/>
</g>
<g>
	<rect x="105.8" y="355" class="st0" width="109.6" height="9.6"/>
</g>
<g>
	<rect x="105.2" y="380.8" class="st0" width="133.4" height="9.6"/>
</g>
<g>
	<rect x="105.8" y="406.6" class="st0" width="109.6" height="9.6"/>
</g>
<g>
	<path class="st0" d="M410.9,366.2l-1.9-1.9l-7.8,7.8l-55.1,55.1l-22.4-22.4L302,426.7l18.5,18.5l9.6,9.6l16,16l16-16l68.6-68.6
		L410.9,366.2z M401.2,402.2l-43,43l-12,12l-12-12l-18.5-18.5l8.1-8.1l22.4,22.4L409,378l8.2,8.2L401.2,402.2z"/>
</g>
</svg>
