<?xml version="1.0" encoding="utf-8"?>
<!-- Generator: Adobe Illustrator 27.7.0, SVG Export Plug-In . SVG Version: 6.00 Build 0)  -->
<svg version="1.1" id="Layer_1" xmlns="http://www.w3.org/2000/svg" xmlns:xlink="http://www.w3.org/1999/xlink" x="0px" y="0px"
	 viewBox="0 0 500 500" style="enable-background:new 0 0 500 500;" xml:space="preserve">
<style type="text/css">
	.st0{fill:#1C1E21;}
</style>
<g>
	<path class="st0" d="M340.2,159.3c-1.9-0.3-3.9-0.4-5.8-0.4H165.5c-1.9,0-3.9,0.1-5.8,0.4c-19.2,2.8-33.9,19.3-33.9,39.2v136.6
		c0,21.9,17.8,39.7,39.6,39.7h168.9c21.9,0,39.7-17.8,39.7-39.7V198.6C374.1,178.6,359.3,162.1,340.2,159.3z M363.5,335.2
		c0,16-13.1,29.1-29.1,29.1H165.5c-16,0-29.1-13.1-29.1-29.1V198.6c0-16,13-29.1,29.1-29.1h168.9c16,0,29.1,13,29.1,29.1V335.2z"/>
</g>
<g>
	<path class="st0" d="M329.6,164.2l-0.1-33.4c0-43.9-35.7-79.6-79.6-79.6s-79.6,35.7-79.6,79.6v33.4h-10.6v-33.4
		c0-49.7,40.5-90.2,90.2-90.2s90.2,40.5,90.2,90.2l0.1,33.4L329.6,164.2z"/>
</g>
<g>
	<path class="st0" d="M313.4,164.2h-10.6v-33.4c0-29.2-23.7-52.9-52.9-52.9c-29.2,0-52.9,23.7-52.9,52.9v33.4h-10.6v-33.4
		c0-35,28.5-63.5,63.5-63.5c35,0,63.5,28.5,63.5,63.5V164.2z"/>
</g>
<g>
	<path class="st0" d="M267.5,262.4v44.5c0,8.1-6.6,14.7-14.7,14.7c-8.1,0-14.7-6.6-14.7-14.7v-44.5c1.6,1.4,3.3,2.5,5.3,3.4h0l0,5.7
		v35.4c0,5.2,4.2,9.4,9.4,9.4c5.2,0,9.4-4.2,9.4-9.4v-29.8l0-5.6l0-5.7c0,0,0,0,0.1,0C264.2,264.9,266,263.8,267.5,262.4z"/>
	<path class="st0" d="M267.5,262.4c-1.6,1.4-3.3,2.5-5.3,3.4v41.1c0,5.2-4.2,9.4-9.4,9.4c-5.2,0-9.4-4.2-9.4-9.4v-41
		c-1.9-0.9-3.7-2-5.3-3.4c-2.2-1.8-3.9-3.9-5.3-6.4v50.9c0,11,9,20,20,20c11,0,20-9,20-20v-50.9
		C271.5,258.4,269.7,260.6,267.5,262.4z"/>
</g>
<g>
	<path class="st0" d="M280.9,245.1c0,7.7-3,14.6-8,19.7c-1.6,1.6-3.3,3-5.3,4.2c-1.7,1.1-3.4,1.9-5.3,2.5v0c0,0,0,0,0,0l0-5.7
		c0,0,0,0,0.1,0c1.9-0.8,3.7-2,5.3-3.4c2.2-1.8,3.9-3.9,5.3-6.4c0,0,0,0,0,0c1.8-3.2,2.8-6.9,2.8-10.8c0-12.5-10.2-22.7-22.8-22.7
		c-12.5,0-22.7,10.2-22.7,22.7c0,3.9,1,7.6,2.8,10.8c0,0,0,0,0,0c1.4,2.5,3.1,4.7,5.3,6.4c1.6,1.4,3.3,2.5,5.3,3.4h0l0,5.7
		c-1.9-0.6-3.6-1.5-5.3-2.5c-1.9-1.2-3.7-2.6-5.3-4.2c-5-5.1-8-12-8-19.7c0-15.4,12.6-28,28-28C268.3,217.1,280.9,229.6,280.9,245.1
		z"/>
	<path class="st0" d="M252.8,211.8c-18.4,0-33.3,14.9-33.3,33.3c0,10.9,5.2,20.6,13.3,26.7c1.6,1.3,3.4,2.4,5.3,3.3
		c1.7,0.8,3.5,1.6,5.3,2.1v-5.6l0-5.7h0c-1.9-0.9-3.7-2-5.3-3.4c-2.2-1.8-3.9-3.9-5.3-6.4c0,0,0,0,0,0c-1.8-3.2-2.8-6.9-2.8-10.8
		c0-12.5,10.2-22.7,22.7-22.7c12.6,0,22.8,10.2,22.8,22.7c0,3.9-1,7.6-2.8,10.8c0,0,0,0,0,0c-1.4,2.5-3.1,4.7-5.3,6.4
		c-1.6,1.4-3.3,2.5-5.3,3.4c0,0,0,0-0.1,0l0,5.7l0,5.6c1.8-0.6,3.6-1.2,5.3-2.1c1.9-0.9,3.6-2,5.3-3.3c8.1-6.1,13.3-15.7,13.3-26.6
		C286.2,226.7,271.2,211.8,252.8,211.8z"/>
</g>
<g>
	<path class="st0" d="M456.5,93c-22.8-8.3-62.2-28.8-70.1-72c-2.2-12.2-12.7-21-25-21H138.6c-12.3,0-22.8,8.8-25,21
		c-7.9,43.2-47.3,63.7-70.1,72c-10.2,3.8-17,13.6-16.8,24.5c2.5,117.3,33.9,213.9,93.3,287.2c47.4,58.5,99.3,84.6,119.4,93
		c3.4,1.4,7,2.2,10.6,2.2c3.6,0,7.2-0.7,10.5-2.2c20.1-8.5,72-34.5,119.4-93c59.4-73.3,90.8-169.9,93.3-287.2
		C473.5,106.7,466.7,96.8,456.5,93z M371.7,398.1c-45.9,56.7-95.9,81.8-115.3,90c-4.1,1.7-8.7,1.7-12.9,0
		c-19.3-8.2-69.3-33.3-115.3-90c-57.8-71.4-88.4-165.9-90.9-280.8c-0.1-6.3,3.8-12.1,9.8-14.3c24.9-9.1,68-31.7,76.9-80.1
		c1.3-7.2,7.4-12.4,14.6-12.4h222.8c7.2,0,13.3,5.2,14.6,12.4c8.8,48.4,51.9,70.9,76.8,80.1c6,2.2,10,8,9.9,14.3
		C460.2,232.2,429.6,326.7,371.7,398.1z"/>
</g>
</svg>
