<?xml version="1.0" encoding="utf-8"?>
<!-- Generator: Adobe Illustrator 27.7.0, SVG Export Plug-In . SVG Version: 6.00 Build 0)  -->
<svg version="1.1" id="Layer_1" xmlns="http://www.w3.org/2000/svg" xmlns:xlink="http://www.w3.org/1999/xlink" x="0px" y="0px"
	 viewBox="0 0 500 500" style="enable-background:new 0 0 500 500;" xml:space="preserve">
<style type="text/css">
	.st0{fill:#FFFFFF;}
</style>
<g>
	<g>
		<g>
			<path class="st0" d="M87.1,142.3c1.1,0.5,2.6,1.2,4.5,2c-1.3,2.1-2.6,4.2-3.8,6.3c-1.9-0.8-3.4-1.5-4.5-1.9
				c-1.1-0.5-1.8-0.8-1.8-0.8l3.2-6.6C84.8,141.2,85.6,141.6,87.1,142.3z"/>
			<path class="st0" d="M178.8,171.6c-0.5,2.4-0.9,4.7-1.3,7.2c-3.2-0.6-6.3-1.3-9.4-2.1c0.3-1.5,0.5-3,0.8-4.5
				c-3.3,0.7-6.5,1.5-9.7,2.3c-3.1-0.8-6.1-1.5-9-2.4c-3.1-0.8-6.1-1.7-9-2.6c4.3-1.3,8.7-2.6,13.3-3.8c3.3,0.9,6.8,1.8,10.3,2.6
				c1.5,0.4,3.1,0.8,4.6,1.1c2,0.5,3.9,0.9,6,1.3C176.5,171.1,177.7,171.3,178.8,171.6z"/>
			<path class="st0" d="M331.6,179.8c-1.6,0.3-3.2,0.6-4.8,0.9c-1.5,0.3-3.1,0.6-4.7,0.8c-0.8-2.3-1.6-4.6-2.2-7
				c1.6-0.3,3.2-0.5,4.7-0.8c1.6-0.3,3.2-0.6,4.7-0.9C330,175.1,330.7,177.5,331.6,179.8z"/>
			<path class="st0" d="M423.6,153.1c-3,1.1-6.4,2.4-10.3,3.9c-1.7-1.1-3.7-2.1-6.1-3.1c-1.1-0.4-2.2-0.9-3.2-1.3
				c4.5-1.6,8.7-3.1,12.3-4.5C419.2,149.6,421.6,151.2,423.6,153.1z"/>
		</g>
	</g>
	<g>
		<g>
			<path class="st0" d="M227.4,321.1c-1.6,2.3-3.4,4.5-5.4,6.6l-1.2,1.3c-2.4,0.3-4.8,0.5-7.3,0.8h0c-2.5,0.3-5,0.6-7.4,1l7.8-8.3
				h0.2c0.5-0.1,1-0.2,1.5-0.2c1.5-0.2,3.1-0.4,4.7-0.5h0.1c0.2,0,0.5,0,0.7-0.1C223,321.5,225.2,321.3,227.4,321.1z"/>
			<path class="st0" d="M362.4,334.5c-5,1.3-10.1,2.5-15.4,3.6c0,0,0,0.1,0,0.1c-0.1,0-0.2,0-0.2-0.1h0c-3-0.7-6-1.4-9.1-2
				c-1-0.2-2-0.4-3.1-0.6c-4.5-0.9-9-1.8-13.7-2.6c6.1-0.9,12.1-1.9,18-3c0.1-0.3,0.1-0.6,0.2-0.9c0.7,0.2,1.4,0.3,2.1,0.5h0
				c2.4,0.5,4.8,1,7.3,1.6c1.2,0.3,2.4,0.5,3.6,0.8c2.5,0.6,4.9,1.1,7.3,1.8C360.4,333.9,361.4,334.2,362.4,334.5z"/>
			<path class="st0" d="M436.4,359.5l-3,6.6c-0.1-0.1-1.2-0.6-3.3-1.5c-0.6-0.3-1.4-0.6-2.2-0.9c-0.7-0.3-1.5-0.6-2.4-1
				c1.4-2,2.7-4,4-6.1c0.8,0.3,1.6,0.6,2.3,1c0.8,0.3,1.6,0.6,2.2,0.9C435.6,359.1,436.4,359.4,436.4,359.5z"/>
		</g>
	</g>
	<g>
		<g>
			<path class="st0" d="M236.1,260.8l-5.1,0h0l-5,0.1c-1-2.5-2.3-4.9-3.6-7.3l5.4,0l5.3,0C234.2,255.9,235.2,258.4,236.1,260.8z"/>
			<path class="st0" d="M465.2,258.8h-5l-2.7,0c0.4-1.8,0.7-3.7,0.9-5.6H355.7c0,2.1,0,4.3-0.1,6.5l-9.5,0.1c0-2.2,0.1-4.4,0.1-6.6
				h-80l80-0.7l9.5-0.1l12.9-0.1l7.3,0l82.7-0.7l1.9,0h2.9l1.1,0h0.8v0.8L465.2,258.8z"/>
		</g>
	</g>
	<g>
		<path class="st0" d="M371.6,72.6c-1.6-1-3.2-1.9-4.8-2.9c-31.1-18.4-67.3-28.9-106-28.9H259c-0.5,0-1.1,0-1.6,0
			c-0.3,0-0.6,0-0.9,0C154.1,43,69.6,119,54.2,217.6c-0.3,1.6-0.5,3.3-0.7,5c-0.2,1.7-0.4,3.4-0.6,5c0.8-0.2,1.7-0.4,2.6-0.6
			c0.8-0.2,1.5-0.3,2.3-0.4c1.2-0.2,2.4-0.3,3.7-0.4c0.4,0,0.8-0.1,1.2-0.1c0.1-0.8,0.2-1.5,0.3-2.2v0c0.1-0.8,0.2-1.7,0.4-2.6
			c0.2-1.6,0.5-3.2,0.8-4.8c0.2-1,0.3-1.9,0.5-2.9c4.2-22.6,12.1-43.9,23.3-63.1c1.2-2.1,2.4-4.2,3.8-6.3
			c29.2-46.7,77.2-80.4,133.4-90.6c9.7-1.8,19.8-2.9,30-3.1c0.6,0,1.1-0.1,1.7,0c0.3,0,0.5,0,0.8,0c0.5,0,1,0,1.5,0
			c0.2,0,0.4,0,0.6,0c0,0,0.1,0,0.2,0c0,0,0,0,0.1,0h1.1c1.2,0,2.5,0,3.7,0c9.3,0.2,18.4,1,27.3,2.4c23.4,3.7,45.5,11.4,65.5,22.5
			c1.6,0.8,3.1,1.7,4.7,2.7c1.5,0.9,3.1,1.8,4.6,2.8c1.6-1,3.2-1.9,4.8-2.7c1.6-0.8,3.3-1.6,5-2.3C374.8,74.7,373.3,73.7,371.6,72.6
			z M468,221c-0.2-1.9-0.5-3.7-0.8-5.6c-0.3-1.9-0.6-3.8-1-5.7c-1.3,1.3-2.7,2.6-4.1,3.8c-1.4,1.2-2.8,2.4-4.3,3.5
			c0.2,1,0.3,1.9,0.5,2.9c0.1,0.8,0.2,1.6,0.3,2.4c0.2,1.8,0.5,3.6,0.6,5.3c0.2,1.7,0.4,3.3,0.5,5c0.3,3.7,0.5,7.4,0.6,11.1
			c0.1,1.6,0.1,3.2,0.1,4.8c0,0.5,0,1,0,1.5c0,0.5,0,1,0,1.6c0,0.6,0,1.1,0,1.7c0,1.8-0.1,3.7-0.2,5.5c-0.1,2.8-0.3,5.7-0.5,8.5
			c-0.3,4.3-0.8,8.5-1.5,12.7c-4.2,27.8-14.2,53.7-28.6,76.5c-1.3,2.1-2.7,4.1-4,6.1c-30.4,44.3-78.3,75.8-133.7,84.5
			c-8.9,1.4-18,2.2-27.3,2.4c-1.2,0-2.5,0-3.7,0h-1.1c0,0,0,0-0.1,0c0,0-0.1,0-0.2,0c-0.2,0-0.4,0-0.6,0c-0.5,0-1,0-1.5,0
			c-0.3,0-0.5,0-0.8,0c-0.6,0-1.1,0-1.7,0c-10.2-0.3-20.2-1.3-30-3.1c-29.9-5.4-57.6-17.6-81.2-34.8c-1.3-0.9-2.6-1.9-3.9-2.9
			c-1.3-1-2.5-1.9-3.8-2.9l-3.3,3.6l-3.2,3.4c1.2,1,2.5,2,3.7,2.9c1.3,1,2.6,2,3.9,2.9c33.6,24.7,74.7,39.6,119.2,40.5
			c0.3,0,0.6,0,0.9,0c0.5,0,1.1,0,1.6,0h1.9C376.2,459.2,470,365.3,470,250C470,240.2,469.3,230.5,468,221z M424.7,120.2
			c-2.1-1.1-4.8-2-8.1-2.5c-1.3-0.2-2.7-0.3-4.3-0.4v-10.5h-6.7v6c3.9,4,7.5,8.2,11,12.6c3.3,0.8,5.7,2.1,7.1,2.9l0.4-1.1l1.9-5.1
			C425.7,121.4,425.2,120.8,424.7,120.2z M424.7,120.2c-2.1-1.1-4.8-2-8.1-2.5c-1.3-0.2-2.7-0.3-4.3-0.4v-10.5h-6.7v6
			c3.9,4,7.5,8.2,11,12.6c3.3,0.8,5.7,2.1,7.1,2.9l0.4-1.1l1.9-5.1C425.7,121.4,425.2,120.8,424.7,120.2z"/>
	</g>
	<g>
		<path class="st0" d="M402.9,184.7c-5.6-0.4-11.1-2.2-14.5-4.7l0.4-1.1C393.6,180.8,398.4,182.7,402.9,184.7z"/>
		<path class="st0" d="M390.4,174.2l-1.7,4.7l-0.4,1.1c3.4,2.4,8.9,4.2,14.5,4.7h0c0.7,0.1,1.3,0.1,2,0.1v5.7
			c2.4,1.1,4.6,2.3,6.8,3.4v-9.4c0.6-0.1,1.1-0.2,1.6-0.3C406.3,180.5,398.6,177.2,390.4,174.2z M464.3,231.2
			c-0.7-1.8-1.6-3.6-2.5-5.4c-0.8-1.4-1.5-2.7-2.4-4.1c-0.4-0.6-0.8-1.2-1.2-1.8c-0.5-0.7-1-1.5-1.5-2.1c-1.3,1-2.6,1.9-4,2.7
			c-1.3,0.8-2.6,1.6-4,2.4c1,1.3,1.9,2.6,2.7,4c0.9,1.4,1.6,2.7,2.4,4.1c2.1,4.2,3.6,8.4,4.3,12.8c0.2,1.6,0.4,3.2,0.5,4.8
			c0,0.5,0,1,0,1.5c0,0.5,0,1.1,0,1.6c0,0.6,0,1.1-0.1,1.7c-0.2,1.9-0.5,3.7-0.9,5.6c-7,30.2-49.3,55.8-108.5,68.9
			c-2.6,0.6-5.2,1.1-7.9,1.7h0c-0.8,0.2-1.5,0.3-2.3,0.4c-5.9,1.1-11.8,2.1-18,3h-0.1c-17.8,2.5-36.7,4-56.3,4.2c-1.6,0-3.2,0-4.8,0
			H259c-1.3,0-2.6,0-4,0c-13.7-0.1-27-0.8-39.9-2.1c-2-0.2-4-0.4-5.9-0.6h0c-1.9-0.2-3.9-0.5-5.8-0.7l-4,4.3l-4,4.4
			c1.9,0.3,3.8,0.5,5.8,0.8c1.9,0.2,3.9,0.5,5.8,0.7c15.3,1.8,31.5,2.7,48.1,2.9c1.3,0,2.6,0,4,0h0.8c1.6,0,3.2,0,4.8,0
			c25.6-0.3,49.9-2.6,72.2-6.6c3.4-0.6,6.7-1.3,10-1.9h0c0.1,0,0.2,0,0.3,0c5.3-1.1,10.4-2.3,15.4-3.6h0
			c45.3-11.7,79.7-31,95.7-54.4c2.5-3.7,4.6-7.4,6.1-11.3c2.5-6.1,3.8-12.3,3.8-18.8S466.8,237.3,464.3,231.2z M327.3,163.3
			c-0.2-1.7-0.5-3.4-0.6-5c-1.6-0.2-3.2-0.5-4.8-0.7c-1.6-0.2-3.2-0.4-4.8-0.6c-16.7-2.1-34.3-3.4-52.5-3.6c-1.6,0-3.2,0-4.8,0H259
			c-1.3,0-2.6,0-4,0c-26.2,0.2-51,2.5-73.8,6.6c-3.5,0.6-6.9,1.3-10.3,2c-5.6,1.2-11.1,2.5-16.4,3.9c-4.5,1.2-9,2.4-13.3,3.8
			c-34.4,10.7-61.2,26-76.7,44.1c-0.8,1-1.6,2-2.4,3c-1.3,1.7-2.5,3.4-3.6,5.1c0,0.1-0.1,0.2-0.2,0.2c-1,1.7-2,3.4-2.9,5
			c0.8-0.2,1.5-0.3,2.3-0.4c1.2-0.2,2.4-0.3,3.7-0.4c0.4,0,0.8-0.1,1.2-0.1c1.1-0.1,2.2-0.1,3.3-0.1c0.3,0,0.7,0,1.1,0
			c1-1.6,2.1-3.1,3.4-4.6c1.1-1.5,2.4-3,3.8-4.4c16.8-17.9,47-32.9,85.1-42.6c3.2-0.8,6.4-1.6,9.7-2.3c2.1-0.5,4.3-1,6.5-1.4
			c1.2-0.3,2.5-0.5,3.7-0.7c23.3-4.5,49-7.1,75.9-7.3c1.3,0,2.6,0,4,0h0.8c1.6,0,3.2,0,4.8,0c18.6,0.2,36.7,1.6,53.7,3.9
			c1.7,0.2,3.3,0.5,5,0.7c1.7,0.3,3.4,0.5,5,0.8C327.9,166.6,327.6,165,327.3,163.3z"/>
	</g>
	<g>
		<path class="st0" d="M331.7,110.7c-0.7-1.9-1.5-3.7-2.3-5.5c-10.3-23.4-23.1-41.5-37.5-52.4c-3.1-2.4-6.3-4.4-9.5-6
			c-7.3-3.8-14.9-5.8-22.7-5.9H259c-0.5,0-1.1,0-1.6,0c-0.3,0-0.6,0-0.9,0c-7.6,0.4-14.9,2.6-21.9,6.4c-3.2,1.8-6.5,3.9-9.5,6.3
			c-24.2,19-43.6,58-54.1,108.3c-0.4,1.8-0.7,3.5-1.1,5.3c-0.2,0.7-0.3,1.5-0.4,2.3c-0.2,0.9-0.3,1.8-0.5,2.7
			c-0.3,1.5-0.5,2.9-0.8,4.5c-2.2,12.9-3.8,26.5-4.7,40.7c-0.2,1.6-0.2,3.2-0.3,4.9c-0.1,1.6-0.2,3.2-0.2,4.9c3.2-0.6,6.4-1,9.6-1
			c0.1-1.6,0.2-3.2,0.3-4.8c0.1-1.6,0.2-3.2,0.3-4.8c1-13.1,2.5-25.7,4.5-37.8c0.4-2.4,0.8-4.8,1.3-7.2c0.1-0.5,0.2-1,0.3-1.5
			c0.3-1.7,0.6-3.3,1-5c0.3-1.8,0.7-3.5,1.1-5.2C195,97.5,222.7,53.9,255,50.6c0.6-0.1,1.1-0.1,1.7-0.2c0.3,0,0.5,0,0.8,0
			c0.5,0,1,0,1.5,0c0.2,0,0.4,0,0.6,0c0,0,0.1,0,0.2,0c0,0,0,0,0.1,0c1.6,0,3.2,0.2,4.8,0.4c23.4,3.4,44.4,28.1,59.2,65.7
			c0.8,2.2,1.7,4.4,2.5,6.7v0c0.9,2.5,1.8,5.1,2.7,7.8c1.3-5,3-9.7,5.1-14.3C333.3,114.7,332.6,112.7,331.7,110.7z M355.7,243.8
			c-0.1-6.1-0.3-12.1-0.6-18.1c-0.1-2.1-0.2-4.2-0.4-6.3c-0.2-2.2-0.3-4.4-0.5-6.6c-3.9-3.4-7.5-7.3-10.7-11.5
			c0.3,2.8,0.6,5.7,0.9,8.5c0.2,2.4,0.4,4.9,0.6,7.4c0.6,8.7,1,17.5,1.1,26.5c0,1.6,0,3.2,0,4.8v4c0,0.2,0,0.5,0,0.7
			c0,2.2,0,4.4-0.1,6.6c-0.5,24.4-3,47.8-7,69.1c0,0.3-0.1,0.6-0.2,0.9c-0.3,1.7-0.6,3.3-1,5c-0.1,0.4-0.2,0.8-0.3,1.2
			c-0.3,1.3-0.5,2.7-0.8,4c-13.6,61.4-40.7,104.6-72.2,109.2c-1.6,0.2-3.2,0.4-4.8,0.4c0,0,0,0-0.1,0c0,0-0.1,0-0.2,0
			c-0.2,0-0.4,0-0.6,0c-0.5,0-1,0-1.5,0c-0.3,0-0.5,0-0.8,0c-0.6,0-1.1-0.1-1.7-0.2c-27.8-2.9-52.3-35.7-67.4-84.8
			c-0.5-1.8-1-3.5-1.6-5.3c-0.5-1.8-1-3.6-1.5-5.4l-7.7,8.2c0.5,1.8,1,3.6,1.6,5.3c0.5,1.8,1.1,3.5,1.7,5.2
			c11.1,33.5,26.6,59.4,44.9,73.8c3.1,2.4,6.3,4.5,9.5,6.3c7,3.8,14.4,6,22,6.4c0.3,0,0.6,0,0.9,0c0.5,0,1.1,0,1.6,0h0.6
			c7.9-0.1,15.5-2.1,22.8-5.9c3.2-1.7,6.4-3.7,9.5-6c24.7-18.7,44.5-58.1,55.2-109c0,0,0-0.1,0-0.1c0.4-1.7,0.7-3.5,1.1-5.3
			c0.1-0.6,0.2-1.1,0.3-1.7c0.2-1.1,0.4-2.2,0.6-3.3c3.8-21.1,6.1-44,6.6-68c0.1-2.1,0.1-4.3,0.1-6.5c0-0.3,0-0.5,0-0.8v-4
			C355.7,246.9,355.7,245.4,355.7,243.8z"/>
	</g>
	<g>
		<path class="st0" d="M343.5,201.3c-5-6.5-9.1-13.7-12-21.6c-0.9-2.3-1.6-4.6-2.2-7c-0.5-1.5-0.8-3-1.1-4.5
			c-0.4-1.6-0.7-3.2-0.9-4.9c-0.2-1.7-0.5-3.4-0.6-5c-0.2-2.3-0.3-4.6-0.3-7c0-7,0.9-13.7,2.5-20.2c-0.9-2.6-1.8-5.2-2.7-7.8
			c-3,8.8-4.6,18.2-4.6,28c0,2.1,0.1,4.2,0.3,6.3c0.1,1.7,0.2,3.4,0.5,5c0.2,1.6,0.4,3.2,0.8,4.8c-1.6-0.2-3.3-0.5-5-0.7
			c0.4,2.6,1,5.2,1.6,7.8c1.6-0.3,3.2-0.5,4.7-0.8c0.6,2.4,1.3,4.7,2.1,7c3.9,10.9,10,20.8,17.7,29.2
			C344.2,207,343.9,204.2,343.5,201.3z M343.5,201.3c-5-6.5-9.1-13.7-12-21.6c-0.9-2.3-1.6-4.6-2.2-7c-0.5-1.5-0.8-3-1.1-4.5
			c-0.4-1.6-0.7-3.2-0.9-4.9c-0.2-1.7-0.5-3.4-0.6-5c-0.2-2.3-0.3-4.6-0.3-7c0-7,0.9-13.7,2.5-20.2c-0.9-2.6-1.8-5.2-2.7-7.8
			c-3,8.8-4.6,18.2-4.6,28c0,2.1,0.1,4.2,0.3,6.3c0.1,1.7,0.2,3.4,0.5,5c0.2,1.6,0.4,3.2,0.8,4.8c0.4,2.1,0.8,4.2,1.4,6.2
			c0.6,2.4,1.3,4.7,2.1,7c3.9,10.9,10,20.8,17.7,29.2C344.2,207,343.9,204.2,343.5,201.3z M343.5,201.3c-5-6.5-9.1-13.7-12-21.6
			c-0.9-2.3-1.6-4.6-2.2-7c-0.5-1.5-0.8-3-1.1-4.5c-0.4-1.6-0.7-3.2-0.9-4.9c-0.2-1.7-0.5-3.4-0.6-5c-0.2-2.3-0.3-4.6-0.3-7
			c0-7,0.9-13.7,2.5-20.2c-0.9-2.6-1.8-5.2-2.7-7.8c-3,8.8-4.6,18.2-4.6,28c0,2.1,0.1,4.2,0.3,6.3c0.1,1.7,0.2,3.4,0.5,5
			c0.2,1.6,0.4,3.2,0.8,4.8c0.4,2.1,0.8,4.2,1.4,6.2c0.6,2.4,1.3,4.7,2.1,7c3.9,10.9,10,20.8,17.7,29.2
			C344.2,207,343.9,204.2,343.5,201.3z M343.5,201.3c-5-6.5-9.1-13.7-12-21.6c-0.9-2.3-1.6-4.6-2.2-7c-0.5-1.5-0.8-3-1.1-4.5
			c-0.4-1.6-0.7-3.2-0.9-4.9c-0.2-1.7-0.5-3.4-0.6-5c-0.2-2.3-0.3-4.6-0.3-7c0-7,0.9-13.7,2.5-20.2c-0.9-2.6-1.8-5.2-2.7-7.8
			c-3,8.8-4.6,18.2-4.6,28c0,2.1,0.1,4.2,0.3,6.3c0.1,1.7,0.2,3.4,0.5,5c0.2,1.6,0.4,3.2,0.8,4.8c0.4,2.1,0.8,4.2,1.4,6.2
			c0.6,2.4,1.3,4.7,2.1,7c3.9,10.9,10,20.8,17.7,29.2C344.2,207,343.9,204.2,343.5,201.3z M343.5,201.3c-5-6.5-9.1-13.7-12-21.6
			c-0.9-2.3-1.6-4.6-2.2-7c-0.5-1.5-0.8-3-1.1-4.5c-0.4-1.6-0.7-3.2-0.9-4.9c-0.2-1.7-0.5-3.4-0.6-5c-0.2-2.3-0.3-4.6-0.3-7
			c0-7,0.9-13.7,2.5-20.2c-0.9-2.6-1.8-5.2-2.7-7.8c-3,8.8-4.6,18.2-4.6,28c0,2.1,0.1,4.2,0.3,6.3c0.1,1.7,0.2,3.4,0.5,5
			c0.2,1.6,0.4,3.2,0.8,4.8c0.4,2.1,0.8,4.2,1.4,6.2c0.6,2.4,1.3,4.7,2.1,7c3.9,10.9,10,20.8,17.7,29.2
			C344.2,207,343.9,204.2,343.5,201.3z M343.5,201.3c-5-6.5-9.1-13.7-12-21.6c-0.9-2.3-1.6-4.6-2.2-7c-0.5-1.5-0.8-3-1.1-4.5
			c-0.4-1.6-0.7-3.2-0.9-4.9c-0.2-1.7-0.5-3.4-0.6-5c-0.2-2.3-0.3-4.6-0.3-7c0-7,0.9-13.7,2.5-20.2c-0.9-2.6-1.8-5.2-2.7-7.8
			c-3,8.8-4.6,18.2-4.6,28c0,2.1,0.1,4.2,0.3,6.3c0.1,1.7,0.2,3.4,0.5,5c0.2,1.6,0.4,3.2,0.8,4.8c0.4,2.1,0.8,4.2,1.4,6.2
			c0.6,2.4,1.3,4.7,2.1,7c3.9,10.9,10,20.8,17.7,29.2C344.2,207,343.9,204.2,343.5,201.3z M343.5,201.3c-5-6.5-9.1-13.7-12-21.6
			c-0.9-2.3-1.6-4.6-2.2-7c-0.5-1.5-0.8-3-1.1-4.5c-0.4-1.6-0.7-3.2-0.9-4.9c-0.2-1.7-0.5-3.4-0.6-5c-0.2-2.3-0.3-4.6-0.3-7
			c0-7,0.9-13.7,2.5-20.2c-0.9-2.6-1.8-5.2-2.7-7.8c-3,8.8-4.6,18.2-4.6,28c0,2.1,0.1,4.2,0.3,6.3c0.1,1.7,0.2,3.4,0.5,5
			c0.2,1.6,0.4,3.2,0.8,4.8c0.4,2.1,0.8,4.2,1.4,6.2c0.6,2.4,1.3,4.7,2.1,7c3.9,10.9,10,20.8,17.7,29.2
			C344.2,207,343.9,204.2,343.5,201.3z M343.5,201.3c-5-6.5-9.1-13.7-12-21.6c-0.9-2.3-1.6-4.6-2.2-7c-0.5-1.5-0.8-3-1.1-4.5
			c-0.4-1.6-0.7-3.2-0.9-4.9c-0.2-1.7-0.5-3.4-0.6-5c-0.2-2.3-0.3-4.6-0.3-7c0-7,0.9-13.7,2.5-20.2c-0.9-2.6-1.8-5.2-2.7-7.8
			c-3,8.8-4.6,18.2-4.6,28c0,2.1,0.1,4.2,0.3,6.3c0.1,1.7,0.2,3.4,0.5,5c0.2,1.6,0.4,3.2,0.8,4.8c0.4,2.1,0.8,4.2,1.4,6.2
			c0.6,2.4,1.3,4.7,2.1,7c3.9,10.9,10,20.8,17.7,29.2C344.2,207,343.9,204.2,343.5,201.3z M343.5,201.3c-5-6.5-9.1-13.7-12-21.6
			c-0.9-2.3-1.6-4.6-2.2-7c-0.5-1.5-0.8-3-1.1-4.5c-0.4-1.6-0.7-3.2-0.9-4.9c-0.2-1.7-0.5-3.4-0.6-5c-0.2-2.3-0.3-4.6-0.3-7
			c0-7,0.9-13.7,2.5-20.2c-0.9-2.6-1.8-5.2-2.7-7.8c-3,8.8-4.6,18.2-4.6,28c0,2.1,0.1,4.2,0.3,6.3c0.1,1.7,0.2,3.4,0.5,5
			c0.2,1.6,0.4,3.2,0.8,4.8c0.4,2.1,0.8,4.2,1.4,6.2c0.6,2.4,1.3,4.7,2.1,7c3.9,10.9,10,20.8,17.7,29.2
			C344.2,207,343.9,204.2,343.5,201.3z M343.5,201.3c-5-6.5-9.1-13.7-12-21.6c-0.9-2.3-1.6-4.6-2.2-7c-0.5-1.5-0.8-3-1.1-4.5
			c-0.4-1.6-0.7-3.2-0.9-4.9c-0.2-1.7-0.5-3.4-0.6-5c-0.2-2.3-0.3-4.6-0.3-7c0-7,0.9-13.7,2.5-20.2c-0.9-2.6-1.8-5.2-2.7-7.8
			c-3,8.8-4.6,18.2-4.6,28c0,2.1,0.1,4.2,0.3,6.3c0.1,1.7,0.2,3.4,0.5,5c0.2,1.6,0.4,3.2,0.8,4.8c0.4,2.1,0.8,4.2,1.4,6.2
			c0.6,2.4,1.3,4.7,2.1,7c3.9,10.9,10,20.8,17.7,29.2C344.2,207,343.9,204.2,343.5,201.3z M343.5,201.3c-5-6.5-9.1-13.7-12-21.6
			c-0.9-2.3-1.6-4.6-2.2-7c-0.5-1.5-0.8-3-1.1-4.5c-0.4-1.6-0.7-3.2-0.9-4.9c-0.2-1.7-0.5-3.4-0.6-5c-0.2-2.3-0.3-4.6-0.3-7
			c0-7,0.9-13.7,2.5-20.2c-0.9-2.6-1.8-5.2-2.7-7.8c-3,8.8-4.6,18.2-4.6,28c0,2.1,0.1,4.2,0.3,6.3c0.1,1.7,0.2,3.4,0.5,5
			c0.2,1.6,0.4,3.2,0.8,4.8c0.4,2.1,0.8,4.2,1.4,6.2c0.6,2.4,1.3,4.7,2.1,7c3.9,10.9,10,20.8,17.7,29.2
			C344.2,207,343.9,204.2,343.5,201.3z M343.5,201.3c-5-6.5-9.1-13.7-12-21.6c-0.9-2.3-1.6-4.6-2.2-7c-0.5-1.5-0.8-3-1.1-4.5
			c-0.4-1.6-0.7-3.2-0.9-4.9c-0.2-1.7-0.5-3.4-0.6-5c-0.2-2.3-0.3-4.6-0.3-7c0-7,0.9-13.7,2.5-20.2c-0.9-2.6-1.8-5.2-2.7-7.8
			c-3,8.8-4.6,18.2-4.6,28c0,2.1,0.1,4.2,0.3,6.3c0.1,1.7,0.2,3.4,0.5,5c0.2,1.6,0.4,3.2,0.8,4.8c0.4,2.1,0.8,4.2,1.4,6.2
			c0.6,2.4,1.3,4.7,2.1,7c3.9,10.9,10,20.8,17.7,29.2C344.2,207,343.9,204.2,343.5,201.3z M343.5,201.3c-5-6.5-9.1-13.7-12-21.6
			c-0.9-2.3-1.6-4.6-2.2-7c-0.5-1.5-0.8-3-1.1-4.5c-0.4-1.6-0.7-3.2-0.9-4.9c-0.2-1.7-0.5-3.4-0.6-5c-0.2-2.3-0.3-4.6-0.3-7
			c0-7,0.9-13.7,2.5-20.2c-0.9-2.6-1.8-5.2-2.7-7.8c-3,8.8-4.6,18.2-4.6,28c0,2.1,0.1,4.2,0.3,6.3c0.1,1.7,0.2,3.4,0.5,5
			c0.2,1.6,0.4,3.2,0.8,4.8c0.4,2.1,0.8,4.2,1.4,6.2c0.6,2.4,1.3,4.7,2.1,7c3.9,10.9,10,20.8,17.7,29.2
			C344.2,207,343.9,204.2,343.5,201.3z M408.6,59.6c-15,0-29.2,3.6-41.8,10.1c-1.6,0.8-3.2,1.7-4.8,2.6c-1.6,0.9-3.2,1.9-4.7,2.9
			c-11.4,7.8-21,17.9-27.9,29.9c-2.1,3.6-4,7.4-5.6,11.3c-4.4,10.7-6.9,22.4-6.9,34.7c0,1.9,0.1,3.8,0.2,5.6c0.1,1.7,0.2,3.3,0.4,5
			c0.2,1.6,0.4,3.3,0.7,4.9c0.4,2.6,1,5.2,1.6,7.8c0.6,2.4,1.3,4.7,2.2,7c4.8,13.7,12.7,25.9,22.9,35.8c3.2,3.1,6.5,5.9,10.1,8.4
			c15.1,10.8,33.6,17.3,53.5,17.3c16.4,0,31.8-4.4,45.2-12c1.3-0.8,2.7-1.6,4-2.4c0.5-0.3,1-0.6,1.4-0.9c0.9-0.6,1.8-1.2,2.6-1.8
			c0.6-0.4,1.2-0.8,1.8-1.3c1.5-1.1,2.9-2.3,4.3-3.5c19.7-16.8,32.3-41.8,32.3-69.8C500.3,100.7,459.1,59.6,408.6,59.6z
			 M457.7,217.1c-0.3,0.3-0.7,0.5-1,0.7c-1.3,1-2.6,1.9-4,2.7c-1.3,0.8-2.6,1.6-4,2.4c-11.8,6.7-25.5,10.5-40.1,10.5
			c-20.8,0-39.9-7.8-54.4-20.6c-3.9-3.4-7.5-7.3-10.7-11.5c-5-6.5-9.1-13.7-12-21.6c-0.9-2.3-1.6-4.6-2.2-7c-0.5-1.5-0.8-3-1.1-4.5
			c-0.4-1.6-0.7-3.2-0.9-4.9c-0.2-1.7-0.5-3.4-0.6-5c-0.2-2.3-0.3-4.6-0.3-7c0-7,0.9-13.7,2.5-20.2c1.3-5,3-9.7,5.1-14.3
			c7-15,18.4-27.6,32.5-36c1.6-1,3.2-1.9,4.8-2.7c1.6-0.8,3.3-1.6,5-2.3c9.9-4.2,20.8-6.6,32.2-6.6c45.3,0,82.1,36.8,82.1,82.1
			c0,22.9-9.4,43.6-24.6,58.5c-1.3,1.3-2.7,2.6-4.1,3.8C460.6,214.8,459.2,216,457.7,217.1z M343.5,201.3c-5-6.5-9.1-13.7-12-21.6
			c-0.9-2.3-1.6-4.6-2.2-7c-0.5-1.5-0.8-3-1.1-4.5c-0.4-1.6-0.7-3.2-0.9-4.9c-0.2-1.7-0.5-3.4-0.6-5c-0.2-2.3-0.3-4.6-0.3-7
			c0-7,0.9-13.7,2.5-20.2c-0.9-2.6-1.8-5.2-2.7-7.8c-3,8.8-4.6,18.2-4.6,28c0,2.1,0.1,4.2,0.3,6.3c0.1,1.7,0.2,3.4,0.5,5
			c0.2,1.6,0.4,3.2,0.8,4.8c0.4,2.1,0.8,4.2,1.4,6.2c0.6,2.4,1.3,4.7,2.1,7c3.9,10.9,10,20.8,17.7,29.2
			C344.2,207,343.9,204.2,343.5,201.3z M343.5,201.3c-5-6.5-9.1-13.7-12-21.6c-0.9-2.3-1.6-4.6-2.2-7c-0.5-1.5-0.8-3-1.1-4.5
			c-0.4-1.6-0.7-3.2-0.9-4.9c-0.2-1.7-0.5-3.4-0.6-5c-0.2-2.3-0.3-4.6-0.3-7c0-7,0.9-13.7,2.5-20.2c-0.9-2.6-1.8-5.2-2.7-7.8
			c-3,8.8-4.6,18.2-4.6,28c0,2.1,0.1,4.2,0.3,6.3c0.1,1.7,0.2,3.4,0.5,5c0.2,1.6,0.4,3.2,0.8,4.8c0.4,2.1,0.8,4.2,1.4,6.2
			c0.6,2.4,1.3,4.7,2.1,7c3.9,10.9,10,20.8,17.7,29.2C344.2,207,343.9,204.2,343.5,201.3z M343.5,201.3c-5-6.5-9.1-13.7-12-21.6
			c-0.9-2.3-1.6-4.6-2.2-7c-0.5-1.5-0.8-3-1.1-4.5c-0.4-1.6-0.7-3.2-0.9-4.9c-0.2-1.7-0.5-3.4-0.6-5c-0.2-2.3-0.3-4.6-0.3-7
			c0-7,0.9-13.7,2.5-20.2c-0.9-2.6-1.8-5.2-2.7-7.8c-3,8.8-4.6,18.2-4.6,28c0,2.1,0.1,4.2,0.3,6.3c0.1,1.7,0.2,3.4,0.5,5
			c0.2,1.6,0.4,3.2,0.8,4.8c0.4,2.1,0.8,4.2,1.4,6.2c0.6,2.4,1.3,4.7,2.1,7c3.9,10.9,10,20.8,17.7,29.2
			C344.2,207,343.9,204.2,343.5,201.3z M343.5,201.3c-5-6.5-9.1-13.7-12-21.6c-0.9-2.3-1.6-4.6-2.2-7c-0.5-1.5-0.8-3-1.1-4.5
			c-0.4-1.6-0.7-3.2-0.9-4.9c-0.2-1.7-0.5-3.4-0.6-5c-0.2-2.3-0.3-4.6-0.3-7c0-7,0.9-13.7,2.5-20.2c-0.9-2.6-1.8-5.2-2.7-7.8
			c-3,8.8-4.6,18.2-4.6,28c0,2.1,0.1,4.2,0.3,6.3c0.1,1.7,0.2,3.4,0.5,5c0.2,1.6,0.4,3.2,0.8,4.8c0.4,2.1,0.8,4.2,1.4,6.2
			c0.6,2.4,1.3,4.7,2.1,7c3.9,10.9,10,20.8,17.7,29.2C344.2,207,343.9,204.2,343.5,201.3z M343.5,201.3c-5-6.5-9.1-13.7-12-21.6
			c-0.9-2.3-1.6-4.6-2.2-7c-0.5-1.5-0.8-3-1.1-4.5c-0.4-1.6-0.7-3.2-0.9-4.9c-0.2-1.7-0.5-3.4-0.6-5c-0.2-2.3-0.3-4.6-0.3-7
			c0-7,0.9-13.7,2.5-20.2c-0.9-2.6-1.8-5.2-2.7-7.8c-3,8.8-4.6,18.2-4.6,28c0,2.1,0.1,4.2,0.3,6.3c0.1,1.7,0.2,3.4,0.5,5
			c0.2,1.6,0.4,3.2,0.8,4.8c0.4,2.1,0.8,4.2,1.4,6.2c0.6,2.4,1.3,4.7,2.1,7c3.9,10.9,10,20.8,17.7,29.2
			C344.2,207,343.9,204.2,343.5,201.3z M343.5,201.3c-5-6.5-9.1-13.7-12-21.6c-0.9-2.3-1.6-4.6-2.2-7c-0.5-1.5-0.8-3-1.1-4.5
			c-0.4-1.6-0.7-3.2-0.9-4.9c-0.2-1.7-0.5-3.4-0.6-5c-0.2-2.3-0.3-4.6-0.3-7c0-7,0.9-13.7,2.5-20.2c-0.9-2.6-1.8-5.2-2.7-7.8
			c-3,8.8-4.6,18.2-4.6,28c0,2.1,0.1,4.2,0.3,6.3c0.1,1.7,0.2,3.4,0.5,5c0.2,1.6,0.4,3.2,0.8,4.8c0.4,2.1,0.8,4.2,1.4,6.2
			c0.6,2.4,1.3,4.7,2.1,7c3.9,10.9,10,20.8,17.7,29.2C344.2,207,343.9,204.2,343.5,201.3z M343.5,201.3c-5-6.5-9.1-13.7-12-21.6
			c-0.9-2.3-1.6-4.6-2.2-7c-0.5-1.5-0.8-3-1.1-4.5c-0.4-1.6-0.7-3.2-0.9-4.9c-0.2-1.7-0.5-3.4-0.6-5c-0.2-2.3-0.3-4.6-0.3-7
			c0-7,0.9-13.7,2.5-20.2c-0.9-2.6-1.8-5.2-2.7-7.8c-3,8.8-4.6,18.2-4.6,28c0,2.1,0.1,4.2,0.3,6.3c0.1,1.7,0.2,3.4,0.5,5
			c0.2,1.6,0.4,3.2,0.8,4.8c0.4,2.1,0.8,4.2,1.4,6.2c0.6,2.4,1.3,4.7,2.1,7c3.9,10.9,10,20.8,17.7,29.2
			C344.2,207,343.9,204.2,343.5,201.3z M343.5,201.3c-5-6.5-9.1-13.7-12-21.6c-0.9-2.3-1.6-4.6-2.2-7c-0.5-1.5-0.8-3-1.1-4.5
			c-0.4-1.6-0.7-3.2-0.9-4.9c-0.2-1.7-0.5-3.4-0.6-5c-0.2-2.3-0.3-4.6-0.3-7c0-7,0.9-13.7,2.5-20.2c-0.9-2.6-1.8-5.2-2.7-7.8
			c-3,8.8-4.6,18.2-4.6,28c0,2.1,0.1,4.2,0.3,6.3c0.1,1.7,0.2,3.4,0.5,5c0.2,1.6,0.4,3.2,0.8,4.8c0.4,2.1,0.8,4.2,1.4,6.2
			c0.6,2.4,1.3,4.7,2.1,7c3.9,10.9,10,20.8,17.7,29.2C344.2,207,343.9,204.2,343.5,201.3z M343.5,201.3c-5-6.5-9.1-13.7-12-21.6
			c-0.9-2.3-1.6-4.6-2.2-7c-0.5-1.5-0.8-3-1.1-4.5c-0.4-1.6-0.7-3.2-0.9-4.9c-0.2-1.7-0.5-3.4-0.6-5c-0.2-2.3-0.3-4.6-0.3-7
			c0-7,0.9-13.7,2.5-20.2c-0.9-2.6-1.8-5.2-2.7-7.8c-3,8.8-4.6,18.2-4.6,28c0,2.1,0.1,4.2,0.3,6.3c0.1,1.7,0.2,3.4,0.5,5
			c0.2,1.6,0.4,3.2,0.8,4.8c0.4,2.1,0.8,4.2,1.4,6.2c0.6,2.4,1.3,4.7,2.1,7c3.9,10.9,10,20.8,17.7,29.2
			C344.2,207,343.9,204.2,343.5,201.3z M343.5,201.3c-5-6.5-9.1-13.7-12-21.6c-0.9-2.3-1.6-4.6-2.2-7c-0.5-1.5-0.8-3-1.1-4.5
			c-0.4-1.6-0.7-3.2-0.9-4.9c-0.2-1.7-0.5-3.4-0.6-5c-0.2-2.3-0.3-4.6-0.3-7c0-7,0.9-13.7,2.5-20.2c-0.9-2.6-1.8-5.2-2.7-7.8
			c-3,8.8-4.6,18.2-4.6,28c0,2.1,0.1,4.2,0.3,6.3c0.1,1.7,0.2,3.4,0.5,5c0.2,1.6,0.4,3.2,0.8,4.8c0.4,2.1,0.8,4.2,1.4,6.2
			c0.6,2.4,1.3,4.7,2.1,7c3.9,10.9,10,20.8,17.7,29.2C344.2,207,343.9,204.2,343.5,201.3z M343.5,201.3c-5-6.5-9.1-13.7-12-21.6
			c-0.9-2.3-1.6-4.6-2.2-7c-0.5-1.5-0.8-3-1.1-4.5c-0.4-1.6-0.7-3.2-0.9-4.9c-0.2-1.7-0.5-3.4-0.6-5c-0.2-2.3-0.3-4.6-0.3-7
			c0-7,0.9-13.7,2.5-20.2c-0.9-2.6-1.8-5.2-2.7-7.8c-3,8.8-4.6,18.2-4.6,28c0,2.1,0.1,4.2,0.3,6.3c0.1,1.7,0.2,3.4,0.5,5
			c0.2,1.6,0.4,3.2,0.8,4.8c0.4,2.1,0.8,4.2,1.4,6.2c0.6,2.4,1.3,4.7,2.1,7c3.9,10.9,10,20.8,17.7,29.2
			C344.2,207,343.9,204.2,343.5,201.3z M343.5,201.3c-5-6.5-9.1-13.7-12-21.6c-0.9-2.3-1.6-4.6-2.2-7c-0.5-1.5-0.8-3-1.1-4.5
			c-0.4-1.6-0.7-3.2-0.9-4.9c-0.2-1.7-0.5-3.4-0.6-5c-0.2-2.3-0.3-4.6-0.3-7c0-7,0.9-13.7,2.5-20.2c-0.9-2.6-1.8-5.2-2.7-7.8
			c-3,8.8-4.6,18.2-4.6,28c0,2.1,0.1,4.2,0.3,6.3c0.1,1.7,0.2,3.4,0.5,5c0.2,1.6,0.4,3.2,0.8,4.8c0.4,2.1,0.8,4.2,1.4,6.2
			c0.6,2.4,1.3,4.7,2.1,7c3.9,10.9,10,20.8,17.7,29.2C344.2,207,343.9,204.2,343.5,201.3z"/>
	</g>
	<g>
		<path class="st0" d="M398.6,133.9 M398.6,133.9 M398.6,133.9 M398.6,133.9 M398.6,133.9 M398.6,133.9 M398.6,133.9 M398.6,133.9
			 M398.6,133.9 M398.6,133.9 M398.6,133.9 M398.6,133.9 M398.6,133.9 M398.6,133.9 M398.6,133.9 M398.6,133.9 M398.6,133.9
			 M398.6,133.9 M398.6,133.9 M398.6,133.9 M398.6,133.9 M398.6,133.9 M398.6,133.9 M398.6,133.9 M398.6,133.9 M398.6,133.9
			 M408.6,85.3c-5.7,0-11.2,0.7-16.4,2.1c-1.9,0.5-3.7,1-5.4,1.6c-1.8,0.6-3.6,1.3-5.2,2.1c-21,9.4-36.2,29.6-38.6,53.5
			c-0.2,2.2-0.3,4.5-0.3,6.8c0,3.4,0.3,6.7,0.7,9.9h0c0.2,1.8,0.6,3.6,1,5.3c0.2,1,0.5,2.1,0.8,3.1c0.2,0.7,0.4,1.3,0.6,2
			c0.5,1.7,1.1,3.3,1.8,4.9c1,2.4,2.1,4.7,3.3,6.9c11.3,20.2,32.9,33.9,57.7,33.9c10.2,0,19.9-2.3,28.6-6.5c1.5-0.7,2.9-1.4,4.2-2.2
			c1.5-0.9,2.9-1.8,4.4-2.7c2.9-1.9,5.6-4.1,8.1-6.5c1.4-1.3,2.7-2.6,3.9-4c1.3-1.4,2.5-2.9,3.6-4.4c8.2-11,13.1-24.7,13.1-39.6
			C474.6,114.8,445,85.3,408.6,85.3z M459.7,185c-1.1,1.6-2.3,3.2-3.5,4.7c-1.2,1.5-2.4,2.9-3.7,4.2c-3.1,3.2-6.6,6.1-10.4,8.6
			c-1.5,1-3,1.9-4.5,2.7c-1.5,0.8-2.9,1.5-4.5,2.2c-7.5,3.3-15.8,5.1-24.5,5.1c-25.3,0-47-15.3-56.3-37.2c-0.4-0.8-0.7-1.7-1.1-2.6
			c-0.5-1.4-1-2.8-1.4-4.3c-0.1-0.3-0.2-0.5-0.2-0.8c-0.5-1.8-0.9-3.5-1.2-5.3c-0.7-3.6-1-7.2-1-11c0-25.7,15.9-47.8,38.4-56.8
			c1.8-0.7,3.6-1.4,5.4-1.9c1.8-0.5,3.7-1,5.6-1.4c3.8-0.8,7.8-1.1,11.8-1.1c33.8,0,61.2,27.5,61.2,61.2
			C469.8,163.7,466.1,175.3,459.7,185z M398.6,133.9 M398.6,133.9 M398.6,133.9 M398.6,133.9 M398.6,133.9 M398.6,133.9
			 M398.6,133.9 M398.6,133.9 M398.6,133.9 M398.6,133.9 M398.6,133.9 M398.6,133.9 M398.6,133.9"/>
		<path class="st0" d="M408.6,80.5c-7.3,0-14.4,1.1-21,3.2c-1.8,0.5-3.6,1.2-5.3,1.9c-1.8,0.7-3.5,1.5-5.2,2.3
			C358.9,97,345,113.8,340,134c-1.4,5.5-2.1,11.3-2.1,17.3c0,3.1,0.2,6,0.6,9c0.2,1.8,0.5,3.5,0.8,5.2c0.3,1.7,0.8,3.4,1.2,5
			c0,0,0,0,0,0.1c0.6,2.4,1.5,4.7,2.4,6.9c2.4,6.1,5.6,11.7,9.5,16.8c12.9,16.9,33.3,27.8,56.2,27.8c11.6,0,22.7-2.8,32.4-7.9
			c1.4-0.7,2.7-1.5,4.1-2.3c1.5-0.9,2.8-1.8,4.2-2.7c2.1-1.5,4-3,6-4.7c1.4-1.2,2.7-2.5,4-3.8c1.3-1.3,2.6-2.7,3.8-4.2
			c10.2-12.3,16.3-28,16.3-45.2C479.4,112.3,447.6,80.5,408.6,80.5z M408.6,212.5c-25.3,0-47-15.3-56.3-37.2
			c-0.4-0.8-0.7-1.7-1.1-2.6c-0.5-1.4-1-2.8-1.4-4.3c-0.1-0.3-0.2-0.5-0.2-0.8c-0.5-1.8-0.9-3.5-1.2-5.3c-0.7-3.6-1-7.2-1-11
			c0-25.7,15.9-47.8,38.4-56.8c1.8-0.7,3.6-1.4,5.4-1.9c1.8-0.5,3.7-1,5.6-1.4c3.8-0.8,7.8-1.1,11.8-1.1c33.8,0,61.2,27.5,61.2,61.2
			c0,12.4-3.7,24.1-10.2,33.8c-1.1,1.6-2.3,3.2-3.5,4.7c-1.2,1.5-2.4,2.9-3.7,4.2c-3.1,3.2-6.6,6.1-10.4,8.6c-1.5,1-3,1.9-4.5,2.7
			c-1.5,0.8-2.9,1.5-4.5,2.2C425.6,210.7,417.3,212.5,408.6,212.5z"/>
	</g>
	<g>
		<g>
			<path class="st0" d="M423.6,153.1c-1.9-1.9-4.4-3.5-7.3-5c-1.3-0.6-2.7-1.3-4.2-1.9c-9.4-3.9-13.4-6.7-13.4-12.3
				c0-4.4,3.1-9.3,11.5-9.3c2.5,0,4.7,0.3,6.6,0.8c3.3,0.8,5.7,2.1,7.1,2.9l0.4-1.1l1.9-5.1l0.3-0.9c-0.5-0.3-1.1-0.6-1.8-0.9
				c-2.1-1.1-4.8-2-8.1-2.5c-1.3-0.2-2.7-0.3-4.3-0.4v-10.5h-6.7v11c-10,1.6-16.3,8.4-16.3,17.4c0,8.5,5.5,13.4,14.7,17.4
				c1,0.5,2.1,0.9,3.2,1.3c2.4,1,4.4,2,6.1,3.1c4,2.6,6.1,5.7,6.1,9.9c0,6.2-5.2,10.6-12.9,10.6c-6.1,0-11.7-2.1-15.6-4.7l-0.5,1.5
				l-1.7,4.7l-0.4,1.1c3.4,2.4,8.9,4.2,14.5,4.7h0c0.7,0.1,1.3,0.1,2,0.1v10.9h6.8v-11.3c0.6-0.1,1.1-0.2,1.6-0.3
				c10.1-2.3,15.5-9.9,15.5-18.1C428.8,160.7,427.1,156.5,423.6,153.1z"/>
		</g>
	</g>
	<g>
		<rect x="255" y="45.6" class="st0" width="9.5" height="407.2"/>
	</g>
	<g>
		<polygon class="st0" points="132.5,243.8 122.9,253.3 116.6,253.3 111.8,248.5 107.1,243.8 		"/>
		<path class="st0" d="M464.4,243.8v9.5H222c-1-1.6-2.1-3.2-3.2-4.8c-1.3-1.6-2.6-3.2-4-4.8H464.4z"/>
	</g>
	<g>
		<path class="st0" d="M234.8,279.7c-0.1-1.6-0.2-3.3-0.5-5c0-0.3-0.1-0.6-0.1-0.9c-0.1-0.6-0.2-1.3-0.3-1.9c0-0.2,0-0.3-0.1-0.4
			c-0.2-0.9-0.3-1.8-0.5-2.6c-0.2-0.9-0.4-1.8-0.7-2.7c-0.2-0.9-0.5-1.8-0.8-2.7c-0.2-0.7-0.5-1.3-0.7-2c-0.1-0.2-0.2-0.4-0.2-0.6h0
			c0-0.2-0.1-0.4-0.2-0.6c-0.4-1-0.8-2.1-1.3-3.1c-0.1-0.3-0.3-0.6-0.4-0.9c-0.3-0.8-0.7-1.5-1.1-2.3c-0.1-0.2-0.2-0.3-0.2-0.4
			c0-0.1-0.1-0.2-0.2-0.3c-0.9-1.6-1.8-3.2-2.9-4.8c-1.1-1.6-2.3-3.2-3.5-4.8c-1.3-1.6-2.6-3.1-4.1-4.5
			c-12.2-12.2-28.3-18.2-44.3-17.9c-0.1,1.6-0.2,3.2-0.3,4.8c14.9-0.3,29.9,5.2,41.2,16.5c0.4,0.4,0.8,0.8,1.1,1.1
			c1.5,1.5,2.8,3.1,4,4.8c1.2,1.5,2.3,3.1,3.2,4.8c0.1,0.1,0.2,0.3,0.3,0.4c1.4,2.3,2.6,4.8,3.6,7.3c8.3,19.9,4.7,43.5-11,60.3
			l-1.2,1.3l-7.8,8.3l-2.7,2.9l-4,4.3l-4,4.4l-10.8,11.5c0.5,1.8,1,3.6,1.5,5.4l15-16.1l4.1-4.4h0l4-4.3h0l4.3-4.6h0l5-5.3
			c0.8-0.9,1.6-1.8,2.4-2.8c0.7-0.8,1.3-1.6,2-2.5c0.1-0.2,0.2-0.3,0.3-0.5c0.6-0.9,1.3-1.8,1.8-2.7c0,0,0.1-0.1,0.1-0.2
			c0.4-0.6,0.8-1.2,1.1-1.8c0.5-0.8,1-1.8,1.5-2.6c0-0.1,0.1-0.1,0.1-0.2c0-0.1,0.1-0.2,0.2-0.3c0,0,0,0,0-0.1
			c0.3-0.5,0.5-0.9,0.7-1.4c0.2-0.5,0.5-0.9,0.7-1.4c0.3-0.8,0.7-1.5,1-2.3c0-0.1,0.1-0.2,0.1-0.3c0.3-0.8,0.6-1.6,0.9-2.4
			c0.6-1.6,1.1-3.3,1.5-5c0.2-0.8,0.4-1.6,0.6-2.4c0-0.1,0-0.2,0.1-0.3c0-0.2,0.1-0.3,0.1-0.5c0.2-0.9,0.3-1.7,0.5-2.6
			c0-0.1,0-0.2,0-0.2c0-0.1,0-0.2,0-0.3c0.1-0.6,0.2-1.1,0.2-1.7c0.1-0.6,0.1-1.1,0.2-1.7c0-0.2,0-0.3,0-0.4
			c0.2-1.7,0.2-3.5,0.2-5.2C234.9,281.6,234.9,280.7,234.8,279.7z M120.9,248.5l-1.1,1.1h0l-1.1-1.1h-6.8l4.8,4.8l1.2,1.1h3.9
			l5.9-5.9H120.9z M234.8,279.7c-0.1-1.6-0.2-3.3-0.5-5c0-0.3-0.1-0.6-0.1-0.9c-0.1-0.6-0.2-1.3-0.3-1.9c0-0.2,0-0.3-0.1-0.4
			c-0.2-0.9-0.3-1.8-0.5-2.6c-0.2-0.9-0.4-1.8-0.7-2.7c-0.2-0.9-0.5-1.8-0.8-2.7c-0.2-0.7-0.5-1.3-0.7-2c-0.1-0.2-0.2-0.4-0.2-0.6h0
			c0-0.2-0.1-0.4-0.2-0.6c-0.4-1-0.8-2.1-1.3-3.1c-0.1-0.3-0.3-0.6-0.4-0.9c-0.3-0.8-0.7-1.5-1.1-2.3c-0.1-0.2-0.2-0.3-0.2-0.4
			c0-0.1-0.1-0.2-0.2-0.3c-0.9-1.6-1.8-3.2-2.9-4.8c-1.1-1.6-2.3-3.2-3.5-4.8c-1.3-1.6-2.6-3.1-4.1-4.5
			c-12.2-12.2-28.3-18.2-44.3-17.9c-0.1,1.6-0.2,3.2-0.3,4.8c14.9-0.3,29.9,5.2,41.2,16.5c0.4,0.4,0.8,0.8,1.1,1.1
			c1.5,1.5,2.8,3.1,4,4.8c1.2,1.5,2.3,3.1,3.2,4.8c0.1,0.1,0.2,0.3,0.3,0.4c1.4,2.3,2.6,4.8,3.6,7.3c8.3,19.9,4.7,43.5-11,60.3
			l-1.2,1.3l-7.8,8.3l-2.7,2.9l-4,4.3l-4,4.4l-10.8,11.5c0.5,1.8,1,3.6,1.5,5.4l15-16.1l4.1-4.4h0l4-4.3h0l4.3-4.6h0l5-5.3
			c0.8-0.9,1.6-1.8,2.4-2.8c0.7-0.8,1.3-1.6,2-2.5c0.1-0.2,0.2-0.3,0.3-0.5c0.6-0.9,1.3-1.8,1.8-2.7c0,0,0.1-0.1,0.1-0.2
			c0.4-0.6,0.8-1.2,1.1-1.8c0.5-0.8,1-1.8,1.5-2.6c0-0.1,0.1-0.1,0.1-0.2c0-0.1,0.1-0.2,0.2-0.3c0,0,0,0,0-0.1
			c0.3-0.5,0.5-0.9,0.7-1.4c0.2-0.5,0.5-0.9,0.7-1.4c0.3-0.8,0.7-1.5,1-2.3c0-0.1,0.1-0.2,0.1-0.3c0.3-0.8,0.6-1.6,0.9-2.4
			c0.6-1.6,1.1-3.3,1.5-5c0.2-0.8,0.4-1.6,0.6-2.4c0-0.1,0-0.2,0.1-0.3c0-0.2,0.1-0.3,0.1-0.5c0.2-0.9,0.3-1.7,0.5-2.6
			c0-0.1,0-0.2,0-0.2c0-0.1,0-0.2,0-0.3c0.1-0.6,0.2-1.1,0.2-1.7c0.1-0.6,0.1-1.1,0.2-1.7c0-0.2,0-0.3,0-0.4
			c0.2-1.7,0.2-3.5,0.2-5.2C234.9,281.6,234.9,280.7,234.8,279.7z M120.9,248.5l-1.1,1.1h0l-1.1-1.1h-6.8l4.8,4.8l1.2,1.1h3.9
			l5.9-5.9H120.9z M234.8,279.7c-0.1-1.6-0.2-3.3-0.5-5c0-0.3-0.1-0.6-0.1-0.9c-0.1-0.6-0.2-1.3-0.3-1.9c0-0.2,0-0.3-0.1-0.4
			c-0.2-0.9-0.3-1.8-0.5-2.6c-0.2-0.9-0.4-1.8-0.7-2.7c-0.2-0.9-0.5-1.8-0.8-2.7c-0.2-0.7-0.5-1.3-0.7-2c-0.1-0.2-0.2-0.4-0.2-0.6h0
			c0-0.2-0.1-0.4-0.2-0.6c-0.4-1-0.8-2.1-1.3-3.1c-0.1-0.3-0.3-0.6-0.4-0.9c-0.3-0.8-0.7-1.5-1.1-2.3c-0.1-0.2-0.2-0.3-0.2-0.4
			c0-0.1-0.1-0.2-0.2-0.3c-0.9-1.6-1.8-3.2-2.9-4.8c-1.1-1.6-2.3-3.2-3.5-4.8c-1.3-1.6-2.6-3.1-4.1-4.5
			c-12.2-12.2-28.3-18.2-44.3-17.9c-0.1,1.6-0.2,3.2-0.3,4.8c14.9-0.3,29.9,5.2,41.2,16.5c0.4,0.4,0.8,0.8,1.1,1.1
			c1.5,1.5,2.8,3.1,4,4.8c1.2,1.5,2.3,3.1,3.2,4.8c0.1,0.1,0.2,0.3,0.3,0.4c1.4,2.3,2.6,4.8,3.6,7.3c8.3,19.9,4.7,43.5-11,60.3
			l-1.2,1.3l-7.8,8.3l-2.7,2.9l-4,4.3l-4,4.4l-10.8,11.5c0.5,1.8,1,3.6,1.5,5.4l15-16.1l4.1-4.4h0l4-4.3h0l4.3-4.6h0l5-5.3
			c0.8-0.9,1.6-1.8,2.4-2.8c0.7-0.8,1.3-1.6,2-2.5c0.1-0.2,0.2-0.3,0.3-0.5c0.6-0.9,1.3-1.8,1.8-2.7c0,0,0.1-0.1,0.1-0.2
			c0.4-0.6,0.8-1.2,1.1-1.8c0.5-0.8,1-1.8,1.5-2.6c0-0.1,0.1-0.1,0.1-0.2c0-0.1,0.1-0.2,0.2-0.3c0,0,0,0,0-0.1
			c0.3-0.5,0.5-0.9,0.7-1.4c0.2-0.5,0.5-0.9,0.7-1.4c0.3-0.8,0.7-1.5,1-2.3c0-0.1,0.1-0.2,0.1-0.3c0.3-0.8,0.6-1.6,0.9-2.4
			c0.6-1.6,1.1-3.3,1.5-5c0.2-0.8,0.4-1.6,0.6-2.4c0-0.1,0-0.2,0.1-0.3c0-0.2,0.1-0.3,0.1-0.5c0.2-0.9,0.3-1.7,0.5-2.6
			c0-0.1,0-0.2,0-0.2c0-0.1,0-0.2,0-0.3c0.1-0.6,0.2-1.1,0.2-1.7c0.1-0.6,0.1-1.1,0.2-1.7c0-0.2,0-0.3,0-0.4
			c0.2-1.7,0.2-3.5,0.2-5.2C234.9,281.6,234.9,280.7,234.8,279.7z M120.9,248.5l-1.1,1.1h0l-1.1-1.1h-6.8l4.8,4.8l1.2,1.1h3.9
			l5.9-5.9H120.9z M234.8,279.7c-0.1-1.6-0.2-3.3-0.5-5c0-0.3-0.1-0.6-0.1-0.9c-0.1-0.6-0.2-1.3-0.3-1.9c0-0.2,0-0.3-0.1-0.4
			c-0.2-0.9-0.3-1.8-0.5-2.6c-0.2-0.9-0.4-1.8-0.7-2.7c-0.2-0.9-0.5-1.8-0.8-2.7c-0.2-0.7-0.5-1.3-0.7-2c-0.1-0.2-0.2-0.4-0.2-0.6h0
			c0-0.2-0.1-0.4-0.2-0.6c-0.4-1-0.8-2.1-1.3-3.1c-0.1-0.3-0.3-0.6-0.4-0.9c-0.3-0.8-0.7-1.5-1.1-2.3c-0.1-0.2-0.2-0.3-0.2-0.4
			c0-0.1-0.1-0.2-0.2-0.3c-0.9-1.6-1.8-3.2-2.9-4.8c-1.1-1.6-2.3-3.2-3.5-4.8c-1.3-1.6-2.6-3.1-4.1-4.5
			c-12.2-12.2-28.3-18.2-44.3-17.9c-0.1,1.6-0.2,3.2-0.3,4.8c14.9-0.3,29.9,5.2,41.2,16.5c0.4,0.4,0.8,0.8,1.1,1.1
			c1.5,1.5,2.8,3.1,4,4.8c1.2,1.5,2.3,3.1,3.2,4.8c0.1,0.1,0.2,0.3,0.3,0.4c1.4,2.3,2.6,4.8,3.6,7.3c8.3,19.9,4.7,43.5-11,60.3
			l-1.2,1.3l-7.8,8.3l-2.7,2.9l-4,4.3l-4,4.4l-10.8,11.5c0.5,1.8,1,3.6,1.5,5.4l15-16.1l4.1-4.4h0l4-4.3h0l4.3-4.6h0l5-5.3
			c0.8-0.9,1.6-1.8,2.4-2.8c0.7-0.8,1.3-1.6,2-2.5c0.1-0.2,0.2-0.3,0.3-0.5c0.6-0.9,1.3-1.8,1.8-2.7c0,0,0.1-0.1,0.1-0.2
			c0.4-0.6,0.8-1.2,1.1-1.8c0.5-0.8,1-1.8,1.5-2.6c0-0.1,0.1-0.1,0.1-0.2c0-0.1,0.1-0.2,0.2-0.3c0,0,0,0,0-0.1
			c0.3-0.5,0.5-0.9,0.7-1.4c0.2-0.5,0.5-0.9,0.7-1.4c0.3-0.8,0.7-1.5,1-2.3c0-0.1,0.1-0.2,0.1-0.3c0.3-0.8,0.6-1.6,0.9-2.4
			c0.6-1.6,1.1-3.3,1.5-5c0.2-0.8,0.4-1.6,0.6-2.4c0-0.1,0-0.2,0.1-0.3c0-0.2,0.1-0.3,0.1-0.5c0.2-0.9,0.3-1.7,0.5-2.6
			c0-0.1,0-0.2,0-0.2c0-0.1,0-0.2,0-0.3c0.1-0.6,0.2-1.1,0.2-1.7c0.1-0.6,0.1-1.1,0.2-1.7c0-0.2,0-0.3,0-0.4
			c0.2-1.7,0.2-3.5,0.2-5.2C234.9,281.6,234.9,280.7,234.8,279.7z M120.9,248.5l-1.1,1.1h0l-1.1-1.1h-6.8l4.8,4.8l1.2,1.1h3.9
			l5.9-5.9H120.9z M234.8,279.7c-0.1-1.6-0.2-3.3-0.5-5c0-0.3-0.1-0.6-0.1-0.9c-0.1-0.6-0.2-1.3-0.3-1.9c0-0.2,0-0.3-0.1-0.4
			c-0.2-0.9-0.3-1.8-0.5-2.6c-0.2-0.9-0.4-1.8-0.7-2.7c-0.2-0.9-0.5-1.8-0.8-2.7c-0.2-0.7-0.5-1.3-0.7-2c-0.1-0.2-0.2-0.4-0.2-0.6h0
			c0-0.2-0.1-0.4-0.2-0.6c-0.4-1-0.8-2.1-1.3-3.1c-0.1-0.3-0.3-0.6-0.4-0.9c-0.3-0.8-0.7-1.5-1.1-2.3c-0.1-0.2-0.2-0.3-0.2-0.4
			c0-0.1-0.1-0.2-0.2-0.3c-0.9-1.6-1.8-3.2-2.9-4.8c-1.1-1.6-2.3-3.2-3.5-4.8c-1.3-1.6-2.6-3.1-4.1-4.5
			c-12.2-12.2-28.3-18.2-44.3-17.9c-0.1,1.6-0.2,3.2-0.3,4.8c14.9-0.3,29.9,5.2,41.2,16.5c0.4,0.4,0.8,0.8,1.1,1.1
			c1.5,1.5,2.8,3.1,4,4.8c1.2,1.5,2.3,3.1,3.2,4.8c0.1,0.1,0.2,0.3,0.3,0.4c1.4,2.3,2.6,4.8,3.6,7.3c8.3,19.9,4.7,43.5-11,60.3
			l-1.2,1.3l-7.8,8.3l-2.7,2.9l-4,4.3l-4,4.4l-10.8,11.5c0.5,1.8,1,3.6,1.5,5.4l15-16.1l4.1-4.4h0l4-4.3h0l4.3-4.6h0l5-5.3
			c0.8-0.9,1.6-1.8,2.4-2.8c0.7-0.8,1.3-1.6,2-2.5c0.1-0.2,0.2-0.3,0.3-0.5c0.6-0.9,1.3-1.8,1.8-2.7c0,0,0.1-0.1,0.1-0.2
			c0.4-0.6,0.8-1.2,1.1-1.8c0.5-0.8,1-1.8,1.5-2.6c0-0.1,0.1-0.1,0.1-0.2c0-0.1,0.1-0.2,0.2-0.3c0,0,0,0,0-0.1
			c0.3-0.5,0.5-0.9,0.7-1.4c0.2-0.5,0.5-0.9,0.7-1.4c0.3-0.8,0.7-1.5,1-2.3c0-0.1,0.1-0.2,0.1-0.3c0.3-0.8,0.6-1.6,0.9-2.4
			c0.6-1.6,1.1-3.3,1.5-5c0.2-0.8,0.4-1.6,0.6-2.4c0-0.1,0-0.2,0.1-0.3c0-0.2,0.1-0.3,0.1-0.5c0.2-0.9,0.3-1.7,0.5-2.6
			c0-0.1,0-0.2,0-0.2c0-0.1,0-0.2,0-0.3c0.1-0.6,0.2-1.1,0.2-1.7c0.1-0.6,0.1-1.1,0.2-1.7c0-0.2,0-0.3,0-0.4
			c0.2-1.7,0.2-3.5,0.2-5.2C234.9,281.6,234.9,280.7,234.8,279.7z M120.9,248.5l-1.1,1.1h0l-1.1-1.1h-6.8l4.8,4.8l1.2,1.1h3.9
			l5.9-5.9H120.9z M234.8,279.7c-0.1-1.6-0.2-3.3-0.5-5c0-0.3-0.1-0.6-0.1-0.9c-0.1-0.6-0.2-1.3-0.3-1.9c0-0.2,0-0.3-0.1-0.4
			c-0.2-0.9-0.3-1.8-0.5-2.6c-0.2-0.9-0.4-1.8-0.7-2.7c-0.2-0.9-0.5-1.8-0.8-2.7c-0.2-0.7-0.5-1.3-0.7-2c-0.1-0.2-0.2-0.4-0.2-0.6h0
			c0-0.2-0.1-0.4-0.2-0.6c-0.4-1-0.8-2.1-1.3-3.1c-0.1-0.3-0.3-0.6-0.4-0.9c-0.3-0.8-0.7-1.5-1.1-2.3c-0.1-0.2-0.2-0.3-0.2-0.4
			c0-0.1-0.1-0.2-0.2-0.3c-0.9-1.6-1.8-3.2-2.9-4.8c-1.1-1.6-2.3-3.2-3.5-4.8c-1.3-1.6-2.6-3.1-4.1-4.5
			c-12.2-12.2-28.3-18.2-44.3-17.9c-0.1,1.6-0.2,3.2-0.3,4.8c14.9-0.3,29.9,5.2,41.2,16.5c0.4,0.4,0.8,0.8,1.1,1.1
			c1.5,1.5,2.8,3.1,4,4.8c1.2,1.5,2.3,3.1,3.2,4.8c0.1,0.1,0.2,0.3,0.3,0.4c1.4,2.3,2.6,4.8,3.6,7.3c8.3,19.9,4.7,43.5-11,60.3
			l-1.2,1.3l-7.8,8.3l-2.7,2.9l-4,4.3l-4,4.4l-10.8,11.5c0.5,1.8,1,3.6,1.5,5.4l15-16.1l4.1-4.4h0l4-4.3h0l4.3-4.6h0l5-5.3
			c0.8-0.9,1.6-1.8,2.4-2.8c0.7-0.8,1.3-1.6,2-2.5c0.1-0.2,0.2-0.3,0.3-0.5c0.6-0.9,1.3-1.8,1.8-2.7c0,0,0.1-0.1,0.1-0.2
			c0.4-0.6,0.8-1.2,1.1-1.8c0.5-0.8,1-1.8,1.5-2.6c0-0.1,0.1-0.1,0.1-0.2c0-0.1,0.1-0.2,0.2-0.3c0,0,0,0,0-0.1
			c0.3-0.5,0.5-0.9,0.7-1.4c0.2-0.5,0.5-0.9,0.7-1.4c0.3-0.8,0.7-1.5,1-2.3c0-0.1,0.1-0.2,0.1-0.3c0.3-0.8,0.6-1.6,0.9-2.4
			c0.6-1.6,1.1-3.3,1.5-5c0.2-0.8,0.4-1.6,0.6-2.4c0-0.1,0-0.2,0.1-0.3c0-0.2,0.1-0.3,0.1-0.5c0.2-0.9,0.3-1.7,0.5-2.6
			c0-0.1,0-0.2,0-0.2c0-0.1,0-0.2,0-0.3c0.1-0.6,0.2-1.1,0.2-1.7c0.1-0.6,0.1-1.1,0.2-1.7c0-0.2,0-0.3,0-0.4
			c0.2-1.7,0.2-3.5,0.2-5.2C234.9,281.6,234.9,280.7,234.8,279.7z M120.9,248.5l-1.1,1.1h0l-1.1-1.1h-6.8l4.8,4.8l1.2,1.1h3.9
			l5.9-5.9H120.9z M234.8,279.7c-0.1-1.6-0.2-3.3-0.5-5c0-0.3-0.1-0.6-0.1-0.9c-0.1-0.6-0.2-1.3-0.3-1.9c0-0.2,0-0.3-0.1-0.4
			c-0.2-0.9-0.3-1.8-0.5-2.6c-0.2-0.9-0.4-1.8-0.7-2.7c-0.2-0.9-0.5-1.8-0.8-2.7c-0.2-0.7-0.5-1.3-0.7-2c-0.1-0.2-0.2-0.4-0.2-0.6h0
			c0-0.2-0.1-0.4-0.2-0.6c-0.4-1-0.8-2.1-1.3-3.1c-0.1-0.3-0.3-0.6-0.4-0.9c-0.3-0.8-0.7-1.5-1.1-2.3c-0.1-0.2-0.2-0.3-0.2-0.4
			c0-0.1-0.1-0.2-0.2-0.3c-0.9-1.6-1.8-3.2-2.9-4.8c-1.1-1.6-2.3-3.2-3.5-4.8c-1.3-1.6-2.6-3.1-4.1-4.5
			c-12.2-12.2-28.3-18.2-44.3-17.9c-0.1,1.6-0.2,3.2-0.3,4.8c14.9-0.3,29.9,5.2,41.2,16.5c0.4,0.4,0.8,0.8,1.1,1.1
			c1.5,1.5,2.8,3.1,4,4.8c1.2,1.5,2.3,3.1,3.2,4.8c0.1,0.1,0.2,0.3,0.3,0.4c1.4,2.3,2.6,4.8,3.6,7.3c8.3,19.9,4.7,43.5-11,60.3
			l-1.2,1.3l-7.8,8.3l-2.7,2.9l-4,4.3l-4,4.4l-10.8,11.5c0.5,1.8,1,3.6,1.5,5.4l15-16.1l4.1-4.4h0l4-4.3h0l4.3-4.6h0l5-5.3
			c0.8-0.9,1.6-1.8,2.4-2.8c0.7-0.8,1.3-1.6,2-2.5c0.1-0.2,0.2-0.3,0.3-0.5c0.6-0.9,1.3-1.8,1.8-2.7c0,0,0.1-0.1,0.1-0.2
			c0.4-0.6,0.8-1.2,1.1-1.8c0.5-0.8,1-1.8,1.5-2.6c0-0.1,0.1-0.1,0.1-0.2c0-0.1,0.1-0.2,0.2-0.3c0,0,0,0,0-0.1
			c0.3-0.5,0.5-0.9,0.7-1.4c0.2-0.5,0.5-0.9,0.7-1.4c0.3-0.8,0.7-1.5,1-2.3c0-0.1,0.1-0.2,0.1-0.3c0.3-0.8,0.6-1.6,0.9-2.4
			c0.6-1.6,1.1-3.3,1.5-5c0.2-0.8,0.4-1.6,0.6-2.4c0-0.1,0-0.2,0.1-0.3c0-0.2,0.1-0.3,0.1-0.5c0.2-0.9,0.3-1.7,0.5-2.6
			c0-0.1,0-0.2,0-0.2c0-0.1,0-0.2,0-0.3c0.1-0.6,0.2-1.1,0.2-1.7c0.1-0.6,0.1-1.1,0.2-1.7c0-0.2,0-0.3,0-0.4
			c0.2-1.7,0.2-3.5,0.2-5.2C234.9,281.6,234.9,280.7,234.8,279.7z M119.8,249.7L119.8,249.7l-1.2-1.1h-6.8l4.8,4.8l1.2,1.1h3.9
			l5.9-5.9h-6.8L119.8,249.7z M234.8,279.7c-0.1-1.6-0.2-3.3-0.5-5c0-0.3-0.1-0.6-0.1-0.9c-0.1-0.6-0.2-1.3-0.3-1.9
			c0-0.2,0-0.3-0.1-0.4c-0.2-0.9-0.3-1.8-0.5-2.6c-0.2-0.9-0.4-1.8-0.7-2.7c-0.2-0.9-0.5-1.8-0.8-2.7c-0.2-0.7-0.5-1.3-0.7-2
			c-0.1-0.2-0.2-0.4-0.2-0.6h0c0-0.2-0.1-0.4-0.2-0.6c-0.4-1-0.8-2.1-1.3-3.1c-0.1-0.3-0.3-0.6-0.4-0.9c-0.3-0.8-0.7-1.5-1.1-2.3
			c-0.1-0.2-0.2-0.3-0.2-0.4c0-0.1-0.1-0.2-0.2-0.3c-0.9-1.6-1.8-3.2-2.9-4.8c-1.1-1.6-2.3-3.2-3.5-4.8c-1.3-1.6-2.6-3.1-4.1-4.5
			c-12.2-12.2-28.3-18.2-44.3-17.9c-3.2,0-6.5,0.3-9.6,0.9c-12,2.1-23.6,7.8-32.8,17l-4.5,4.5l-4.8,4.8l-1.1,1.1h0l-10.4-10.4
			c-10.8-10.8-24.7-16.8-38.9-17.8c-1.5-0.2-2.9-0.2-4.4-0.2c-0.4,0-0.8,0-1.2,0c-0.5,0-1,0-1.5,0c-1.6,0-3.2,0.2-4.8,0.4
			c0,0-0.1,0-0.1,0c-1.6,0.2-3.3,0.4-4.9,0.8c-11.3,2.3-22.1,7.9-30.9,16.7c-23.4,23.4-24,61-1.5,85.2l98.5,105.6h0.4l13.4-14.4
			l3.2-3.4l3.3-3.6l38.5-41.3l7.6-8.1l15-16.1l4.1-4.4h0l4-4.3h0l4.3-4.6h0l5-5.3c0.8-0.9,1.6-1.8,2.4-2.8c0.7-0.8,1.3-1.6,2-2.5
			c0.1-0.2,0.2-0.3,0.3-0.5c0.6-0.9,1.3-1.8,1.8-2.7c0,0,0.1-0.1,0.1-0.2c0.4-0.6,0.8-1.2,1.1-1.8c0.5-0.8,1-1.8,1.5-2.6
			c0-0.1,0.1-0.1,0.1-0.2c0-0.1,0.1-0.2,0.2-0.3c0,0,0,0,0-0.1c0.3-0.5,0.5-0.9,0.7-1.4c0.2-0.5,0.5-0.9,0.7-1.4
			c0.3-0.8,0.7-1.5,1-2.3c0-0.1,0.1-0.2,0.1-0.3c0.3-0.8,0.6-1.6,0.9-2.4c0.6-1.6,1.1-3.3,1.5-5c0.2-0.8,0.4-1.6,0.6-2.4
			c0-0.1,0-0.2,0.1-0.3c0-0.2,0.1-0.3,0.1-0.5c0.2-0.9,0.3-1.7,0.5-2.6c0-0.1,0-0.2,0-0.2c0-0.1,0-0.2,0-0.3
			c0.1-0.6,0.2-1.1,0.2-1.7c0.1-0.6,0.1-1.1,0.2-1.7c0-0.2,0-0.3,0-0.4c0.2-1.7,0.2-3.5,0.2-5.2
			C234.9,281.6,234.9,280.7,234.8,279.7z M215,321.2l-1.2,1.3l-7.8,8.3l-2.7,2.9l-4,4.3l-4,4.4l-10.8,11.5l-7.7,8.2l-40.7,43.7
			l-3.3,3.6l-3.2,3.4l-9.9,10.5L24.6,321.2c-20.9-22.4-20.3-56.9,1.4-78.6c7.7-7.7,17.1-12.7,27-15c0.8-0.2,1.7-0.4,2.6-0.6
			c0.8-0.2,1.5-0.3,2.3-0.4c1.2-0.2,2.4-0.3,3.7-0.4c0.4,0,0.8-0.1,1.2-0.1c1.1-0.1,2.2-0.1,3.3-0.1c0.3,0,0.7,0,1.1,0
			c14.1,0.2,28.2,5.8,38.9,16.5l1.1,1.1l4.7,4.8l4.8,4.8l1.2,1.1h3.9l11.8-11.8c8.3-8.3,18.5-13.4,29.2-15.5c3.2-0.6,6.4-1,9.6-1
			c14.9-0.3,29.9,5.2,41.2,16.5c0.4,0.4,0.8,0.8,1.1,1.1c1.5,1.5,2.8,3.1,4,4.8c1.2,1.5,2.3,3.1,3.2,4.8c0.1,0.1,0.2,0.3,0.3,0.4
			c1.4,2.3,2.6,4.8,3.6,7.3C234.2,280.8,230.6,304.4,215,321.2z M120.9,248.5l-1.1,1.1h0l-1.1-1.1h-6.8l4.8,4.8l1.2,1.1h3.9l5.9-5.9
			H120.9z M234.8,279.7c-0.1-1.6-0.2-3.3-0.5-5c0-0.3-0.1-0.6-0.1-0.9c-0.1-0.6-0.2-1.3-0.3-1.9c0-0.2,0-0.3-0.1-0.4
			c-0.2-0.9-0.3-1.8-0.5-2.6c-0.2-0.9-0.4-1.8-0.7-2.7c-0.2-0.9-0.5-1.8-0.8-2.7c-0.2-0.7-0.5-1.3-0.7-2c-0.1-0.2-0.2-0.4-0.2-0.6h0
			c0-0.2-0.1-0.4-0.2-0.6c-0.4-1-0.8-2.1-1.3-3.1c-0.1-0.3-0.3-0.6-0.4-0.9c-0.3-0.8-0.7-1.5-1.1-2.3c-0.1-0.2-0.2-0.3-0.2-0.4
			c0-0.1-0.1-0.2-0.2-0.3c-0.9-1.6-1.8-3.2-2.9-4.8c-1.1-1.6-2.3-3.2-3.5-4.8c-1.3-1.6-2.6-3.1-4.1-4.5
			c-12.2-12.2-28.3-18.2-44.3-17.9c-0.1,1.6-0.2,3.2-0.3,4.8c14.9-0.3,29.9,5.2,41.2,16.5c0.4,0.4,0.8,0.8,1.1,1.1
			c1.5,1.5,2.8,3.1,4,4.8c1.2,1.5,2.3,3.1,3.2,4.8c0.1,0.1,0.2,0.3,0.3,0.4c1.4,2.3,2.6,4.8,3.6,7.3c8.3,19.9,4.7,43.5-11,60.3
			l-1.2,1.3l-7.8,8.3l-2.7,2.9l-4,4.3l-4,4.4l-10.8,11.5c0.5,1.8,1,3.6,1.5,5.4l15-16.1l4.1-4.4h0l4-4.3h0l4.3-4.6h0l5-5.3
			c0.8-0.9,1.6-1.8,2.4-2.8c0.7-0.8,1.3-1.6,2-2.5c0.1-0.2,0.2-0.3,0.3-0.5c0.6-0.9,1.3-1.8,1.8-2.7c0,0,0.1-0.1,0.1-0.2
			c0.4-0.6,0.8-1.2,1.1-1.8c0.5-0.8,1-1.8,1.5-2.6c0-0.1,0.1-0.1,0.1-0.2c0-0.1,0.1-0.2,0.2-0.3c0,0,0,0,0-0.1
			c0.3-0.5,0.5-0.9,0.7-1.4c0.2-0.5,0.5-0.9,0.7-1.4c0.3-0.8,0.7-1.5,1-2.3c0-0.1,0.1-0.2,0.1-0.3c0.3-0.8,0.6-1.6,0.9-2.4
			c0.6-1.6,1.1-3.3,1.5-5c0.2-0.8,0.4-1.6,0.6-2.4c0-0.1,0-0.2,0.1-0.3c0-0.2,0.1-0.3,0.1-0.5c0.2-0.9,0.3-1.7,0.5-2.6
			c0-0.1,0-0.2,0-0.2c0-0.1,0-0.2,0-0.3c0.1-0.6,0.2-1.1,0.2-1.7c0.1-0.6,0.1-1.1,0.2-1.7c0-0.2,0-0.3,0-0.4
			c0.2-1.7,0.2-3.5,0.2-5.2C234.9,281.6,234.9,280.7,234.8,279.7z M120.9,248.5l-1.1,1.1h0l-1.1-1.1h-6.8l4.8,4.8l1.2,1.1h3.9
			l5.9-5.9H120.9z M234.8,279.7c-0.1-1.6-0.2-3.3-0.5-5c0-0.3-0.1-0.6-0.1-0.9c-0.1-0.6-0.2-1.3-0.3-1.9c0-0.2,0-0.3-0.1-0.4
			c-0.2-0.9-0.3-1.8-0.5-2.6c-0.2-0.9-0.4-1.8-0.7-2.7c-0.2-0.9-0.5-1.8-0.8-2.7c-0.2-0.7-0.5-1.3-0.7-2c-0.1-0.2-0.2-0.4-0.2-0.6h0
			c0-0.2-0.1-0.4-0.2-0.6c-0.4-1-0.8-2.1-1.3-3.1c-0.1-0.3-0.3-0.6-0.4-0.9c-0.3-0.8-0.7-1.5-1.1-2.3c-0.1-0.2-0.2-0.3-0.2-0.4
			c0-0.1-0.1-0.2-0.2-0.3c-0.9-1.6-1.8-3.2-2.9-4.8c-1.1-1.6-2.3-3.2-3.5-4.8c-1.3-1.6-2.6-3.1-4.1-4.5
			c-12.2-12.2-28.3-18.2-44.3-17.9c-0.1,1.6-0.2,3.2-0.3,4.8c14.9-0.3,29.9,5.2,41.2,16.5c0.4,0.4,0.8,0.8,1.1,1.1
			c1.5,1.5,2.8,3.1,4,4.8c1.2,1.5,2.3,3.1,3.2,4.8c0.1,0.1,0.2,0.3,0.3,0.4c1.4,2.3,2.6,4.8,3.6,7.3c8.3,19.9,4.7,43.5-11,60.3
			l-1.2,1.3l-7.8,8.3l-2.7,2.9l-4,4.3l-4,4.4l-10.8,11.5c0.5,1.8,1,3.6,1.5,5.4l15-16.1l4.1-4.4h0l4-4.3h0l4.3-4.6h0l5-5.3
			c0.8-0.9,1.6-1.8,2.4-2.8c0.7-0.8,1.3-1.6,2-2.5c0.1-0.2,0.2-0.3,0.3-0.5c0.6-0.9,1.3-1.8,1.8-2.7c0,0,0.1-0.1,0.1-0.2
			c0.4-0.6,0.8-1.2,1.1-1.8c0.5-0.8,1-1.8,1.5-2.6c0-0.1,0.1-0.1,0.1-0.2c0-0.1,0.1-0.2,0.2-0.3c0,0,0,0,0-0.1
			c0.3-0.5,0.5-0.9,0.7-1.4c0.2-0.5,0.5-0.9,0.7-1.4c0.3-0.8,0.7-1.5,1-2.3c0-0.1,0.1-0.2,0.1-0.3c0.3-0.8,0.6-1.6,0.9-2.4
			c0.6-1.6,1.1-3.3,1.5-5c0.2-0.8,0.4-1.6,0.6-2.4c0-0.1,0-0.2,0.1-0.3c0-0.2,0.1-0.3,0.1-0.5c0.2-0.9,0.3-1.7,0.5-2.6
			c0-0.1,0-0.2,0-0.2c0-0.1,0-0.2,0-0.3c0.1-0.6,0.2-1.1,0.2-1.7c0.1-0.6,0.1-1.1,0.2-1.7c0-0.2,0-0.3,0-0.4
			c0.2-1.7,0.2-3.5,0.2-5.2C234.9,281.6,234.9,280.7,234.8,279.7z M120.9,248.5l-1.1,1.1h0l-1.1-1.1h-6.8l4.8,4.8l1.2,1.1h3.9
			l5.9-5.9H120.9z M234.8,279.7c-0.1-1.6-0.2-3.3-0.5-5c0-0.3-0.1-0.6-0.1-0.9c-0.1-0.6-0.2-1.3-0.3-1.9c0-0.2,0-0.3-0.1-0.4
			c-0.2-0.9-0.3-1.8-0.5-2.6c-0.2-0.9-0.4-1.8-0.7-2.7c-0.2-0.9-0.5-1.8-0.8-2.7c-0.2-0.7-0.5-1.3-0.7-2c-0.1-0.2-0.2-0.4-0.2-0.6h0
			c0-0.2-0.1-0.4-0.2-0.6c-0.4-1-0.8-2.1-1.3-3.1c-0.1-0.3-0.3-0.6-0.4-0.9c-0.3-0.8-0.7-1.5-1.1-2.3c-0.1-0.2-0.2-0.3-0.2-0.4
			c0-0.1-0.1-0.2-0.2-0.3c-0.9-1.6-1.8-3.2-2.9-4.8c-1.1-1.6-2.3-3.2-3.5-4.8c-1.3-1.6-2.6-3.1-4.1-4.5
			c-12.2-12.2-28.3-18.2-44.3-17.9c-0.1,1.6-0.2,3.2-0.3,4.8c14.9-0.3,29.9,5.2,41.2,16.5c0.4,0.4,0.8,0.8,1.1,1.1
			c1.5,1.5,2.8,3.1,4,4.8c1.2,1.5,2.3,3.1,3.2,4.8c0.1,0.1,0.2,0.3,0.3,0.4c1.4,2.3,2.6,4.8,3.6,7.3c8.3,19.9,4.7,43.5-11,60.3
			l-1.2,1.3l-7.8,8.3l-2.7,2.9l-4,4.3l-4,4.4l-10.8,11.5c0.5,1.8,1,3.6,1.5,5.4l15-16.1l4.1-4.4h0l4-4.3h0l4.3-4.6h0l5-5.3
			c0.8-0.9,1.6-1.8,2.4-2.8c0.7-0.8,1.3-1.6,2-2.5c0.1-0.2,0.2-0.3,0.3-0.5c0.6-0.9,1.3-1.8,1.8-2.7c0,0,0.1-0.1,0.1-0.2
			c0.4-0.6,0.8-1.2,1.1-1.8c0.5-0.8,1-1.8,1.5-2.6c0-0.1,0.1-0.1,0.1-0.2c0-0.1,0.1-0.2,0.2-0.3c0,0,0,0,0-0.1
			c0.3-0.5,0.5-0.9,0.7-1.4c0.2-0.5,0.5-0.9,0.7-1.4c0.3-0.8,0.7-1.5,1-2.3c0-0.1,0.1-0.2,0.1-0.3c0.3-0.8,0.6-1.6,0.9-2.4
			c0.6-1.6,1.1-3.3,1.5-5c0.2-0.8,0.4-1.6,0.6-2.4c0-0.1,0-0.2,0.1-0.3c0-0.2,0.1-0.3,0.1-0.5c0.2-0.9,0.3-1.7,0.5-2.6
			c0-0.1,0-0.2,0-0.2c0-0.1,0-0.2,0-0.3c0.1-0.6,0.2-1.1,0.2-1.7c0.1-0.6,0.1-1.1,0.2-1.7c0-0.2,0-0.3,0-0.4
			c0.2-1.7,0.2-3.5,0.2-5.2C234.9,281.6,234.9,280.7,234.8,279.7z M120.9,248.5l-1.1,1.1h0l-1.1-1.1h-6.8l4.8,4.8l1.2,1.1h3.9
			l5.9-5.9H120.9z M234.8,279.7c-0.1-1.6-0.2-3.3-0.5-5c0-0.3-0.1-0.6-0.1-0.9c-0.1-0.6-0.2-1.3-0.3-1.9c0-0.2,0-0.3-0.1-0.4
			c-0.2-0.9-0.3-1.8-0.5-2.6c-0.2-0.9-0.4-1.8-0.7-2.7c-0.2-0.9-0.5-1.8-0.8-2.7c-0.2-0.7-0.5-1.3-0.7-2c-0.1-0.2-0.2-0.4-0.2-0.6h0
			c0-0.2-0.1-0.4-0.2-0.6c-0.4-1-0.8-2.1-1.3-3.1c-0.1-0.3-0.3-0.6-0.4-0.9c-0.3-0.8-0.7-1.5-1.1-2.3c-0.1-0.2-0.2-0.3-0.2-0.4
			c0-0.1-0.1-0.2-0.2-0.3c-0.9-1.6-1.8-3.2-2.9-4.8c-1.1-1.6-2.3-3.2-3.5-4.8c-1.3-1.6-2.6-3.1-4.1-4.5
			c-12.2-12.2-28.3-18.2-44.3-17.9c-0.1,1.6-0.2,3.2-0.3,4.8c14.9-0.3,29.9,5.2,41.2,16.5c0.4,0.4,0.8,0.8,1.1,1.1
			c1.5,1.5,2.8,3.1,4,4.8c1.2,1.5,2.3,3.1,3.2,4.8c0.1,0.1,0.2,0.3,0.3,0.4c1.4,2.3,2.6,4.8,3.6,7.3c8.3,19.9,4.7,43.5-11,60.3
			l-1.2,1.3l-7.8,8.3l-2.7,2.9l-4,4.3l-4,4.4l-10.8,11.5c0.5,1.8,1,3.6,1.5,5.4l15-16.1l4.1-4.4h0l4-4.3h0l4.3-4.6h0l5-5.3
			c0.8-0.9,1.6-1.8,2.4-2.8c0.7-0.8,1.3-1.6,2-2.5c0.1-0.2,0.2-0.3,0.3-0.5c0.6-0.9,1.3-1.8,1.8-2.7c0,0,0.1-0.1,0.1-0.2
			c0.4-0.6,0.8-1.2,1.1-1.8c0.5-0.8,1-1.8,1.5-2.6c0-0.1,0.1-0.1,0.1-0.2c0-0.1,0.1-0.2,0.2-0.3c0,0,0,0,0-0.1
			c0.3-0.5,0.5-0.9,0.7-1.4c0.2-0.5,0.5-0.9,0.7-1.4c0.3-0.8,0.7-1.5,1-2.3c0-0.1,0.1-0.2,0.1-0.3c0.3-0.8,0.6-1.6,0.9-2.4
			c0.6-1.6,1.1-3.3,1.5-5c0.2-0.8,0.4-1.6,0.6-2.4c0-0.1,0-0.2,0.1-0.3c0-0.2,0.1-0.3,0.1-0.5c0.2-0.9,0.3-1.7,0.5-2.6
			c0-0.1,0-0.2,0-0.2c0-0.1,0-0.2,0-0.3c0.1-0.6,0.2-1.1,0.2-1.7c0.1-0.6,0.1-1.1,0.2-1.7c0-0.2,0-0.3,0-0.4
			c0.2-1.7,0.2-3.5,0.2-5.2C234.9,281.6,234.9,280.7,234.8,279.7z M120.9,248.5l-1.1,1.1h0l-1.1-1.1h-6.8l4.8,4.8l1.2,1.1h3.9
			l5.9-5.9H120.9z M234.8,279.7c-0.1-1.6-0.2-3.3-0.5-5c0-0.3-0.1-0.6-0.1-0.9c-0.1-0.6-0.2-1.3-0.3-1.9c0-0.2,0-0.3-0.1-0.4
			c-0.2-0.9-0.3-1.8-0.5-2.6c-0.2-0.9-0.4-1.8-0.7-2.7c-0.2-0.9-0.5-1.8-0.8-2.7c-0.2-0.7-0.5-1.3-0.7-2c-0.1-0.2-0.2-0.4-0.2-0.6h0
			c0-0.2-0.1-0.4-0.2-0.6c-0.4-1-0.8-2.1-1.3-3.1c-0.1-0.3-0.3-0.6-0.4-0.9c-0.3-0.8-0.7-1.5-1.1-2.3c-0.1-0.2-0.2-0.3-0.2-0.4
			c0-0.1-0.1-0.2-0.2-0.3c-0.9-1.6-1.8-3.2-2.9-4.8c-1.1-1.6-2.3-3.2-3.5-4.8c-1.3-1.6-2.6-3.1-4.1-4.5
			c-12.2-12.2-28.3-18.2-44.3-17.9c-0.1,1.6-0.2,3.2-0.3,4.8c14.9-0.3,29.9,5.2,41.2,16.5c0.4,0.4,0.8,0.8,1.1,1.1
			c1.5,1.5,2.8,3.1,4,4.8c1.2,1.5,2.3,3.1,3.2,4.8c0.1,0.1,0.2,0.3,0.3,0.4c1.4,2.3,2.6,4.8,3.6,7.3c8.3,19.9,4.7,43.5-11,60.3
			l-1.2,1.3l-7.8,8.3l-2.7,2.9l-4,4.3l-4,4.4l-10.8,11.5c0.5,1.8,1,3.6,1.5,5.4l15-16.1l4.1-4.4h0l4-4.3h0l4.3-4.6h0l5-5.3
			c0.8-0.9,1.6-1.8,2.4-2.8c0.7-0.8,1.3-1.6,2-2.5c0.1-0.2,0.2-0.3,0.3-0.5c0.6-0.9,1.3-1.8,1.8-2.7c0,0,0.1-0.1,0.1-0.2
			c0.4-0.6,0.8-1.2,1.1-1.8c0.5-0.8,1-1.8,1.5-2.6c0-0.1,0.1-0.1,0.1-0.2c0-0.1,0.1-0.2,0.2-0.3c0,0,0,0,0-0.1
			c0.3-0.5,0.5-0.9,0.7-1.4c0.2-0.5,0.5-0.9,0.7-1.4c0.3-0.8,0.7-1.5,1-2.3c0-0.1,0.1-0.2,0.1-0.3c0.3-0.8,0.6-1.6,0.9-2.4
			c0.6-1.6,1.1-3.3,1.5-5c0.2-0.8,0.4-1.6,0.6-2.4c0-0.1,0-0.2,0.1-0.3c0-0.2,0.1-0.3,0.1-0.5c0.2-0.9,0.3-1.7,0.5-2.6
			c0-0.1,0-0.2,0-0.2c0-0.1,0-0.2,0-0.3c0.1-0.6,0.2-1.1,0.2-1.7c0.1-0.6,0.1-1.1,0.2-1.7c0-0.2,0-0.3,0-0.4
			c0.2-1.7,0.2-3.5,0.2-5.2C234.9,281.6,234.9,280.7,234.8,279.7z M120.9,248.5l-1.1,1.1h0l-1.1-1.1h-6.8l4.8,4.8l1.2,1.1h3.9
			l5.9-5.9H120.9z"/>
		<path class="st0" d="M234.8,279.7c-0.1-1.6-0.2-3.3-0.5-5c0-0.3-0.1-0.6-0.1-0.9c-0.1-0.6-0.2-1.3-0.3-1.9c0-0.2,0-0.3-0.1-0.4
			c-0.2-0.9-0.3-1.8-0.5-2.6c-0.2-0.9-0.4-1.8-0.7-2.7c-0.2-0.9-0.5-1.8-0.8-2.7c-0.2-0.7-0.5-1.3-0.7-2c-0.1-0.2-0.2-0.4-0.2-0.6
			c-0.1-0.2-0.2-0.4-0.2-0.6c-0.4-1-0.8-2.1-1.3-3.1c-0.1-0.3-0.3-0.6-0.4-0.9c-0.3-0.8-0.7-1.5-1.1-2.3c-0.1-0.2-0.2-0.3-0.2-0.4
			c0-0.1-0.1-0.2-0.2-0.3H222c0.1,0.1,0.2,0.3,0.3,0.4c1.4,2.3,2.6,4.8,3.6,7.3c8.3,19.9,4.7,43.5-11,60.3l-1.2,1.3h0.2
			c0.5-0.1,1-0.2,1.5-0.2c1.5-0.2,3.1-0.4,4.7-0.5h0.1c0.2,0,0.5,0,0.7-0.1c0.7-0.8,1.3-1.6,2-2.5c0.1-0.2,0.2-0.3,0.3-0.5
			c0.6-0.9,1.3-1.8,1.8-2.7c0,0,0.1-0.1,0.1-0.2c0.4-0.6,0.8-1.2,1.1-1.8c0.5-0.8,1-1.8,1.5-2.6c0-0.1,0.1-0.1,0.1-0.2
			c0-0.1,0.1-0.2,0.2-0.3c0,0,0,0,0-0.1c0.3-0.5,0.5-0.9,0.7-1.4c0.2-0.5,0.5-0.9,0.7-1.4c0.3-0.8,0.7-1.5,1-2.3
			c0-0.1,0.1-0.2,0.1-0.3c0.3-0.8,0.6-1.6,0.9-2.4c0.6-1.6,1.1-3.3,1.5-5c0.2-0.8,0.4-1.6,0.6-2.4c0-0.1,0-0.2,0.1-0.3
			c0-0.2,0.1-0.3,0.1-0.5c0.2-0.9,0.3-1.7,0.5-2.6c0-0.1,0-0.2,0-0.2c0-0.1,0-0.2,0-0.3c0.1-0.6,0.2-1.1,0.2-1.7
			c0.1-0.6,0.1-1.1,0.2-1.7c0-0.2,0-0.3,0-0.4c0.2-1.7,0.2-3.5,0.2-5.2C234.9,281.6,234.9,280.7,234.8,279.7z M116.6,253.3l1.2,1.1
			h3.9l1.1-1.1H116.6z M234.8,279.7c-0.1-1.6-0.2-3.3-0.5-5c0-0.3-0.1-0.6-0.1-0.9c-0.1-0.6-0.2-1.3-0.3-1.9c0-0.2,0-0.3-0.1-0.4
			c-0.2-0.9-0.3-1.8-0.5-2.6c-0.2-0.9-0.4-1.8-0.7-2.7c-0.2-0.9-0.5-1.8-0.8-2.7c-0.2-0.7-0.5-1.3-0.7-2c-0.1-0.2-0.2-0.4-0.2-0.6
			c-0.1-0.2-0.2-0.4-0.2-0.6c-0.4-1-0.8-2.1-1.3-3.1c-0.1-0.3-0.3-0.6-0.4-0.9c-0.3-0.8-0.7-1.5-1.1-2.3c-0.1-0.2-0.2-0.3-0.2-0.4
			c0-0.1-0.1-0.2-0.2-0.3H222c0.1,0.1,0.2,0.3,0.3,0.4c1.4,2.3,2.6,4.8,3.6,7.3c8.3,19.9,4.7,43.5-11,60.3l-1.2,1.3h0.2
			c0.5-0.1,1-0.2,1.5-0.2c1.5-0.2,3.1-0.4,4.7-0.5h0.1c0.2,0,0.5,0,0.7-0.1c0.7-0.8,1.3-1.6,2-2.5c0.1-0.2,0.2-0.3,0.3-0.5
			c0.6-0.9,1.3-1.8,1.8-2.7c0,0,0.1-0.1,0.1-0.2c0.4-0.6,0.8-1.2,1.1-1.8c0.5-0.8,1-1.8,1.5-2.6c0-0.1,0.1-0.1,0.1-0.2
			c0-0.1,0.1-0.2,0.2-0.3c0,0,0,0,0-0.1c0.3-0.5,0.5-0.9,0.7-1.4c0.2-0.5,0.5-0.9,0.7-1.4c0.3-0.8,0.7-1.5,1-2.3
			c0-0.1,0.1-0.2,0.1-0.3c0.3-0.8,0.6-1.6,0.9-2.4c0.6-1.6,1.1-3.3,1.5-5c0.2-0.8,0.4-1.6,0.6-2.4c0-0.1,0-0.2,0.1-0.3
			c0-0.2,0.1-0.3,0.1-0.5c0.2-0.9,0.3-1.7,0.5-2.6c0-0.1,0-0.2,0-0.2c0-0.1,0-0.2,0-0.3c0.1-0.6,0.2-1.1,0.2-1.7
			c0.1-0.6,0.1-1.1,0.2-1.7c0-0.2,0-0.3,0-0.4c0.2-1.7,0.2-3.5,0.2-5.2C234.9,281.6,234.9,280.7,234.8,279.7z M116.6,253.3l1.2,1.1
			h3.9l1.1-1.1H116.6z M234.8,279.7c-0.1-1.6-0.2-3.3-0.5-5c0-0.3-0.1-0.6-0.1-0.9c-0.1-0.6-0.2-1.3-0.3-1.9c0-0.2,0-0.3-0.1-0.4
			c-0.2-0.9-0.3-1.8-0.5-2.6c-0.2-0.9-0.4-1.8-0.7-2.7c-0.2-0.9-0.5-1.8-0.8-2.7c-0.2-0.7-0.5-1.3-0.7-2c-0.1-0.2-0.2-0.4-0.2-0.6
			c-0.1-0.2-0.2-0.4-0.2-0.6c-0.4-1-0.8-2.1-1.3-3.1c-0.1-0.3-0.3-0.6-0.4-0.9c-0.3-0.8-0.7-1.5-1.1-2.3c-0.1-0.2-0.2-0.3-0.2-0.4
			c0-0.1-0.1-0.2-0.2-0.3H222c0.1,0.1,0.2,0.3,0.3,0.4c1.4,2.3,2.6,4.8,3.6,7.3c8.3,19.9,4.7,43.5-11,60.3l-1.2,1.3h0.2
			c0.5-0.1,1-0.2,1.5-0.2c1.5-0.2,3.1-0.4,4.7-0.5h0.1c0.2,0,0.5,0,0.7-0.1c0.7-0.8,1.3-1.6,2-2.5c0.1-0.2,0.2-0.3,0.3-0.5
			c0.6-0.9,1.3-1.8,1.8-2.7c0,0,0.1-0.1,0.1-0.2c0.4-0.6,0.8-1.2,1.1-1.8c0.5-0.8,1-1.8,1.5-2.6c0-0.1,0.1-0.1,0.1-0.2
			c0-0.1,0.1-0.2,0.2-0.3c0,0,0,0,0-0.1c0.3-0.5,0.5-0.9,0.7-1.4c0.2-0.5,0.5-0.9,0.7-1.4c0.3-0.8,0.7-1.5,1-2.3
			c0-0.1,0.1-0.2,0.1-0.3c0.3-0.8,0.6-1.6,0.9-2.4c0.6-1.6,1.1-3.3,1.5-5c0.2-0.8,0.4-1.6,0.6-2.4c0-0.1,0-0.2,0.1-0.3
			c0-0.2,0.1-0.3,0.1-0.5c0.2-0.9,0.3-1.7,0.5-2.6c0-0.1,0-0.2,0-0.2c0-0.1,0-0.2,0-0.3c0.1-0.6,0.2-1.1,0.2-1.7
			c0.1-0.6,0.1-1.1,0.2-1.7c0-0.2,0-0.3,0-0.4c0.2-1.7,0.2-3.5,0.2-5.2C234.9,281.6,234.9,280.7,234.8,279.7z M116.6,253.3l1.2,1.1
			h3.9l1.1-1.1H116.6z M234.8,279.7c-0.1-1.6-0.2-3.3-0.5-5c0-0.3-0.1-0.6-0.1-0.9c-0.1-0.6-0.2-1.3-0.3-1.9c0-0.2,0-0.3-0.1-0.4
			c-0.2-0.9-0.3-1.8-0.5-2.6c-0.2-0.9-0.4-1.8-0.7-2.7c-0.2-0.9-0.5-1.8-0.8-2.7c-0.2-0.7-0.5-1.3-0.7-2c-0.1-0.2-0.2-0.4-0.2-0.6
			c-0.1-0.2-0.2-0.4-0.2-0.6c-0.4-1-0.8-2.1-1.3-3.1c-0.1-0.3-0.3-0.6-0.4-0.9c-0.3-0.8-0.7-1.5-1.1-2.3c-0.1-0.2-0.2-0.3-0.2-0.4
			c0-0.1-0.1-0.2-0.2-0.3H222c0.1,0.1,0.2,0.3,0.3,0.4c1.4,2.3,2.6,4.8,3.6,7.3c8.3,19.9,4.7,43.5-11,60.3l-1.2,1.3h0.2
			c0.5-0.1,1-0.2,1.5-0.2c1.5-0.2,3.1-0.4,4.7-0.5h0.1c0.2,0,0.5,0,0.7-0.1c0.7-0.8,1.3-1.6,2-2.5c0.1-0.2,0.2-0.3,0.3-0.5
			c0.6-0.9,1.3-1.8,1.8-2.7c0,0,0.1-0.1,0.1-0.2c0.4-0.6,0.8-1.2,1.1-1.8c0.5-0.8,1-1.8,1.5-2.6c0-0.1,0.1-0.1,0.1-0.2
			c0-0.1,0.1-0.2,0.2-0.3c0,0,0,0,0-0.1c0.3-0.5,0.5-0.9,0.7-1.4c0.2-0.5,0.5-0.9,0.7-1.4c0.3-0.8,0.7-1.5,1-2.3
			c0-0.1,0.1-0.2,0.1-0.3c0.3-0.8,0.6-1.6,0.9-2.4c0.6-1.6,1.1-3.3,1.5-5c0.2-0.8,0.4-1.6,0.6-2.4c0-0.1,0-0.2,0.1-0.3
			c0-0.2,0.1-0.3,0.1-0.5c0.2-0.9,0.3-1.7,0.5-2.6c0-0.1,0-0.2,0-0.2c0-0.1,0-0.2,0-0.3c0.1-0.6,0.2-1.1,0.2-1.7
			c0.1-0.6,0.1-1.1,0.2-1.7c0-0.2,0-0.3,0-0.4c0.2-1.7,0.2-3.5,0.2-5.2C234.9,281.6,234.9,280.7,234.8,279.7z M116.6,253.3l1.2,1.1
			h3.9l1.1-1.1H116.6z M234.8,279.7c-0.1-1.6-0.2-3.3-0.5-5c0-0.3-0.1-0.6-0.1-0.9c-0.1-0.6-0.2-1.3-0.3-1.9c0-0.2,0-0.3-0.1-0.4
			c-0.2-0.9-0.3-1.8-0.5-2.6c-0.2-0.9-0.4-1.8-0.7-2.7c-0.2-0.9-0.5-1.8-0.8-2.7c-0.2-0.7-0.5-1.3-0.7-2c-0.1-0.2-0.2-0.4-0.2-0.6
			c-0.1-0.2-0.2-0.4-0.2-0.6c-0.4-1-0.8-2.1-1.3-3.1c-0.1-0.3-0.3-0.6-0.4-0.9c-0.3-0.8-0.7-1.5-1.1-2.3c-0.1-0.2-0.2-0.3-0.2-0.4
			c0-0.1-0.1-0.2-0.2-0.3H222c0.1,0.1,0.2,0.3,0.3,0.4c1.4,2.3,2.6,4.8,3.6,7.3c8.3,19.9,4.7,43.5-11,60.3l-1.2,1.3h0.2
			c0.5-0.1,1-0.2,1.5-0.2c1.5-0.2,3.1-0.4,4.7-0.5h0.1c0.2,0,0.5,0,0.7-0.1c0.7-0.8,1.3-1.6,2-2.5c0.1-0.2,0.2-0.3,0.3-0.5
			c0.6-0.9,1.3-1.8,1.8-2.7c0,0,0.1-0.1,0.1-0.2c0.4-0.6,0.8-1.2,1.1-1.8c0.5-0.8,1-1.8,1.5-2.6c0-0.1,0.1-0.1,0.1-0.2
			c0-0.1,0.1-0.2,0.2-0.3c0,0,0,0,0-0.1c0.3-0.5,0.5-0.9,0.7-1.4c0.2-0.5,0.5-0.9,0.7-1.4c0.3-0.8,0.7-1.5,1-2.3
			c0-0.1,0.1-0.2,0.1-0.3c0.3-0.8,0.6-1.6,0.9-2.4c0.6-1.6,1.1-3.3,1.5-5c0.2-0.8,0.4-1.6,0.6-2.4c0-0.1,0-0.2,0.1-0.3
			c0-0.2,0.1-0.3,0.1-0.5c0.2-0.9,0.3-1.7,0.5-2.6c0-0.1,0-0.2,0-0.2c0-0.1,0-0.2,0-0.3c0.1-0.6,0.2-1.1,0.2-1.7
			c0.1-0.6,0.1-1.1,0.2-1.7c0-0.2,0-0.3,0-0.4c0.2-1.7,0.2-3.5,0.2-5.2C234.9,281.6,234.9,280.7,234.8,279.7z M116.6,253.3l1.2,1.1
			h3.9l1.1-1.1H116.6z M234.8,279.7c-0.1-1.6-0.2-3.3-0.5-5c0-0.3-0.1-0.6-0.1-0.9c-0.1-0.6-0.2-1.3-0.3-1.9c0-0.2,0-0.3-0.1-0.4
			c-0.2-0.9-0.3-1.8-0.5-2.6c-0.2-0.9-0.4-1.8-0.7-2.7c-0.2-0.9-0.5-1.8-0.8-2.7c-0.2-0.7-0.5-1.3-0.7-2c-0.1-0.2-0.2-0.4-0.2-0.6
			c-0.1-0.2-0.2-0.4-0.2-0.6c-0.4-1-0.8-2.1-1.3-3.1c-0.1-0.3-0.3-0.6-0.4-0.9c-0.3-0.8-0.7-1.5-1.1-2.3c-0.1-0.2-0.2-0.3-0.2-0.4
			c0-0.1-0.1-0.2-0.2-0.3H222c0.1,0.1,0.2,0.3,0.3,0.4c1.4,2.3,2.6,4.8,3.6,7.3c8.3,19.9,4.7,43.5-11,60.3l-1.2,1.3h0.2
			c0.5-0.1,1-0.2,1.5-0.2c1.5-0.2,3.1-0.4,4.7-0.5h0.1c0.2,0,0.5,0,0.7-0.1c0.7-0.8,1.3-1.6,2-2.5c0.1-0.2,0.2-0.3,0.3-0.5
			c0.6-0.9,1.3-1.8,1.8-2.7c0,0,0.1-0.1,0.1-0.2c0.4-0.6,0.8-1.2,1.1-1.8c0.5-0.8,1-1.8,1.5-2.6c0-0.1,0.1-0.1,0.1-0.2
			c0-0.1,0.1-0.2,0.2-0.3c0,0,0,0,0-0.1c0.3-0.5,0.5-0.9,0.7-1.4c0.2-0.5,0.5-0.9,0.7-1.4c0.3-0.8,0.7-1.5,1-2.3
			c0-0.1,0.1-0.2,0.1-0.3c0.3-0.8,0.6-1.6,0.9-2.4c0.6-1.6,1.1-3.3,1.5-5c0.2-0.8,0.4-1.6,0.6-2.4c0-0.1,0-0.2,0.1-0.3
			c0-0.2,0.1-0.3,0.1-0.5c0.2-0.9,0.3-1.7,0.5-2.6c0-0.1,0-0.2,0-0.2c0-0.1,0-0.2,0-0.3c0.1-0.6,0.2-1.1,0.2-1.7
			c0.1-0.6,0.1-1.1,0.2-1.7c0-0.2,0-0.3,0-0.4c0.2-1.7,0.2-3.5,0.2-5.2C234.9,281.6,234.9,280.7,234.8,279.7z M116.6,253.3l1.2,1.1
			h3.9l1.1-1.1H116.6z M234.8,279.7c-0.1-1.6-0.2-3.3-0.5-5c0-0.3-0.1-0.6-0.1-0.9c-0.1-0.6-0.2-1.3-0.3-1.9c0-0.2,0-0.3-0.1-0.4
			c-0.2-0.9-0.3-1.8-0.5-2.6c-0.2-0.9-0.4-1.8-0.7-2.7c-0.2-0.9-0.5-1.8-0.8-2.7c-0.2-0.7-0.5-1.3-0.7-2c-0.1-0.2-0.2-0.4-0.2-0.6
			c-0.1-0.2-0.2-0.4-0.2-0.6c-0.4-1-0.8-2.1-1.3-3.1c-0.1-0.3-0.3-0.6-0.4-0.9c-0.3-0.8-0.7-1.5-1.1-2.3c-0.1-0.2-0.2-0.3-0.2-0.4
			c0-0.1-0.1-0.2-0.2-0.3H222c0.1,0.1,0.2,0.3,0.3,0.4c1.4,2.3,2.6,4.8,3.6,7.3c8.3,19.9,4.7,43.5-11,60.3l-1.2,1.3h0.2
			c0.5-0.1,1-0.2,1.5-0.2c1.5-0.2,3.1-0.4,4.7-0.5h0.1c0.2,0,0.5,0,0.7-0.1c0.7-0.8,1.3-1.6,2-2.5c0.1-0.2,0.2-0.3,0.3-0.5
			c0.6-0.9,1.3-1.8,1.8-2.7c0,0,0.1-0.1,0.1-0.2c0.4-0.6,0.8-1.2,1.1-1.8c0.5-0.8,1-1.8,1.5-2.6c0-0.1,0.1-0.1,0.1-0.2
			c0-0.1,0.1-0.2,0.2-0.3c0,0,0,0,0-0.1c0.3-0.5,0.5-0.9,0.7-1.4c0.2-0.5,0.5-0.9,0.7-1.4c0.3-0.8,0.7-1.5,1-2.3
			c0-0.1,0.1-0.2,0.1-0.3c0.3-0.8,0.6-1.6,0.9-2.4c0.6-1.6,1.1-3.3,1.5-5c0.2-0.8,0.4-1.6,0.6-2.4c0-0.1,0-0.2,0.1-0.3
			c0-0.2,0.1-0.3,0.1-0.5c0.2-0.9,0.3-1.7,0.5-2.6c0-0.1,0-0.2,0-0.2c0-0.1,0-0.2,0-0.3c0.1-0.6,0.2-1.1,0.2-1.7
			c0.1-0.6,0.1-1.1,0.2-1.7c0-0.2,0-0.3,0-0.4c0.2-1.7,0.2-3.5,0.2-5.2C234.9,281.6,234.9,280.7,234.8,279.7z M116.6,253.3l1.2,1.1
			h3.9l1.1-1.1H116.6z M234.8,279.7c-0.1-1.6-0.2-3.3-0.5-5c0-0.3-0.1-0.6-0.1-0.9c-0.1-0.6-0.2-1.3-0.3-1.9c0-0.2,0-0.3-0.1-0.4
			c-0.2-0.9-0.3-1.8-0.5-2.6c-0.2-0.9-0.4-1.8-0.7-2.7c-0.2-0.9-0.5-1.8-0.8-2.7c-0.2-0.7-0.5-1.3-0.7-2c-0.1-0.2-0.2-0.4-0.2-0.6
			c-0.1-0.2-0.2-0.4-0.2-0.6c-0.4-1-0.8-2.1-1.3-3.1c-0.1-0.3-0.3-0.6-0.4-0.9c-0.3-0.8-0.7-1.5-1.1-2.3c-0.1-0.2-0.2-0.3-0.2-0.4
			c0-0.1-0.1-0.2-0.2-0.3H222c0.1,0.1,0.2,0.3,0.3,0.4c1.4,2.3,2.6,4.8,3.6,7.3c8.3,19.9,4.7,43.5-11,60.3l-1.2,1.3h0.2
			c0.5-0.1,1-0.2,1.5-0.2c1.5-0.2,3.1-0.4,4.7-0.5h0.1c0.2,0,0.5,0,0.7-0.1c0.7-0.8,1.3-1.6,2-2.5c0.1-0.2,0.2-0.3,0.3-0.5
			c0.6-0.9,1.3-1.8,1.8-2.7c0,0,0.1-0.1,0.1-0.2c0.4-0.6,0.8-1.2,1.1-1.8c0.5-0.8,1-1.8,1.5-2.6c0-0.1,0.1-0.1,0.1-0.2
			c0-0.1,0.1-0.2,0.2-0.3c0,0,0,0,0-0.1c0.3-0.5,0.5-0.9,0.7-1.4c0.2-0.5,0.5-0.9,0.7-1.4c0.3-0.8,0.7-1.5,1-2.3
			c0-0.1,0.1-0.2,0.1-0.3c0.3-0.8,0.6-1.6,0.9-2.4c0.6-1.6,1.1-3.3,1.5-5c0.2-0.8,0.4-1.6,0.6-2.4c0-0.1,0-0.2,0.1-0.3
			c0-0.2,0.1-0.3,0.1-0.5c0.2-0.9,0.3-1.7,0.5-2.6c0-0.1,0-0.2,0-0.2c0-0.1,0-0.2,0-0.3c0.1-0.6,0.2-1.1,0.2-1.7
			c0.1-0.6,0.1-1.1,0.2-1.7c0-0.2,0-0.3,0-0.4c0.2-1.7,0.2-3.5,0.2-5.2C234.9,281.6,234.9,280.7,234.8,279.7z M116.6,253.3l1.2,1.1
			h3.9l1.1-1.1H116.6z M234.8,279.7c-0.1-1.6-0.2-3.3-0.5-5c0-0.3-0.1-0.6-0.1-0.9c-0.1-0.6-0.2-1.3-0.3-1.9c0-0.2,0-0.3-0.1-0.4
			c-0.2-0.9-0.3-1.8-0.5-2.6c-0.2-0.9-0.4-1.8-0.7-2.7c-0.2-0.9-0.5-1.8-0.8-2.7c-0.2-0.7-0.5-1.3-0.7-2c-0.1-0.2-0.2-0.4-0.2-0.6h0
			c0-0.2-0.1-0.4-0.2-0.6c-0.4-1-0.8-2.1-1.3-3.1c-0.1-0.3-0.3-0.6-0.4-0.9c-0.3-0.8-0.7-1.5-1.1-2.3c-0.1-0.2-0.2-0.3-0.2-0.4
			c0-0.1-0.1-0.2-0.2-0.3H222c0.1,0.1,0.2,0.3,0.3,0.4c1.4,2.3,2.6,4.8,3.6,7.3c8.3,19.9,4.7,43.5-11,60.3l-1.2,1.3h0.2
			c0.5-0.1,1-0.2,1.5-0.2c1.5-0.2,3.1-0.4,4.7-0.5h0.1c0.2,0,0.5,0,0.7-0.1c0.7-0.8,1.3-1.6,2-2.5c0.1-0.2,0.2-0.3,0.3-0.5
			c0.6-0.9,1.3-1.8,1.8-2.7c0,0,0.1-0.1,0.1-0.2c0.4-0.6,0.8-1.2,1.1-1.8c0.5-0.8,1-1.8,1.5-2.6c0-0.1,0.1-0.1,0.1-0.2
			c0-0.1,0.1-0.2,0.2-0.3c0,0,0,0,0-0.1c0.3-0.5,0.5-0.9,0.7-1.4c0.2-0.5,0.5-0.9,0.7-1.4c0.3-0.8,0.7-1.5,1-2.3
			c0-0.1,0.1-0.2,0.1-0.3c0.3-0.8,0.6-1.6,0.9-2.4c0.6-1.6,1.1-3.3,1.5-5c0.2-0.8,0.4-1.6,0.6-2.4c0-0.1,0-0.2,0.1-0.3
			c0-0.2,0.1-0.3,0.1-0.5c0.2-0.9,0.3-1.7,0.5-2.6c0-0.1,0-0.2,0-0.2c0-0.1,0-0.2,0-0.3c0.1-0.6,0.2-1.1,0.2-1.7
			c0.1-0.6,0.1-1.1,0.2-1.7c0-0.2,0-0.3,0-0.4c0.2-1.7,0.2-3.5,0.2-5.2C234.9,281.6,234.9,280.7,234.8,279.7z M116.6,253.3l1.2,1.1
			h3.9l1.1-1.1H116.6z M234.8,279.7c-0.1-1.6-0.2-3.3-0.5-5c0-0.3-0.1-0.6-0.1-0.9c-0.1-0.6-0.2-1.3-0.3-1.9c0-0.2,0-0.3-0.1-0.4
			c-0.2-0.9-0.3-1.8-0.5-2.6c-0.2-0.9-0.4-1.8-0.7-2.7c-0.2-0.9-0.5-1.8-0.8-2.7c-0.2-0.7-0.5-1.3-0.7-2c-0.1-0.2-0.2-0.4-0.2-0.6h0
			c0-0.2-0.1-0.4-0.2-0.6c-0.4-1-0.8-2.1-1.3-3.1c-0.1-0.3-0.3-0.6-0.4-0.9c-0.3-0.8-0.7-1.5-1.1-2.3c-0.1-0.2-0.2-0.3-0.2-0.4
			c0-0.1-0.1-0.2-0.2-0.3H222c0.1,0.1,0.2,0.3,0.3,0.4c1.4,2.3,2.6,4.8,3.6,7.3c8.3,19.9,4.7,43.5-11,60.3l-1.2,1.3h0.2
			c0.5-0.1,1-0.2,1.5-0.2c1.5-0.2,3.1-0.4,4.7-0.5h0.1c0.2,0,0.5,0,0.7-0.1c0.7-0.8,1.3-1.6,2-2.5c0.1-0.2,0.2-0.3,0.3-0.5
			c0.6-0.9,1.3-1.8,1.8-2.7c0,0,0.1-0.1,0.1-0.2c0.4-0.6,0.8-1.2,1.1-1.8c0.5-0.8,1-1.8,1.5-2.6c0-0.1,0.1-0.1,0.1-0.2
			c0-0.1,0.1-0.2,0.2-0.3c0,0,0,0,0-0.1c0.3-0.5,0.5-0.9,0.7-1.4c0.2-0.5,0.5-0.9,0.7-1.4c0.3-0.8,0.7-1.5,1-2.3
			c0-0.1,0.1-0.2,0.1-0.3c0.3-0.8,0.6-1.6,0.9-2.4c0.6-1.6,1.1-3.3,1.5-5c0.2-0.8,0.4-1.6,0.6-2.4c0-0.1,0-0.2,0.1-0.3
			c0-0.2,0.1-0.3,0.1-0.5c0.2-0.9,0.3-1.7,0.5-2.6c0-0.1,0-0.2,0-0.2c0-0.1,0-0.2,0-0.3c0.1-0.6,0.2-1.1,0.2-1.7
			c0.1-0.6,0.1-1.1,0.2-1.7c0-0.2,0-0.3,0-0.4c0.2-1.7,0.2-3.5,0.2-5.2C234.9,281.6,234.9,280.7,234.8,279.7z M116.6,253.3l1.2,1.1
			h3.9l1.1-1.1H116.6z M234.8,279.7c-0.1-1.6-0.2-3.3-0.5-5c0-0.3-0.1-0.6-0.1-0.9c-0.1-0.6-0.2-1.3-0.3-1.9c0-0.2,0-0.3-0.1-0.4
			c-0.2-0.9-0.3-1.8-0.5-2.6c-0.2-0.9-0.4-1.8-0.7-2.7c-0.2-0.9-0.5-1.8-0.8-2.7c-0.2-0.7-0.5-1.3-0.7-2c-0.1-0.2-0.2-0.4-0.2-0.6h0
			c0-0.2-0.1-0.4-0.2-0.6c-0.4-1-0.8-2.1-1.3-3.1c-0.1-0.3-0.3-0.6-0.4-0.9c-0.3-0.8-0.7-1.5-1.1-2.3c-0.1-0.2-0.2-0.3-0.2-0.4
			c0-0.1-0.1-0.2-0.2-0.3H222c0.1,0.1,0.2,0.3,0.3,0.4c1.4,2.3,2.6,4.8,3.6,7.3c8.3,19.9,4.7,43.5-11,60.3l-1.2,1.3h0.2
			c0.5-0.1,1-0.2,1.5-0.2c1.5-0.2,3.1-0.4,4.7-0.5h0.1c0.2,0,0.5,0,0.7-0.1c0.7-0.8,1.3-1.6,2-2.5c0.1-0.2,0.2-0.3,0.3-0.5
			c0.6-0.9,1.3-1.8,1.8-2.7c0,0,0.1-0.1,0.1-0.2c0.4-0.6,0.8-1.2,1.1-1.8c0.5-0.8,1-1.8,1.5-2.6c0-0.1,0.1-0.1,0.1-0.2
			c0-0.1,0.1-0.2,0.2-0.3c0,0,0,0,0-0.1c0.3-0.5,0.5-0.9,0.7-1.4c0.2-0.5,0.5-0.9,0.7-1.4c0.3-0.8,0.7-1.5,1-2.3
			c0-0.1,0.1-0.2,0.1-0.3c0.3-0.8,0.6-1.6,0.9-2.4c0.6-1.6,1.1-3.3,1.5-5c0.2-0.8,0.4-1.6,0.6-2.4c0-0.1,0-0.2,0.1-0.3
			c0-0.2,0.1-0.3,0.1-0.5c0.2-0.9,0.3-1.7,0.5-2.6c0-0.1,0-0.2,0-0.2c0-0.1,0-0.2,0-0.3c0.1-0.6,0.2-1.1,0.2-1.7
			c0.1-0.6,0.1-1.1,0.2-1.7c0-0.2,0-0.3,0-0.4c0.2-1.7,0.2-3.5,0.2-5.2C234.9,281.6,234.9,280.7,234.8,279.7z M116.6,253.3l1.2,1.1
			h3.9l1.1-1.1H116.6z M236.1,260.8c-0.8-2.4-1.9-4.9-3.1-7.2c0-0.1-0.1-0.2-0.2-0.3c-0.8-1.6-1.6-3.2-2.6-4.8h-5.7
			c-1.1-1.6-2.3-3.2-3.5-4.8c-1.3-1.6-2.6-3.1-4.1-4.5c-12.2-12.2-28.3-18.2-44.3-17.9c-0.1,1.6-0.2,3.2-0.3,4.8
			c14.9-0.3,29.9,5.2,41.2,16.5c0.4,0.4,0.8,0.8,1.1,1.1c1.5,1.5,2.8,3.1,4,4.8c1.2,1.5,2.3,3.1,3.2,4.8c0.1,0.1,0.2,0.3,0.3,0.4
			c1.4,2.3,2.6,4.8,3.6,7.3c8.3,19.9,4.7,43.5-11,60.3l-1.2,1.3l-7.8,8.3l-2.7,2.9l-4,4.3l-4,4.4l-10.8,11.5c0.5,1.8,1,3.6,1.5,5.4
			l15-16.1l4.1-4.4h0l4-4.3h0c1.9,0.2,3.9,0.4,5.9,0.6l5.7-6.1l1.2-1.3c2-2.1,3.8-4.4,5.4-6.6C240.2,303.2,243.1,280.7,236.1,260.8z
			 M120.9,248.5l-1.1,1.1h0l-1.1-1.1h-6.8l4.8,4.8l1.2,1.1h3.9l5.9-5.9H120.9z M234.8,279.7c-0.1-1.6-0.2-3.3-0.5-5
			c0-0.3-0.1-0.6-0.1-0.9c-0.1-0.6-0.2-1.3-0.3-1.9c0-0.2,0-0.3-0.1-0.4c-0.2-0.9-0.3-1.8-0.5-2.6c-0.2-0.9-0.4-1.8-0.7-2.7
			c-0.2-0.9-0.5-1.8-0.8-2.7c-0.2-0.7-0.5-1.3-0.7-2c-0.1-0.2-0.2-0.4-0.2-0.6h0c0-0.2-0.1-0.4-0.2-0.6c-0.4-1-0.8-2.1-1.3-3.1
			c-0.1-0.3-0.3-0.6-0.4-0.9c-0.3-0.8-0.7-1.5-1.1-2.3c-0.1-0.2-0.2-0.3-0.2-0.4c0-0.1-0.1-0.2-0.2-0.3c-0.9-1.6-1.8-3.2-2.9-4.8
			c-1.1-1.6-2.3-3.2-3.5-4.8c-1.3-1.6-2.6-3.1-4.1-4.5c-12.2-12.2-28.3-18.2-44.3-17.9c-0.1,1.6-0.2,3.2-0.3,4.8
			c14.9-0.3,29.9,5.2,41.2,16.5c0.4,0.4,0.8,0.8,1.1,1.1c1.5,1.5,2.8,3.1,4,4.8c1.2,1.5,2.3,3.1,3.2,4.8c0.1,0.1,0.2,0.3,0.3,0.4
			c1.4,2.3,2.6,4.8,3.6,7.3c8.3,19.9,4.7,43.5-11,60.3l-1.2,1.3l-7.8,8.3l-2.7,2.9l-4,4.3l-4,4.4l-10.8,11.5c0.5,1.8,1,3.6,1.5,5.4
			l15-16.1l4.1-4.4h0l4-4.3h0l4.3-4.6h0l5-5.3c0.8-0.9,1.6-1.8,2.4-2.8c0.7-0.8,1.3-1.6,2-2.5c0.1-0.2,0.2-0.3,0.3-0.5
			c0.6-0.9,1.3-1.8,1.8-2.7c0,0,0.1-0.1,0.1-0.2c0.4-0.6,0.8-1.2,1.1-1.8c0.5-0.8,1-1.8,1.5-2.6c0-0.1,0.1-0.1,0.1-0.2
			c0-0.1,0.1-0.2,0.2-0.3c0,0,0,0,0-0.1c0.3-0.5,0.5-0.9,0.7-1.4c0.2-0.5,0.5-0.9,0.7-1.4c0.3-0.8,0.7-1.5,1-2.3
			c0-0.1,0.1-0.2,0.1-0.3c0.3-0.8,0.6-1.6,0.9-2.4c0.6-1.6,1.1-3.3,1.5-5c0.2-0.8,0.4-1.6,0.6-2.4c0-0.1,0-0.2,0.1-0.3
			c0-0.2,0.1-0.3,0.1-0.5c0.2-0.9,0.3-1.7,0.5-2.6c0-0.1,0-0.2,0-0.2c0-0.1,0-0.2,0-0.3c0.1-0.6,0.2-1.1,0.2-1.7
			c0.1-0.6,0.1-1.1,0.2-1.7c0-0.2,0-0.3,0-0.4c0.2-1.7,0.2-3.5,0.2-5.2C234.9,281.6,234.9,280.7,234.8,279.7z M120.9,248.5l-1.1,1.1
			h0l-1.1-1.1h-6.8l4.8,4.8l1.2,1.1h3.9l5.9-5.9H120.9z M234.8,279.7c-0.1-1.6-0.2-3.3-0.5-5c0-0.3-0.1-0.6-0.1-0.9
			c-0.1-0.6-0.2-1.3-0.3-1.9c0-0.2,0-0.3-0.1-0.4c-0.2-0.9-0.3-1.8-0.5-2.6c-0.2-0.9-0.4-1.8-0.7-2.7c-0.2-0.9-0.5-1.8-0.8-2.7
			c-0.2-0.7-0.5-1.3-0.7-2c-0.1-0.2-0.2-0.4-0.2-0.6h0c0-0.2-0.1-0.4-0.2-0.6c-0.4-1-0.8-2.1-1.3-3.1c-0.1-0.3-0.3-0.6-0.4-0.9
			c-0.3-0.8-0.7-1.5-1.1-2.3c-0.1-0.2-0.2-0.3-0.2-0.4c0-0.1-0.1-0.2-0.2-0.3c-0.9-1.6-1.8-3.2-2.9-4.8c-1.1-1.6-2.3-3.2-3.5-4.8
			c-1.3-1.6-2.6-3.1-4.1-4.5c-12.2-12.2-28.3-18.2-44.3-17.9c-0.1,1.6-0.2,3.2-0.3,4.8c14.9-0.3,29.9,5.2,41.2,16.5
			c0.4,0.4,0.8,0.8,1.1,1.1c1.5,1.5,2.8,3.1,4,4.8c1.2,1.5,2.3,3.1,3.2,4.8c0.1,0.1,0.2,0.3,0.3,0.4c1.4,2.3,2.6,4.8,3.6,7.3
			c8.3,19.9,4.7,43.5-11,60.3l-1.2,1.3l-7.8,8.3l-2.7,2.9l-4,4.3l-4,4.4l-10.8,11.5c0.5,1.8,1,3.6,1.5,5.4l15-16.1l4.1-4.4h0l4-4.3
			h0l4.3-4.6h0l5-5.3c0.8-0.9,1.6-1.8,2.4-2.8c0.7-0.8,1.3-1.6,2-2.5c0.1-0.2,0.2-0.3,0.3-0.5c0.6-0.9,1.3-1.8,1.8-2.7
			c0,0,0.1-0.1,0.1-0.2c0.4-0.6,0.8-1.2,1.1-1.8c0.5-0.8,1-1.8,1.5-2.6c0-0.1,0.1-0.1,0.1-0.2c0-0.1,0.1-0.2,0.2-0.3c0,0,0,0,0-0.1
			c0.3-0.5,0.5-0.9,0.7-1.4c0.2-0.5,0.5-0.9,0.7-1.4c0.3-0.8,0.7-1.5,1-2.3c0-0.1,0.1-0.2,0.1-0.3c0.3-0.8,0.6-1.6,0.9-2.4
			c0.6-1.6,1.1-3.3,1.5-5c0.2-0.8,0.4-1.6,0.6-2.4c0-0.1,0-0.2,0.1-0.3c0-0.2,0.1-0.3,0.1-0.5c0.2-0.9,0.3-1.7,0.5-2.6
			c0-0.1,0-0.2,0-0.2c0-0.1,0-0.2,0-0.3c0.1-0.6,0.2-1.1,0.2-1.7c0.1-0.6,0.1-1.1,0.2-1.7c0-0.2,0-0.3,0-0.4
			c0.2-1.7,0.2-3.5,0.2-5.2C234.9,281.6,234.9,280.7,234.8,279.7z M120.9,248.5l-1.1,1.1h0l-1.1-1.1h-6.8l4.8,4.8l1.2,1.1h3.9
			l5.9-5.9H120.9z M234.8,279.7c-0.1-1.6-0.2-3.3-0.5-5c0-0.3-0.1-0.6-0.1-0.9c-0.1-0.6-0.2-1.3-0.3-1.9c0-0.2,0-0.3-0.1-0.4
			c-0.2-0.9-0.3-1.8-0.5-2.6c-0.2-0.9-0.4-1.8-0.7-2.7c-0.2-0.9-0.5-1.8-0.8-2.7c-0.2-0.7-0.5-1.3-0.7-2c-0.1-0.2-0.2-0.4-0.2-0.6h0
			c0-0.2-0.1-0.4-0.2-0.6c-0.4-1-0.8-2.1-1.3-3.1c-0.1-0.3-0.3-0.6-0.4-0.9c-0.3-0.8-0.7-1.5-1.1-2.3c-0.1-0.2-0.2-0.3-0.2-0.4
			c0-0.1-0.1-0.2-0.2-0.3c-0.9-1.6-1.8-3.2-2.9-4.8c-1.1-1.6-2.3-3.2-3.5-4.8c-1.3-1.6-2.6-3.1-4.1-4.5
			c-12.2-12.2-28.3-18.2-44.3-17.9c-0.1,1.6-0.2,3.2-0.3,4.8c14.9-0.3,29.9,5.2,41.2,16.5c0.4,0.4,0.8,0.8,1.1,1.1
			c1.5,1.5,2.8,3.1,4,4.8c1.2,1.5,2.3,3.1,3.2,4.8c0.1,0.1,0.2,0.3,0.3,0.4c1.4,2.3,2.6,4.8,3.6,7.3c8.3,19.9,4.7,43.5-11,60.3
			l-1.2,1.3l-7.8,8.3l-2.7,2.9l-4,4.3l-4,4.4l-10.8,11.5c0.5,1.8,1,3.6,1.5,5.4l15-16.1l4.1-4.4h0l4-4.3h0l4.3-4.6h0l5-5.3
			c0.8-0.9,1.6-1.8,2.4-2.8c0.7-0.8,1.3-1.6,2-2.5c0.1-0.2,0.2-0.3,0.3-0.5c0.6-0.9,1.3-1.8,1.8-2.7c0,0,0.1-0.1,0.1-0.2
			c0.4-0.6,0.8-1.2,1.1-1.8c0.5-0.8,1-1.8,1.5-2.6c0-0.1,0.1-0.1,0.1-0.2c0-0.1,0.1-0.2,0.2-0.3c0,0,0,0,0-0.1
			c0.3-0.5,0.5-0.9,0.7-1.4c0.2-0.5,0.5-0.9,0.7-1.4c0.3-0.8,0.7-1.5,1-2.3c0-0.1,0.1-0.2,0.1-0.3c0.3-0.8,0.6-1.6,0.9-2.4
			c0.6-1.6,1.1-3.3,1.5-5c0.2-0.8,0.4-1.6,0.6-2.4c0-0.1,0-0.2,0.1-0.3c0-0.2,0.1-0.3,0.1-0.5c0.2-0.9,0.3-1.7,0.5-2.6
			c0-0.1,0-0.2,0-0.2c0-0.1,0-0.2,0-0.3c0.1-0.6,0.2-1.1,0.2-1.7c0.1-0.6,0.1-1.1,0.2-1.7c0-0.2,0-0.3,0-0.4
			c0.2-1.7,0.2-3.5,0.2-5.2C234.9,281.6,234.9,280.7,234.8,279.7z M120.9,248.5l-1.1,1.1h0l-1.1-1.1h-6.8l4.8,4.8l1.2,1.1h3.9
			l5.9-5.9H120.9z M234.8,279.7c-0.1-1.6-0.2-3.3-0.5-5c0-0.3-0.1-0.6-0.1-0.9c-0.1-0.6-0.2-1.3-0.3-1.9c0-0.2,0-0.3-0.1-0.4
			c-0.2-0.9-0.3-1.8-0.5-2.6c-0.2-0.9-0.4-1.8-0.7-2.7c-0.2-0.9-0.5-1.8-0.8-2.7c-0.2-0.7-0.5-1.3-0.7-2c-0.1-0.2-0.2-0.4-0.2-0.6h0
			c0-0.2-0.1-0.4-0.2-0.6c-0.4-1-0.8-2.1-1.3-3.1c-0.1-0.3-0.3-0.6-0.4-0.9c-0.3-0.8-0.7-1.5-1.1-2.3c-0.1-0.2-0.2-0.3-0.2-0.4
			c0-0.1-0.1-0.2-0.2-0.3c-0.9-1.6-1.8-3.2-2.9-4.8c-1.1-1.6-2.3-3.2-3.5-4.8c-1.3-1.6-2.6-3.1-4.1-4.5
			c-12.2-12.2-28.3-18.2-44.3-17.9c-0.1,1.6-0.2,3.2-0.3,4.8c14.9-0.3,29.9,5.2,41.2,16.5c0.4,0.4,0.8,0.8,1.1,1.1
			c1.5,1.5,2.8,3.1,4,4.8c1.2,1.5,2.3,3.1,3.2,4.8c0.1,0.1,0.2,0.3,0.3,0.4c1.4,2.3,2.6,4.8,3.6,7.3c8.3,19.9,4.7,43.5-11,60.3
			l-1.2,1.3l-7.8,8.3l-2.7,2.9l-4,4.3l-4,4.4l-10.8,11.5c0.5,1.8,1,3.6,1.5,5.4l15-16.1l4.1-4.4h0l4-4.3h0l4.3-4.6h0l5-5.3
			c0.8-0.9,1.6-1.8,2.4-2.8c0.7-0.8,1.3-1.6,2-2.5c0.1-0.2,0.2-0.3,0.3-0.5c0.6-0.9,1.3-1.8,1.8-2.7c0,0,0.1-0.1,0.1-0.2
			c0.4-0.6,0.8-1.2,1.1-1.8c0.5-0.8,1-1.8,1.5-2.6c0-0.1,0.1-0.1,0.1-0.2c0-0.1,0.1-0.2,0.2-0.3c0,0,0,0,0-0.1
			c0.3-0.5,0.5-0.9,0.7-1.4c0.2-0.5,0.5-0.9,0.7-1.4c0.3-0.8,0.7-1.5,1-2.3c0-0.1,0.1-0.2,0.1-0.3c0.3-0.8,0.6-1.6,0.9-2.4
			c0.6-1.6,1.1-3.3,1.5-5c0.2-0.8,0.4-1.6,0.6-2.4c0-0.1,0-0.2,0.1-0.3c0-0.2,0.1-0.3,0.1-0.5c0.2-0.9,0.3-1.7,0.5-2.6
			c0-0.1,0-0.2,0-0.2c0-0.1,0-0.2,0-0.3c0.1-0.6,0.2-1.1,0.2-1.7c0.1-0.6,0.1-1.1,0.2-1.7c0-0.2,0-0.3,0-0.4
			c0.2-1.7,0.2-3.5,0.2-5.2C234.9,281.6,234.9,280.7,234.8,279.7z M120.9,248.5l-1.1,1.1h0l-1.1-1.1h-6.8l4.8,4.8l1.2,1.1h3.9
			l5.9-5.9H120.9z M234.8,279.7c-0.1-1.6-0.2-3.3-0.5-5c0-0.3-0.1-0.6-0.1-0.9c-0.1-0.6-0.2-1.3-0.3-1.9c0-0.2,0-0.3-0.1-0.4
			c-0.2-0.9-0.3-1.8-0.5-2.6c-0.2-0.9-0.4-1.8-0.7-2.7c-0.2-0.9-0.5-1.8-0.8-2.7c-0.2-0.7-0.5-1.3-0.7-2c-0.1-0.2-0.2-0.4-0.2-0.6h0
			c0-0.2-0.1-0.4-0.2-0.6c-0.4-1-0.8-2.1-1.3-3.1c-0.1-0.3-0.3-0.6-0.4-0.9c-0.3-0.8-0.7-1.5-1.1-2.3c-0.1-0.2-0.2-0.3-0.2-0.4
			c0-0.1-0.1-0.2-0.2-0.3c-0.9-1.6-1.8-3.2-2.9-4.8c-1.1-1.6-2.3-3.2-3.5-4.8c-1.3-1.6-2.6-3.1-4.1-4.5
			c-12.2-12.2-28.3-18.2-44.3-17.9c-0.1,1.6-0.2,3.2-0.3,4.8c14.9-0.3,29.9,5.2,41.2,16.5c0.4,0.4,0.8,0.8,1.1,1.1
			c1.5,1.5,2.8,3.1,4,4.8c1.2,1.5,2.3,3.1,3.2,4.8c0.1,0.1,0.2,0.3,0.3,0.4c1.4,2.3,2.6,4.8,3.6,7.3c8.3,19.9,4.7,43.5-11,60.3
			l-1.2,1.3l-7.8,8.3l-2.7,2.9l-4,4.3l-4,4.4l-10.8,11.5c0.5,1.8,1,3.6,1.5,5.4l15-16.1l4.1-4.4h0l4-4.3h0l4.3-4.6h0l5-5.3
			c0.8-0.9,1.6-1.8,2.4-2.8c0.7-0.8,1.3-1.6,2-2.5c0.1-0.2,0.2-0.3,0.3-0.5c0.6-0.9,1.3-1.8,1.8-2.7c0,0,0.1-0.1,0.1-0.2
			c0.4-0.6,0.8-1.2,1.1-1.8c0.5-0.8,1-1.8,1.5-2.6c0-0.1,0.1-0.1,0.1-0.2c0-0.1,0.1-0.2,0.2-0.3c0,0,0,0,0-0.1
			c0.3-0.5,0.5-0.9,0.7-1.4c0.2-0.5,0.5-0.9,0.7-1.4c0.3-0.8,0.7-1.5,1-2.3c0-0.1,0.1-0.2,0.1-0.3c0.3-0.8,0.6-1.6,0.9-2.4
			c0.6-1.6,1.1-3.3,1.5-5c0.2-0.8,0.4-1.6,0.6-2.4c0-0.1,0-0.2,0.1-0.3c0-0.2,0.1-0.3,0.1-0.5c0.2-0.9,0.3-1.7,0.5-2.6
			c0-0.1,0-0.2,0-0.2c0-0.1,0-0.2,0-0.3c0.1-0.6,0.2-1.1,0.2-1.7c0.1-0.6,0.1-1.1,0.2-1.7c0-0.2,0-0.3,0-0.4
			c0.2-1.7,0.2-3.5,0.2-5.2C234.9,281.6,234.9,280.7,234.8,279.7z M120.9,248.5l-1.1,1.1h0l-1.1-1.1h-6.8l4.8,4.8l1.2,1.1h3.9
			l5.9-5.9H120.9z M234.8,279.7c-0.1-1.6-0.2-3.3-0.5-5c0-0.3-0.1-0.6-0.1-0.9c-0.1-0.6-0.2-1.3-0.3-1.9c0-0.2,0-0.3-0.1-0.4
			c-0.2-0.9-0.3-1.8-0.5-2.6c-0.2-0.9-0.4-1.8-0.7-2.7c-0.2-0.9-0.5-1.8-0.8-2.7c-0.2-0.7-0.5-1.3-0.7-2c-0.1-0.2-0.2-0.4-0.2-0.6h0
			c0-0.2-0.1-0.4-0.2-0.6c-0.4-1-0.8-2.1-1.3-3.1c-0.1-0.3-0.3-0.6-0.4-0.9c-0.3-0.8-0.7-1.5-1.1-2.3c-0.1-0.2-0.2-0.3-0.2-0.4
			c0-0.1-0.1-0.2-0.2-0.3c-0.9-1.6-1.8-3.2-2.9-4.8c-1.1-1.6-2.3-3.2-3.5-4.8c-1.3-1.6-2.6-3.1-4.1-4.5
			c-12.2-12.2-28.3-18.2-44.3-17.9c-0.1,1.6-0.2,3.2-0.3,4.8c14.9-0.3,29.9,5.2,41.2,16.5c0.4,0.4,0.8,0.8,1.1,1.1
			c1.5,1.5,2.8,3.1,4,4.8c1.2,1.5,2.3,3.1,3.2,4.8c0.1,0.1,0.2,0.3,0.3,0.4c1.4,2.3,2.6,4.8,3.6,7.3c8.3,19.9,4.7,43.5-11,60.3
			l-1.2,1.3l-7.8,8.3l-2.7,2.9l-4,4.3l-4,4.4l-10.8,11.5c0.5,1.8,1,3.6,1.5,5.4l15-16.1l4.1-4.4h0l4-4.3h0l4.3-4.6h0l5-5.3
			c0.8-0.9,1.6-1.8,2.4-2.8c0.7-0.8,1.3-1.6,2-2.5c0.1-0.2,0.2-0.3,0.3-0.5c0.6-0.9,1.3-1.8,1.8-2.7c0,0,0.1-0.1,0.1-0.2
			c0.4-0.6,0.8-1.2,1.1-1.8c0.5-0.8,1-1.8,1.5-2.6c0-0.1,0.1-0.1,0.1-0.2c0-0.1,0.1-0.2,0.2-0.3c0,0,0,0,0-0.1
			c0.3-0.5,0.5-0.9,0.7-1.4c0.2-0.5,0.5-0.9,0.7-1.4c0.3-0.8,0.7-1.5,1-2.3c0-0.1,0.1-0.2,0.1-0.3c0.3-0.8,0.6-1.6,0.9-2.4
			c0.6-1.6,1.1-3.3,1.5-5c0.2-0.8,0.4-1.6,0.6-2.4c0-0.1,0-0.2,0.1-0.3c0-0.2,0.1-0.3,0.1-0.5c0.2-0.9,0.3-1.7,0.5-2.6
			c0-0.1,0-0.2,0-0.2c0-0.1,0-0.2,0-0.3c0.1-0.6,0.2-1.1,0.2-1.7c0.1-0.6,0.1-1.1,0.2-1.7c0-0.2,0-0.3,0-0.4
			c0.2-1.7,0.2-3.5,0.2-5.2C234.9,281.6,234.9,280.7,234.8,279.7z M119.8,249.7L119.8,249.7l-1.2-1.1h-6.8l4.8,4.8l1.2,1.1h3.9
			l5.9-5.9h-6.8L119.8,249.7z M236.1,260.8c-0.8-2.4-1.9-4.9-3.1-7.2c0-0.1-0.1-0.2-0.2-0.3c-0.8-1.6-1.6-3.2-2.6-4.8
			c-1-1.6-2.1-3.2-3.2-4.8c-2-2.7-4.3-5.4-6.8-7.9c-13.1-13.1-30.2-19.5-47.3-19.4c-3.2,0-6.4,0.3-9.6,0.8
			c-13.4,2.1-26.2,8.2-36.5,18.6l-7.1,7.1l-7.1-7.1c-10.8-10.8-24.4-17.1-38.5-18.8c-1.9-0.3-3.7-0.4-5.6-0.5h0
			c-1.5-0.1-2.9-0.1-4.4,0c-0.6,0-1.3,0-1.9,0.1c-1,0-1.9,0.1-2.9,0.2c-1.6,0.2-3.3,0.4-5,0.7c-12.8,2.3-25.1,8.4-35,18.3
			c-25.3,25.3-26,65.6-1.6,91.8l99.9,107.1h4.6l15.2-16.3l3.2-3.4l3.4-3.6l36.3-38.9l7.5-8.1l19.3-20.7l4.2-4.4l4-4.4l5.7-6.1
			l1.2-1.3c2-2.1,3.8-4.4,5.4-6.6C240.2,303.2,243.1,280.7,236.1,260.8z M215,321.2l-1.2,1.3l-7.8,8.3l-2.7,2.9l-4,4.3l-4,4.4
			l-10.8,11.5l-7.7,8.2l-40.7,43.7l-3.3,3.6l-3.2,3.4l-9.9,10.5L24.6,321.2c-20.9-22.4-20.3-56.9,1.4-78.6c7.7-7.7,17.1-12.7,27-15
			c0.8-0.2,1.7-0.4,2.6-0.6c0.8-0.2,1.5-0.3,2.3-0.4c1.2-0.2,2.4-0.3,3.7-0.4c0.4,0,0.8-0.1,1.2-0.1c1.1-0.1,2.2-0.1,3.3-0.1
			c0.3,0,0.7,0,1.1,0c14.1,0.2,28.2,5.8,38.9,16.5l1.1,1.1l4.7,4.8l4.8,4.8l1.2,1.1h3.9l11.8-11.8c8.3-8.3,18.5-13.4,29.2-15.5
			c3.2-0.6,6.4-1,9.6-1c14.9-0.3,29.9,5.2,41.2,16.5c0.4,0.4,0.8,0.8,1.1,1.1c1.5,1.5,2.8,3.1,4,4.8c1.2,1.5,2.3,3.1,3.2,4.8
			c0.1,0.1,0.2,0.3,0.3,0.4c1.4,2.3,2.6,4.8,3.6,7.3C234.2,280.8,230.6,304.4,215,321.2z M120.9,248.5l-1.1,1.1h0l-1.1-1.1h-6.8
			l4.8,4.8l1.2,1.1h3.9l5.9-5.9H120.9z M234.8,279.7c-0.1-1.6-0.2-3.3-0.5-5c0-0.3-0.1-0.6-0.1-0.9c-0.1-0.6-0.2-1.3-0.3-1.9
			c0-0.2,0-0.3-0.1-0.4c-0.2-0.9-0.3-1.8-0.5-2.6c-0.2-0.9-0.4-1.8-0.7-2.7c-0.2-0.9-0.5-1.8-0.8-2.7c-0.2-0.7-0.5-1.3-0.7-2
			c-0.1-0.2-0.2-0.4-0.2-0.6h0c0-0.2-0.1-0.4-0.2-0.6c-0.4-1-0.8-2.1-1.3-3.1c-0.1-0.3-0.3-0.6-0.4-0.9c-0.3-0.8-0.7-1.5-1.1-2.3
			c-0.1-0.2-0.2-0.3-0.2-0.4c0-0.1-0.1-0.2-0.2-0.3c-0.9-1.6-1.8-3.2-2.9-4.8c-1.1-1.6-2.3-3.2-3.5-4.8c-1.3-1.6-2.6-3.1-4.1-4.5
			c-12.2-12.2-28.3-18.2-44.3-17.9c-0.1,1.6-0.2,3.2-0.3,4.8c14.9-0.3,29.9,5.2,41.2,16.5c0.4,0.4,0.8,0.8,1.1,1.1
			c1.5,1.5,2.8,3.1,4,4.8c1.2,1.5,2.3,3.1,3.2,4.8c0.1,0.1,0.2,0.3,0.3,0.4c1.4,2.3,2.6,4.8,3.6,7.3c8.3,19.9,4.7,43.5-11,60.3
			l-1.2,1.3l-7.8,8.3l-2.7,2.9l-4,4.3l-4,4.4l-10.8,11.5c0.5,1.8,1,3.6,1.5,5.4l15-16.1l4.1-4.4h0l4-4.3h0l4.3-4.6h0l5-5.3
			c0.8-0.9,1.6-1.8,2.4-2.8c0.7-0.8,1.3-1.6,2-2.5c0.1-0.2,0.2-0.3,0.3-0.5c0.6-0.9,1.3-1.8,1.8-2.7c0,0,0.1-0.1,0.1-0.2
			c0.4-0.6,0.8-1.2,1.1-1.8c0.5-0.8,1-1.8,1.5-2.6c0-0.1,0.1-0.1,0.1-0.2c0-0.1,0.1-0.2,0.2-0.3c0,0,0,0,0-0.1
			c0.3-0.5,0.5-0.9,0.7-1.4c0.2-0.5,0.5-0.9,0.7-1.4c0.3-0.8,0.7-1.5,1-2.3c0-0.1,0.1-0.2,0.1-0.3c0.3-0.8,0.6-1.6,0.9-2.4
			c0.6-1.6,1.1-3.3,1.5-5c0.2-0.8,0.4-1.6,0.6-2.4c0-0.1,0-0.2,0.1-0.3c0-0.2,0.1-0.3,0.1-0.5c0.2-0.9,0.3-1.7,0.5-2.6
			c0-0.1,0-0.2,0-0.2c0-0.1,0-0.2,0-0.3c0.1-0.6,0.2-1.1,0.2-1.7c0.1-0.6,0.1-1.1,0.2-1.7c0-0.2,0-0.3,0-0.4
			c0.2-1.7,0.2-3.5,0.2-5.2C234.9,281.6,234.9,280.7,234.8,279.7z M120.9,248.5l-1.1,1.1h0l-1.1-1.1h-6.8l4.8,4.8l1.2,1.1h3.9
			l5.9-5.9H120.9z M234.8,279.7c-0.1-1.6-0.2-3.3-0.5-5c0-0.3-0.1-0.6-0.1-0.9c-0.1-0.6-0.2-1.3-0.3-1.9c0-0.2,0-0.3-0.1-0.4
			c-0.2-0.9-0.3-1.8-0.5-2.6c-0.2-0.9-0.4-1.8-0.7-2.7c-0.2-0.9-0.5-1.8-0.8-2.7c-0.2-0.7-0.5-1.3-0.7-2c-0.1-0.2-0.2-0.4-0.2-0.6h0
			c0-0.2-0.1-0.4-0.2-0.6c-0.4-1-0.8-2.1-1.3-3.1c-0.1-0.3-0.3-0.6-0.4-0.9c-0.3-0.8-0.7-1.5-1.1-2.3c-0.1-0.2-0.2-0.3-0.2-0.4
			c0-0.1-0.1-0.2-0.2-0.3c-0.9-1.6-1.8-3.2-2.9-4.8c-1.1-1.6-2.3-3.2-3.5-4.8c-1.3-1.6-2.6-3.1-4.1-4.5
			c-12.2-12.2-28.3-18.2-44.3-17.9c-0.1,1.6-0.2,3.2-0.3,4.8c14.9-0.3,29.9,5.2,41.2,16.5c0.4,0.4,0.8,0.8,1.1,1.1
			c1.5,1.5,2.8,3.1,4,4.8c1.2,1.5,2.3,3.1,3.2,4.8c0.1,0.1,0.2,0.3,0.3,0.4c1.4,2.3,2.6,4.8,3.6,7.3c8.3,19.9,4.7,43.5-11,60.3
			l-1.2,1.3l-7.8,8.3l-2.7,2.9l-4,4.3l-4,4.4l-10.8,11.5c0.5,1.8,1,3.6,1.5,5.4l15-16.1l4.1-4.4h0l4-4.3h0l4.3-4.6h0l5-5.3
			c0.8-0.9,1.6-1.8,2.4-2.8c0.7-0.8,1.3-1.6,2-2.5c0.1-0.2,0.2-0.3,0.3-0.5c0.6-0.9,1.3-1.8,1.8-2.7c0,0,0.1-0.1,0.1-0.2
			c0.4-0.6,0.8-1.2,1.1-1.8c0.5-0.8,1-1.8,1.5-2.6c0-0.1,0.1-0.1,0.1-0.2c0-0.1,0.1-0.2,0.2-0.3c0,0,0,0,0-0.1
			c0.3-0.5,0.5-0.9,0.7-1.4c0.2-0.5,0.5-0.9,0.7-1.4c0.3-0.8,0.7-1.5,1-2.3c0-0.1,0.1-0.2,0.1-0.3c0.3-0.8,0.6-1.6,0.9-2.4
			c0.6-1.6,1.1-3.3,1.5-5c0.2-0.8,0.4-1.6,0.6-2.4c0-0.1,0-0.2,0.1-0.3c0-0.2,0.1-0.3,0.1-0.5c0.2-0.9,0.3-1.7,0.5-2.6
			c0-0.1,0-0.2,0-0.2c0-0.1,0-0.2,0-0.3c0.1-0.6,0.2-1.1,0.2-1.7c0.1-0.6,0.1-1.1,0.2-1.7c0-0.2,0-0.3,0-0.4
			c0.2-1.7,0.2-3.5,0.2-5.2C234.9,281.6,234.9,280.7,234.8,279.7z M120.9,248.5l-1.1,1.1h0l-1.1-1.1h-6.8l4.8,4.8l1.2,1.1h3.9
			l5.9-5.9H120.9z M234.8,279.7c-0.1-1.6-0.2-3.3-0.5-5c0-0.3-0.1-0.6-0.1-0.9c-0.1-0.6-0.2-1.3-0.3-1.9c0-0.2,0-0.3-0.1-0.4
			c-0.2-0.9-0.3-1.8-0.5-2.6c-0.2-0.9-0.4-1.8-0.7-2.7c-0.2-0.9-0.5-1.8-0.8-2.7c-0.2-0.7-0.5-1.3-0.7-2c-0.1-0.2-0.2-0.4-0.2-0.6h0
			c0-0.2-0.1-0.4-0.2-0.6c-0.4-1-0.8-2.1-1.3-3.1c-0.1-0.3-0.3-0.6-0.4-0.9c-0.3-0.8-0.7-1.5-1.1-2.3c-0.1-0.2-0.2-0.3-0.2-0.4
			c0-0.1-0.1-0.2-0.2-0.3c-0.9-1.6-1.8-3.2-2.9-4.8c-1.1-1.6-2.3-3.2-3.5-4.8c-1.3-1.6-2.6-3.1-4.1-4.5
			c-12.2-12.2-28.3-18.2-44.3-17.9c-0.1,1.6-0.2,3.2-0.3,4.8c14.9-0.3,29.9,5.2,41.2,16.5c0.4,0.4,0.8,0.8,1.1,1.1
			c1.5,1.5,2.8,3.1,4,4.8c1.2,1.5,2.3,3.1,3.2,4.8c0.1,0.1,0.2,0.3,0.3,0.4c1.4,2.3,2.6,4.8,3.6,7.3c8.3,19.9,4.7,43.5-11,60.3
			l-1.2,1.3l-7.8,8.3l-2.7,2.9l-4,4.3l-4,4.4l-10.8,11.5c0.5,1.8,1,3.6,1.5,5.4l15-16.1l4.1-4.4h0l4-4.3h0l4.3-4.6h0l5-5.3
			c0.8-0.9,1.6-1.8,2.4-2.8c0.7-0.8,1.3-1.6,2-2.5c0.1-0.2,0.2-0.3,0.3-0.5c0.6-0.9,1.3-1.8,1.8-2.7c0,0,0.1-0.1,0.1-0.2
			c0.4-0.6,0.8-1.2,1.1-1.8c0.5-0.8,1-1.8,1.5-2.6c0-0.1,0.1-0.1,0.1-0.2c0-0.1,0.1-0.2,0.2-0.3c0,0,0,0,0-0.1
			c0.3-0.5,0.5-0.9,0.7-1.4c0.2-0.5,0.5-0.9,0.7-1.4c0.3-0.8,0.7-1.5,1-2.3c0-0.1,0.1-0.2,0.1-0.3c0.3-0.8,0.6-1.6,0.9-2.4
			c0.6-1.6,1.1-3.3,1.5-5c0.2-0.8,0.4-1.6,0.6-2.4c0-0.1,0-0.2,0.1-0.3c0-0.2,0.1-0.3,0.1-0.5c0.2-0.9,0.3-1.7,0.5-2.6
			c0-0.1,0-0.2,0-0.2c0-0.1,0-0.2,0-0.3c0.1-0.6,0.2-1.1,0.2-1.7c0.1-0.6,0.1-1.1,0.2-1.7c0-0.2,0-0.3,0-0.4
			c0.2-1.7,0.2-3.5,0.2-5.2C234.9,281.6,234.9,280.7,234.8,279.7z M120.9,248.5l-1.1,1.1h0l-1.1-1.1h-6.8l4.8,4.8l1.2,1.1h3.9
			l5.9-5.9H120.9z M234.8,279.7c-0.1-1.6-0.2-3.3-0.5-5c0-0.3-0.1-0.6-0.1-0.9c-0.1-0.6-0.2-1.3-0.3-1.9c0-0.2,0-0.3-0.1-0.4
			c-0.2-0.9-0.3-1.8-0.5-2.6c-0.2-0.9-0.4-1.8-0.7-2.7c-0.2-0.9-0.5-1.8-0.8-2.7c-0.2-0.7-0.5-1.3-0.7-2c-0.1-0.2-0.2-0.4-0.2-0.6h0
			c0-0.2-0.1-0.4-0.2-0.6c-0.4-1-0.8-2.1-1.3-3.1c-0.1-0.3-0.3-0.6-0.4-0.9c-0.3-0.8-0.7-1.5-1.1-2.3c-0.1-0.2-0.2-0.3-0.2-0.4
			c0-0.1-0.1-0.2-0.2-0.3c-0.9-1.6-1.8-3.2-2.9-4.8c-1.1-1.6-2.3-3.2-3.5-4.8c-1.3-1.6-2.6-3.1-4.1-4.5
			c-12.2-12.2-28.3-18.2-44.3-17.9c-0.1,1.6-0.2,3.2-0.3,4.8c14.9-0.3,29.9,5.2,41.2,16.5c0.4,0.4,0.8,0.8,1.1,1.1
			c1.5,1.5,2.8,3.1,4,4.8c1.2,1.5,2.3,3.1,3.2,4.8c0.1,0.1,0.2,0.3,0.3,0.4c1.4,2.3,2.6,4.8,3.6,7.3c8.3,19.9,4.7,43.5-11,60.3
			l-1.2,1.3l-7.8,8.3l-2.7,2.9l-4,4.3l-4,4.4l-10.8,11.5c0.5,1.8,1,3.6,1.5,5.4l15-16.1l4.1-4.4h0l4-4.3h0l4.3-4.6h0l5-5.3
			c0.8-0.9,1.6-1.8,2.4-2.8c0.7-0.8,1.3-1.6,2-2.5c0.1-0.2,0.2-0.3,0.3-0.5c0.6-0.9,1.3-1.8,1.8-2.7c0,0,0.1-0.1,0.1-0.2
			c0.4-0.6,0.8-1.2,1.1-1.8c0.5-0.8,1-1.8,1.5-2.6c0-0.1,0.1-0.1,0.1-0.2c0-0.1,0.1-0.2,0.2-0.3c0,0,0,0,0-0.1
			c0.3-0.5,0.5-0.9,0.7-1.4c0.2-0.5,0.5-0.9,0.7-1.4c0.3-0.8,0.7-1.5,1-2.3c0-0.1,0.1-0.2,0.1-0.3c0.3-0.8,0.6-1.6,0.9-2.4
			c0.6-1.6,1.1-3.3,1.5-5c0.2-0.8,0.4-1.6,0.6-2.4c0-0.1,0-0.2,0.1-0.3c0-0.2,0.1-0.3,0.1-0.5c0.2-0.9,0.3-1.7,0.5-2.6
			c0-0.1,0-0.2,0-0.2c0-0.1,0-0.2,0-0.3c0.1-0.6,0.2-1.1,0.2-1.7c0.1-0.6,0.1-1.1,0.2-1.7c0-0.2,0-0.3,0-0.4
			c0.2-1.7,0.2-3.5,0.2-5.2C234.9,281.6,234.9,280.7,234.8,279.7z M120.9,248.5l-1.1,1.1h0l-1.1-1.1h-6.8l4.8,4.8l1.2,1.1h3.9
			l5.9-5.9H120.9z M234.8,279.7c-0.1-1.6-0.2-3.3-0.5-5c0-0.3-0.1-0.6-0.1-0.9c-0.1-0.6-0.2-1.3-0.3-1.9c0-0.2,0-0.3-0.1-0.4
			c-0.2-0.9-0.3-1.8-0.5-2.6c-0.2-0.9-0.4-1.8-0.7-2.7c-0.2-0.9-0.5-1.8-0.8-2.7c-0.2-0.7-0.5-1.3-0.7-2c-0.1-0.2-0.2-0.4-0.2-0.6h0
			c0-0.2-0.1-0.4-0.2-0.6c-0.4-1-0.8-2.1-1.3-3.1c-0.1-0.3-0.3-0.6-0.4-0.9c-0.3-0.8-0.7-1.5-1.1-2.3c-0.1-0.2-0.2-0.3-0.2-0.4
			c0-0.1-0.1-0.2-0.2-0.3c-0.9-1.6-1.8-3.2-2.9-4.8c-1.1-1.6-2.3-3.2-3.5-4.8c-1.3-1.6-2.6-3.1-4.1-4.5
			c-12.2-12.2-28.3-18.2-44.3-17.9c-0.1,1.6-0.2,3.2-0.3,4.8c14.9-0.3,29.9,5.2,41.2,16.5c0.4,0.4,0.8,0.8,1.1,1.1
			c1.5,1.5,2.8,3.1,4,4.8c1.2,1.5,2.3,3.1,3.2,4.8c0.1,0.1,0.2,0.3,0.3,0.4c1.4,2.3,2.6,4.8,3.6,7.3c8.3,19.9,4.7,43.5-11,60.3
			l-1.2,1.3l-7.8,8.3l-2.7,2.9l-4,4.3l-4,4.4l-10.8,11.5c0.5,1.8,1,3.6,1.5,5.4l15-16.1l4.1-4.4h0l4-4.3h0l4.3-4.6h0l5-5.3
			c0.8-0.9,1.6-1.8,2.4-2.8c0.7-0.8,1.3-1.6,2-2.5c0.1-0.2,0.2-0.3,0.3-0.5c0.6-0.9,1.3-1.8,1.8-2.7c0,0,0.1-0.1,0.1-0.2
			c0.4-0.6,0.8-1.2,1.1-1.8c0.5-0.8,1-1.8,1.5-2.6c0-0.1,0.1-0.1,0.1-0.2c0-0.1,0.1-0.2,0.2-0.3c0,0,0,0,0-0.1
			c0.3-0.5,0.5-0.9,0.7-1.4c0.2-0.5,0.5-0.9,0.7-1.4c0.3-0.8,0.7-1.5,1-2.3c0-0.1,0.1-0.2,0.1-0.3c0.3-0.8,0.6-1.6,0.9-2.4
			c0.6-1.6,1.1-3.3,1.5-5c0.2-0.8,0.4-1.6,0.6-2.4c0-0.1,0-0.2,0.1-0.3c0-0.2,0.1-0.3,0.1-0.5c0.2-0.9,0.3-1.7,0.5-2.6
			c0-0.1,0-0.2,0-0.2c0-0.1,0-0.2,0-0.3c0.1-0.6,0.2-1.1,0.2-1.7c0.1-0.6,0.1-1.1,0.2-1.7c0-0.2,0-0.3,0-0.4
			c0.2-1.7,0.2-3.5,0.2-5.2C234.9,281.6,234.9,280.7,234.8,279.7z M120.9,248.5l-1.1,1.1h0l-1.1-1.1h-6.8l4.8,4.8l1.2,1.1h3.9
			l5.9-5.9H120.9z M234.8,279.7c-0.1-1.6-0.2-3.3-0.5-5c0-0.3-0.1-0.6-0.1-0.9c-0.1-0.6-0.2-1.3-0.3-1.9c0-0.2,0-0.3-0.1-0.4
			c-0.2-0.9-0.3-1.8-0.5-2.6c-0.2-0.9-0.4-1.8-0.7-2.7c-0.2-0.9-0.5-1.8-0.8-2.7c-0.2-0.7-0.5-1.3-0.7-2c-0.1-0.2-0.2-0.4-0.2-0.6h0
			c0-0.2-0.1-0.4-0.2-0.6c-0.4-1-0.8-2.1-1.3-3.1c-0.1-0.3-0.3-0.6-0.4-0.9c-0.3-0.8-0.7-1.5-1.1-2.3c-0.1-0.2-0.2-0.3-0.2-0.4
			c0-0.1-0.1-0.2-0.2-0.3c-0.9-1.6-1.8-3.2-2.9-4.8c-1.1-1.6-2.3-3.2-3.5-4.8c-1.3-1.6-2.6-3.1-4.1-4.5
			c-12.2-12.2-28.3-18.2-44.3-17.9c-0.1,1.6-0.2,3.2-0.3,4.8c14.9-0.3,29.9,5.2,41.2,16.5c0.4,0.4,0.8,0.8,1.1,1.1
			c1.5,1.5,2.8,3.1,4,4.8c1.2,1.5,2.3,3.1,3.2,4.8c0.1,0.1,0.2,0.3,0.3,0.4c1.4,2.3,2.6,4.8,3.6,7.3c8.3,19.9,4.7,43.5-11,60.3
			l-1.2,1.3l-7.8,8.3l-2.7,2.9l-4,4.3l-4,4.4l-10.8,11.5c0.5,1.8,1,3.6,1.5,5.4l15-16.1l4.1-4.4h0l4-4.3h0l4.3-4.6h0l5-5.3
			c0.8-0.9,1.6-1.8,2.4-2.8c0.7-0.8,1.3-1.6,2-2.5c0.1-0.2,0.2-0.3,0.3-0.5c0.6-0.9,1.3-1.8,1.8-2.7c0,0,0.1-0.1,0.1-0.2
			c0.4-0.6,0.8-1.2,1.1-1.8c0.5-0.8,1-1.8,1.5-2.6c0-0.1,0.1-0.1,0.1-0.2c0-0.1,0.1-0.2,0.2-0.3c0,0,0,0,0-0.1
			c0.3-0.5,0.5-0.9,0.7-1.4c0.2-0.5,0.5-0.9,0.7-1.4c0.3-0.8,0.7-1.5,1-2.3c0-0.1,0.1-0.2,0.1-0.3c0.3-0.8,0.6-1.6,0.9-2.4
			c0.6-1.6,1.1-3.3,1.5-5c0.2-0.8,0.4-1.6,0.6-2.4c0-0.1,0-0.2,0.1-0.3c0-0.2,0.1-0.3,0.1-0.5c0.2-0.9,0.3-1.7,0.5-2.6
			c0-0.1,0-0.2,0-0.2c0-0.1,0-0.2,0-0.3c0.1-0.6,0.2-1.1,0.2-1.7c0.1-0.6,0.1-1.1,0.2-1.7c0-0.2,0-0.3,0-0.4
			c0.2-1.7,0.2-3.5,0.2-5.2C234.9,281.6,234.9,280.7,234.8,279.7z M116.6,253.3l1.2,1.1h3.9l1.1-1.1H116.6z M230.7,260.3
			c-0.4-1-0.8-2.1-1.3-3.1c-0.1-0.3-0.3-0.6-0.4-0.9c-0.3-0.8-0.7-1.5-1.1-2.3c-0.1-0.2-0.2-0.3-0.2-0.4c0-0.1-0.1-0.2-0.2-0.3H222
			c0.1,0.1,0.2,0.3,0.3,0.4c1.4,2.3,2.6,4.8,3.6,7.3l5-0.1C230.9,260.7,230.8,260.5,230.7,260.3z M116.6,253.3l1.2,1.1h3.9l1.1-1.1
			H116.6z M234.8,279.7c-0.1-1.6-0.2-3.3-0.5-5c0-0.3-0.1-0.6-0.1-0.9c-0.1-0.6-0.2-1.3-0.3-1.9c0-0.2,0-0.3-0.1-0.4
			c-0.2-0.9-0.3-1.8-0.5-2.6c-0.2-0.9-0.4-1.8-0.7-2.7c-0.2-0.9-0.5-1.8-0.8-2.7c-0.2-0.7-0.5-1.3-0.7-2c-0.1-0.2-0.2-0.4-0.2-0.6h0
			c0-0.2-0.1-0.4-0.2-0.6c-0.4-1-0.8-2.1-1.3-3.1c-0.1-0.3-0.3-0.6-0.4-0.9c-0.3-0.8-0.7-1.5-1.1-2.3c-0.1-0.2-0.2-0.3-0.2-0.4
			c0-0.1-0.1-0.2-0.2-0.3H222c0.1,0.1,0.2,0.3,0.3,0.4c1.4,2.3,2.6,4.8,3.6,7.3c8.3,19.9,4.7,43.5-11,60.3l-1.2,1.3h0.2
			c0.5-0.1,1-0.2,1.5-0.2c1.5-0.2,3.1-0.4,4.7-0.5h0.1c0.2,0,0.5,0,0.7-0.1c0.7-0.8,1.3-1.6,2-2.5c0.1-0.2,0.2-0.3,0.3-0.5
			c0.6-0.9,1.3-1.8,1.8-2.7c0,0,0.1-0.1,0.1-0.2c0.4-0.6,0.8-1.2,1.1-1.8c0.5-0.8,1-1.8,1.5-2.6c0-0.1,0.1-0.1,0.1-0.2
			c0-0.1,0.1-0.2,0.2-0.3c0,0,0,0,0-0.1c0.3-0.5,0.5-0.9,0.7-1.4c0.2-0.5,0.5-0.9,0.7-1.4c0.3-0.8,0.7-1.5,1-2.3
			c0-0.1,0.1-0.2,0.1-0.3c0.3-0.8,0.6-1.6,0.9-2.4c0.6-1.6,1.1-3.3,1.5-5c0.2-0.8,0.4-1.6,0.6-2.4c0-0.1,0-0.2,0.1-0.3
			c0-0.2,0.1-0.3,0.1-0.5c0.2-0.9,0.3-1.7,0.5-2.6c0-0.1,0-0.2,0-0.2c0-0.1,0-0.2,0-0.3c0.1-0.6,0.2-1.1,0.2-1.7
			c0.1-0.6,0.1-1.1,0.2-1.7c0-0.2,0-0.3,0-0.4c0.2-1.7,0.2-3.5,0.2-5.2C234.9,281.6,234.9,280.7,234.8,279.7z M116.6,253.3l1.2,1.1
			h3.9l1.1-1.1H116.6z M234.8,279.7c-0.1-1.6-0.2-3.3-0.5-5c0-0.3-0.1-0.6-0.1-0.9c-0.1-0.6-0.2-1.3-0.3-1.9c0-0.2,0-0.3-0.1-0.4
			c-0.2-0.9-0.3-1.8-0.5-2.6c-0.2-0.9-0.4-1.8-0.7-2.7c-0.2-0.9-0.5-1.8-0.8-2.7c-0.2-0.7-0.5-1.3-0.7-2c-0.1-0.2-0.2-0.4-0.2-0.6h0
			c0-0.2-0.1-0.4-0.2-0.6c-0.4-1-0.8-2.1-1.3-3.1c-0.1-0.3-0.3-0.6-0.4-0.9c-0.3-0.8-0.7-1.5-1.1-2.3c-0.1-0.2-0.2-0.3-0.2-0.4
			c0-0.1-0.1-0.2-0.2-0.3H222c0.1,0.1,0.2,0.3,0.3,0.4c1.4,2.3,2.6,4.8,3.6,7.3c8.3,19.9,4.7,43.5-11,60.3l-1.2,1.3h0.2
			c0.5-0.1,1-0.2,1.5-0.2c1.5-0.2,3.1-0.4,4.7-0.5h0.1c0.2,0,0.5,0,0.7-0.1c0.7-0.8,1.3-1.6,2-2.5c0.1-0.2,0.2-0.3,0.3-0.5
			c0.6-0.9,1.3-1.8,1.8-2.7c0,0,0.1-0.1,0.1-0.2c0.4-0.6,0.8-1.2,1.1-1.8c0.5-0.8,1-1.8,1.5-2.6c0-0.1,0.1-0.1,0.1-0.2
			c0-0.1,0.1-0.2,0.2-0.3c0,0,0,0,0-0.1c0.3-0.5,0.5-0.9,0.7-1.4c0.2-0.5,0.5-0.9,0.7-1.4c0.3-0.8,0.7-1.5,1-2.3
			c0-0.1,0.1-0.2,0.1-0.3c0.3-0.8,0.6-1.6,0.9-2.4c0.6-1.6,1.1-3.3,1.5-5c0.2-0.8,0.4-1.6,0.6-2.4c0-0.1,0-0.2,0.1-0.3
			c0-0.2,0.1-0.3,0.1-0.5c0.2-0.9,0.3-1.7,0.5-2.6c0-0.1,0-0.2,0-0.2c0-0.1,0-0.2,0-0.3c0.1-0.6,0.2-1.1,0.2-1.7
			c0.1-0.6,0.1-1.1,0.2-1.7c0-0.2,0-0.3,0-0.4c0.2-1.7,0.2-3.5,0.2-5.2C234.9,281.6,234.9,280.7,234.8,279.7z M116.6,253.3l1.2,1.1
			h3.9l1.1-1.1H116.6z M234.8,279.7c-0.1-1.6-0.2-3.3-0.5-5c0-0.3-0.1-0.6-0.1-0.9c-0.1-0.6-0.2-1.3-0.3-1.9c0-0.2,0-0.3-0.1-0.4
			c-0.2-0.9-0.3-1.8-0.5-2.6c-0.2-0.9-0.4-1.8-0.7-2.7c-0.2-0.9-0.5-1.8-0.8-2.7c-0.2-0.7-0.5-1.3-0.7-2c-0.1-0.2-0.2-0.4-0.2-0.6
			c-0.1-0.2-0.2-0.4-0.2-0.6c-0.4-1-0.8-2.1-1.3-3.1c-0.1-0.3-0.3-0.6-0.4-0.9c-0.3-0.8-0.7-1.5-1.1-2.3c-0.1-0.2-0.2-0.3-0.2-0.4
			c0-0.1-0.1-0.2-0.2-0.3H222c0.1,0.1,0.2,0.3,0.3,0.4c1.4,2.3,2.6,4.8,3.6,7.3c8.3,19.9,4.7,43.5-11,60.3l-1.2,1.3h0.2
			c0.5-0.1,1-0.2,1.5-0.2c1.5-0.2,3.1-0.4,4.7-0.5h0.1c0.2,0,0.5,0,0.7-0.1c0.7-0.8,1.3-1.6,2-2.5c0.1-0.2,0.2-0.3,0.3-0.5
			c0.6-0.9,1.3-1.8,1.8-2.7c0,0,0.1-0.1,0.1-0.2c0.4-0.6,0.8-1.2,1.1-1.8c0.5-0.8,1-1.8,1.5-2.6c0-0.1,0.1-0.1,0.1-0.2
			c0-0.1,0.1-0.2,0.2-0.3c0,0,0,0,0-0.1c0.3-0.5,0.5-0.9,0.7-1.4c0.2-0.5,0.5-0.9,0.7-1.4c0.3-0.8,0.7-1.5,1-2.3
			c0-0.1,0.1-0.2,0.1-0.3c0.3-0.8,0.6-1.6,0.9-2.4c0.6-1.6,1.1-3.3,1.5-5c0.2-0.8,0.4-1.6,0.6-2.4c0-0.1,0-0.2,0.1-0.3
			c0-0.2,0.1-0.3,0.1-0.5c0.2-0.9,0.3-1.7,0.5-2.6c0-0.1,0-0.2,0-0.2c0-0.1,0-0.2,0-0.3c0.1-0.6,0.2-1.1,0.2-1.7
			c0.1-0.6,0.1-1.1,0.2-1.7c0-0.2,0-0.3,0-0.4c0.2-1.7,0.2-3.5,0.2-5.2C234.9,281.6,234.9,280.7,234.8,279.7z M116.6,253.3l1.2,1.1
			h3.9l1.1-1.1H116.6z M234.8,279.7c-0.1-1.6-0.2-3.3-0.5-5c0-0.3-0.1-0.6-0.1-0.9c-0.1-0.6-0.2-1.3-0.3-1.9c0-0.2,0-0.3-0.1-0.4
			c-0.2-0.9-0.3-1.8-0.5-2.6c-0.2-0.9-0.4-1.8-0.7-2.7c-0.2-0.9-0.5-1.8-0.8-2.7c-0.2-0.7-0.5-1.3-0.7-2c-0.1-0.2-0.2-0.4-0.2-0.6
			c-0.1-0.2-0.2-0.4-0.2-0.6c-0.4-1-0.8-2.1-1.3-3.1c-0.1-0.3-0.3-0.6-0.4-0.9c-0.3-0.8-0.7-1.5-1.1-2.3c-0.1-0.2-0.2-0.3-0.2-0.4
			c0-0.1-0.1-0.2-0.2-0.3H222c0.1,0.1,0.2,0.3,0.3,0.4c1.4,2.3,2.6,4.8,3.6,7.3c8.3,19.9,4.7,43.5-11,60.3l-1.2,1.3h0.2
			c0.5-0.1,1-0.2,1.5-0.2c1.5-0.2,3.1-0.4,4.7-0.5h0.1c0.2,0,0.5,0,0.7-0.1c0.7-0.8,1.3-1.6,2-2.5c0.1-0.2,0.2-0.3,0.3-0.5
			c0.6-0.9,1.3-1.8,1.8-2.7c0,0,0.1-0.1,0.1-0.2c0.4-0.6,0.8-1.2,1.1-1.8c0.5-0.8,1-1.8,1.5-2.6c0-0.1,0.1-0.1,0.1-0.2
			c0-0.1,0.1-0.2,0.2-0.3c0,0,0,0,0-0.1c0.3-0.5,0.5-0.9,0.7-1.4c0.2-0.5,0.5-0.9,0.7-1.4c0.3-0.8,0.7-1.5,1-2.3
			c0-0.1,0.1-0.2,0.1-0.3c0.3-0.8,0.6-1.6,0.9-2.4c0.6-1.6,1.1-3.3,1.5-5c0.2-0.8,0.4-1.6,0.6-2.4c0-0.1,0-0.2,0.1-0.3
			c0-0.2,0.1-0.3,0.1-0.5c0.2-0.9,0.3-1.7,0.5-2.6c0-0.1,0-0.2,0-0.2c0-0.1,0-0.2,0-0.3c0.1-0.6,0.2-1.1,0.2-1.7
			c0.1-0.6,0.1-1.1,0.2-1.7c0-0.2,0-0.3,0-0.4c0.2-1.7,0.2-3.5,0.2-5.2C234.9,281.6,234.9,280.7,234.8,279.7z M116.6,253.3l1.2,1.1
			h3.9l1.1-1.1H116.6z M234.8,279.7c-0.1-1.6-0.2-3.3-0.5-5c0-0.3-0.1-0.6-0.1-0.9c-0.1-0.6-0.2-1.3-0.3-1.9c0-0.2,0-0.3-0.1-0.4
			c-0.2-0.9-0.3-1.8-0.5-2.6c-0.2-0.9-0.4-1.8-0.7-2.7c-0.2-0.9-0.5-1.8-0.8-2.7c-0.2-0.7-0.5-1.3-0.7-2c-0.1-0.2-0.2-0.4-0.2-0.6
			c-0.1-0.2-0.2-0.4-0.2-0.6c-0.4-1-0.8-2.1-1.3-3.1c-0.1-0.3-0.3-0.6-0.4-0.9c-0.3-0.8-0.7-1.5-1.1-2.3c-0.1-0.2-0.2-0.3-0.2-0.4
			c0-0.1-0.1-0.2-0.2-0.3H222c0.1,0.1,0.2,0.3,0.3,0.4c1.4,2.3,2.6,4.8,3.6,7.3c8.3,19.9,4.7,43.5-11,60.3l-1.2,1.3h0.2
			c0.5-0.1,1-0.2,1.5-0.2c1.5-0.2,3.1-0.4,4.7-0.5h0.1c0.2,0,0.5,0,0.7-0.1c0.7-0.8,1.3-1.6,2-2.5c0.1-0.2,0.2-0.3,0.3-0.5
			c0.6-0.9,1.3-1.8,1.8-2.7c0,0,0.1-0.1,0.1-0.2c0.4-0.6,0.8-1.2,1.1-1.8c0.5-0.8,1-1.8,1.5-2.6c0-0.1,0.1-0.1,0.1-0.2
			c0-0.1,0.1-0.2,0.2-0.3c0,0,0,0,0-0.1c0.3-0.5,0.5-0.9,0.7-1.4c0.2-0.5,0.5-0.9,0.7-1.4c0.3-0.8,0.7-1.5,1-2.3
			c0-0.1,0.1-0.2,0.1-0.3c0.3-0.8,0.6-1.6,0.9-2.4c0.6-1.6,1.1-3.3,1.5-5c0.2-0.8,0.4-1.6,0.6-2.4c0-0.1,0-0.2,0.1-0.3
			c0-0.2,0.1-0.3,0.1-0.5c0.2-0.9,0.3-1.7,0.5-2.6c0-0.1,0-0.2,0-0.2c0-0.1,0-0.2,0-0.3c0.1-0.6,0.2-1.1,0.2-1.7
			c0.1-0.6,0.1-1.1,0.2-1.7c0-0.2,0-0.3,0-0.4c0.2-1.7,0.2-3.5,0.2-5.2C234.9,281.6,234.9,280.7,234.8,279.7z M116.6,253.3l1.2,1.1
			h3.9l1.1-1.1H116.6z M234.8,279.7c-0.1-1.6-0.2-3.3-0.5-5c0-0.3-0.1-0.6-0.1-0.9c-0.1-0.6-0.2-1.3-0.3-1.9c0-0.2,0-0.3-0.1-0.4
			c-0.2-0.9-0.3-1.8-0.5-2.6c-0.2-0.9-0.4-1.8-0.7-2.7c-0.2-0.9-0.5-1.8-0.8-2.7c-0.2-0.7-0.5-1.3-0.7-2c-0.1-0.2-0.2-0.4-0.2-0.6
			c-0.1-0.2-0.2-0.4-0.2-0.6c-0.4-1-0.8-2.1-1.3-3.1c-0.1-0.3-0.3-0.6-0.4-0.9c-0.3-0.8-0.7-1.5-1.1-2.3c-0.1-0.2-0.2-0.3-0.2-0.4
			c0-0.1-0.1-0.2-0.2-0.3H222c0.1,0.1,0.2,0.3,0.3,0.4c1.4,2.3,2.6,4.8,3.6,7.3c8.3,19.9,4.7,43.5-11,60.3l-1.2,1.3h0.2
			c0.5-0.1,1-0.2,1.5-0.2c1.5-0.2,3.1-0.4,4.7-0.5h0.1c0.2,0,0.5,0,0.7-0.1c0.7-0.8,1.3-1.6,2-2.5c0.1-0.2,0.2-0.3,0.3-0.5
			c0.6-0.9,1.3-1.8,1.8-2.7c0,0,0.1-0.1,0.1-0.2c0.4-0.6,0.8-1.2,1.1-1.8c0.5-0.8,1-1.8,1.5-2.6c0-0.1,0.1-0.1,0.1-0.2
			c0-0.1,0.1-0.2,0.2-0.3c0,0,0,0,0-0.1c0.3-0.5,0.5-0.9,0.7-1.4c0.2-0.5,0.5-0.9,0.7-1.4c0.3-0.8,0.7-1.5,1-2.3
			c0-0.1,0.1-0.2,0.1-0.3c0.3-0.8,0.6-1.6,0.9-2.4c0.6-1.6,1.1-3.3,1.5-5c0.2-0.8,0.4-1.6,0.6-2.4c0-0.1,0-0.2,0.1-0.3
			c0-0.2,0.1-0.3,0.1-0.5c0.2-0.9,0.3-1.7,0.5-2.6c0-0.1,0-0.2,0-0.2c0-0.1,0-0.2,0-0.3c0.1-0.6,0.2-1.1,0.2-1.7
			c0.1-0.6,0.1-1.1,0.2-1.7c0-0.2,0-0.3,0-0.4c0.2-1.7,0.2-3.5,0.2-5.2C234.9,281.6,234.9,280.7,234.8,279.7z M116.6,253.3l1.2,1.1
			h3.9l1.1-1.1H116.6z M234.8,279.7c-0.1-1.6-0.2-3.3-0.5-5c0-0.3-0.1-0.6-0.1-0.9c-0.1-0.6-0.2-1.3-0.3-1.9c0-0.2,0-0.3-0.1-0.4
			c-0.2-0.9-0.3-1.8-0.5-2.6c-0.2-0.9-0.4-1.8-0.7-2.7c-0.2-0.9-0.5-1.8-0.8-2.7c-0.2-0.7-0.5-1.3-0.7-2c-0.1-0.2-0.2-0.4-0.2-0.6
			c-0.1-0.2-0.2-0.4-0.2-0.6c-0.4-1-0.8-2.1-1.3-3.1c-0.1-0.3-0.3-0.6-0.4-0.9c-0.3-0.8-0.7-1.5-1.1-2.3c-0.1-0.2-0.2-0.3-0.2-0.4
			c0-0.1-0.1-0.2-0.2-0.3H222c0.1,0.1,0.2,0.3,0.3,0.4c1.4,2.3,2.6,4.8,3.6,7.3c8.3,19.9,4.7,43.5-11,60.3l-1.2,1.3h0.2
			c0.5-0.1,1-0.2,1.5-0.2c1.5-0.2,3.1-0.4,4.7-0.5h0.1c0.2,0,0.5,0,0.7-0.1c0.7-0.8,1.3-1.6,2-2.5c0.1-0.2,0.2-0.3,0.3-0.5
			c0.6-0.9,1.3-1.8,1.8-2.7c0,0,0.1-0.1,0.1-0.2c0.4-0.6,0.8-1.2,1.1-1.8c0.5-0.8,1-1.8,1.5-2.6c0-0.1,0.1-0.1,0.1-0.2
			c0-0.1,0.1-0.2,0.2-0.3c0,0,0,0,0-0.1c0.3-0.5,0.5-0.9,0.7-1.4c0.2-0.5,0.5-0.9,0.7-1.4c0.3-0.8,0.7-1.5,1-2.3
			c0-0.1,0.1-0.2,0.1-0.3c0.3-0.8,0.6-1.6,0.9-2.4c0.6-1.6,1.1-3.3,1.5-5c0.2-0.8,0.4-1.6,0.6-2.4c0-0.1,0-0.2,0.1-0.3
			c0-0.2,0.1-0.3,0.1-0.5c0.2-0.9,0.3-1.7,0.5-2.6c0-0.1,0-0.2,0-0.2c0-0.1,0-0.2,0-0.3c0.1-0.6,0.2-1.1,0.2-1.7
			c0.1-0.6,0.1-1.1,0.2-1.7c0-0.2,0-0.3,0-0.4c0.2-1.7,0.2-3.5,0.2-5.2C234.9,281.6,234.9,280.7,234.8,279.7z M116.6,253.3l1.2,1.1
			h3.9l1.1-1.1H116.6z M234.8,279.7c-0.1-1.6-0.2-3.3-0.5-5c0-0.3-0.1-0.6-0.1-0.9c-0.1-0.6-0.2-1.3-0.3-1.9c0-0.2,0-0.3-0.1-0.4
			c-0.2-0.9-0.3-1.8-0.5-2.6c-0.2-0.9-0.4-1.8-0.7-2.7c-0.2-0.9-0.5-1.8-0.8-2.7c-0.2-0.7-0.5-1.3-0.7-2c-0.1-0.2-0.2-0.4-0.2-0.6
			c-0.1-0.2-0.2-0.4-0.2-0.6c-0.4-1-0.8-2.1-1.3-3.1c-0.1-0.3-0.3-0.6-0.4-0.9c-0.3-0.8-0.7-1.5-1.1-2.3c-0.1-0.2-0.2-0.3-0.2-0.4
			c0-0.1-0.1-0.2-0.2-0.3H222c0.1,0.1,0.2,0.3,0.3,0.4c1.4,2.3,2.6,4.8,3.6,7.3c8.3,19.9,4.7,43.5-11,60.3l-1.2,1.3h0.2
			c0.5-0.1,1-0.2,1.5-0.2c1.5-0.2,3.1-0.4,4.7-0.5h0.1c0.2,0,0.5,0,0.7-0.1c0.7-0.8,1.3-1.6,2-2.5c0.1-0.2,0.2-0.3,0.3-0.5
			c0.6-0.9,1.3-1.8,1.8-2.7c0,0,0.1-0.1,0.1-0.2c0.4-0.6,0.8-1.2,1.1-1.8c0.5-0.8,1-1.8,1.5-2.6c0-0.1,0.1-0.1,0.1-0.2
			c0-0.1,0.1-0.2,0.2-0.3c0,0,0,0,0-0.1c0.3-0.5,0.5-0.9,0.7-1.4c0.2-0.5,0.5-0.9,0.7-1.4c0.3-0.8,0.7-1.5,1-2.3
			c0-0.1,0.1-0.2,0.1-0.3c0.3-0.8,0.6-1.6,0.9-2.4c0.6-1.6,1.1-3.3,1.5-5c0.2-0.8,0.4-1.6,0.6-2.4c0-0.1,0-0.2,0.1-0.3
			c0-0.2,0.1-0.3,0.1-0.5c0.2-0.9,0.3-1.7,0.5-2.6c0-0.1,0-0.2,0-0.2c0-0.1,0-0.2,0-0.3c0.1-0.6,0.2-1.1,0.2-1.7
			c0.1-0.6,0.1-1.1,0.2-1.7c0-0.2,0-0.3,0-0.4c0.2-1.7,0.2-3.5,0.2-5.2C234.9,281.6,234.9,280.7,234.8,279.7z M116.6,253.3l1.2,1.1
			h3.9l1.1-1.1H116.6z M234.8,279.7c-0.1-1.6-0.2-3.3-0.5-5c0-0.3-0.1-0.6-0.1-0.9c-0.1-0.6-0.2-1.3-0.3-1.9c0-0.2,0-0.3-0.1-0.4
			c-0.2-0.9-0.3-1.8-0.5-2.6c-0.2-0.9-0.4-1.8-0.7-2.7c-0.2-0.9-0.5-1.8-0.8-2.7c-0.2-0.7-0.5-1.3-0.7-2c-0.1-0.2-0.2-0.4-0.2-0.6
			c-0.1-0.2-0.2-0.4-0.2-0.6c-0.4-1-0.8-2.1-1.3-3.1c-0.1-0.3-0.3-0.6-0.4-0.9c-0.3-0.8-0.7-1.5-1.1-2.3c-0.1-0.2-0.2-0.3-0.2-0.4
			c0-0.1-0.1-0.2-0.2-0.3H222c0.1,0.1,0.2,0.3,0.3,0.4c1.4,2.3,2.6,4.8,3.6,7.3c8.3,19.9,4.7,43.5-11,60.3l-1.2,1.3h0.2
			c0.5-0.1,1-0.2,1.5-0.2c1.5-0.2,3.1-0.4,4.7-0.5h0.1c0.2,0,0.5,0,0.7-0.1c0.7-0.8,1.3-1.6,2-2.5c0.1-0.2,0.2-0.3,0.3-0.5
			c0.6-0.9,1.3-1.8,1.8-2.7c0,0,0.1-0.1,0.1-0.2c0.4-0.6,0.8-1.2,1.1-1.8c0.5-0.8,1-1.8,1.5-2.6c0-0.1,0.1-0.1,0.1-0.2
			c0-0.1,0.1-0.2,0.2-0.3c0,0,0,0,0-0.1c0.3-0.5,0.5-0.9,0.7-1.4c0.2-0.5,0.5-0.9,0.7-1.4c0.3-0.8,0.7-1.5,1-2.3
			c0-0.1,0.1-0.2,0.1-0.3c0.3-0.8,0.6-1.6,0.9-2.4c0.6-1.6,1.1-3.3,1.5-5c0.2-0.8,0.4-1.6,0.6-2.4c0-0.1,0-0.2,0.1-0.3
			c0-0.2,0.1-0.3,0.1-0.5c0.2-0.9,0.3-1.7,0.5-2.6c0-0.1,0-0.2,0-0.2c0-0.1,0-0.2,0-0.3c0.1-0.6,0.2-1.1,0.2-1.7
			c0.1-0.6,0.1-1.1,0.2-1.7c0-0.2,0-0.3,0-0.4c0.2-1.7,0.2-3.5,0.2-5.2C234.9,281.6,234.9,280.7,234.8,279.7z M116.6,253.3l1.2,1.1
			h3.9l1.1-1.1H116.6z M234.8,279.7c-0.1-1.6-0.2-3.3-0.5-5c0-0.3-0.1-0.6-0.1-0.9c-0.1-0.6-0.2-1.3-0.3-1.9c0-0.2,0-0.3-0.1-0.4
			c-0.2-0.9-0.3-1.8-0.5-2.6c-0.2-0.9-0.4-1.8-0.7-2.7c-0.2-0.9-0.5-1.8-0.8-2.7c-0.2-0.7-0.5-1.3-0.7-2c-0.1-0.2-0.2-0.4-0.2-0.6
			c-0.1-0.2-0.2-0.4-0.2-0.6c-0.4-1-0.8-2.1-1.3-3.1c-0.1-0.3-0.3-0.6-0.4-0.9c-0.3-0.8-0.7-1.5-1.1-2.3c-0.1-0.2-0.2-0.3-0.2-0.4
			c0-0.1-0.1-0.2-0.2-0.3H222c0.1,0.1,0.2,0.3,0.3,0.4c1.4,2.3,2.6,4.8,3.6,7.3c8.3,19.9,4.7,43.5-11,60.3l-1.2,1.3h0.2
			c0.5-0.1,1-0.2,1.5-0.2c1.5-0.2,3.1-0.4,4.7-0.5h0.1c0.2,0,0.5,0,0.7-0.1c0.7-0.8,1.3-1.6,2-2.5c0.1-0.2,0.2-0.3,0.3-0.5
			c0.6-0.9,1.3-1.8,1.8-2.7c0,0,0.1-0.1,0.1-0.2c0.4-0.6,0.8-1.2,1.1-1.8c0.5-0.8,1-1.8,1.5-2.6c0-0.1,0.1-0.1,0.1-0.2
			c0-0.1,0.1-0.2,0.2-0.3c0,0,0,0,0-0.1c0.3-0.5,0.5-0.9,0.7-1.4c0.2-0.5,0.5-0.9,0.7-1.4c0.3-0.8,0.7-1.5,1-2.3
			c0-0.1,0.1-0.2,0.1-0.3c0.3-0.8,0.6-1.6,0.9-2.4c0.6-1.6,1.1-3.3,1.5-5c0.2-0.8,0.4-1.6,0.6-2.4c0-0.1,0-0.2,0.1-0.3
			c0-0.2,0.1-0.3,0.1-0.5c0.2-0.9,0.3-1.7,0.5-2.6c0-0.1,0-0.2,0-0.2c0-0.1,0-0.2,0-0.3c0.1-0.6,0.2-1.1,0.2-1.7
			c0.1-0.6,0.1-1.1,0.2-1.7c0-0.2,0-0.3,0-0.4c0.2-1.7,0.2-3.5,0.2-5.2C234.9,281.6,234.9,280.7,234.8,279.7z M116.6,253.3l1.2,1.1
			h3.9l1.1-1.1H116.6z M234.8,279.7c-0.1-1.6-0.2-3.3-0.5-5c0-0.3-0.1-0.6-0.1-0.9c-0.1-0.6-0.2-1.3-0.3-1.9c0-0.2,0-0.3-0.1-0.4
			c-0.2-0.9-0.3-1.8-0.5-2.6c-0.2-0.9-0.4-1.8-0.7-2.7c-0.2-0.9-0.5-1.8-0.8-2.7c-0.2-0.7-0.5-1.3-0.7-2c-0.1-0.2-0.2-0.4-0.2-0.6
			c-0.1-0.2-0.2-0.4-0.2-0.6c-0.4-1-0.8-2.1-1.3-3.1c-0.1-0.3-0.3-0.6-0.4-0.9c-0.3-0.8-0.7-1.5-1.1-2.3c-0.1-0.2-0.2-0.3-0.2-0.4
			c0-0.1-0.1-0.2-0.2-0.3H222c0.1,0.1,0.2,0.3,0.3,0.4c1.4,2.3,2.6,4.8,3.6,7.3c8.3,19.9,4.7,43.5-11,60.3l-1.2,1.3h0.2
			c0.5-0.1,1-0.2,1.5-0.2c1.5-0.2,3.1-0.4,4.7-0.5h0.1c0.2,0,0.5,0,0.7-0.1c0.7-0.8,1.3-1.6,2-2.5c0.1-0.2,0.2-0.3,0.3-0.5
			c0.6-0.9,1.3-1.8,1.8-2.7c0,0,0.1-0.1,0.1-0.2c0.4-0.6,0.8-1.2,1.1-1.8c0.5-0.8,1-1.8,1.5-2.6c0-0.1,0.1-0.1,0.1-0.2
			c0-0.1,0.1-0.2,0.2-0.3c0,0,0,0,0-0.1c0.3-0.5,0.5-0.9,0.7-1.4c0.2-0.5,0.5-0.9,0.7-1.4c0.3-0.8,0.7-1.5,1-2.3
			c0-0.1,0.1-0.2,0.1-0.3c0.3-0.8,0.6-1.6,0.9-2.4c0.6-1.6,1.1-3.3,1.5-5c0.2-0.8,0.4-1.6,0.6-2.4c0-0.1,0-0.2,0.1-0.3
			c0-0.2,0.1-0.3,0.1-0.5c0.2-0.9,0.3-1.7,0.5-2.6c0-0.1,0-0.2,0-0.2c0-0.1,0-0.2,0-0.3c0.1-0.6,0.2-1.1,0.2-1.7
			c0.1-0.6,0.1-1.1,0.2-1.7c0-0.2,0-0.3,0-0.4c0.2-1.7,0.2-3.5,0.2-5.2C234.9,281.6,234.9,280.7,234.8,279.7z"/>
	</g>
</g>
</svg>
