<?xml version="1.0" encoding="utf-8"?>
<!-- Generator: Adobe Illustrator 27.7.0, SVG Export Plug-In . SVG Version: 6.00 Build 0)  -->
<svg version="1.1" id="Layer_1" xmlns="http://www.w3.org/2000/svg" xmlns:xlink="http://www.w3.org/1999/xlink" x="0px" y="0px"
	 viewBox="0 0 500 500" style="enable-background:new 0 0 500 500;" xml:space="preserve">
<style type="text/css">
	.st0{fill:#FFFFFF;}
</style>
<g>
	<g>
		<path class="st0" d="M115.8,499.5H22.3v-113h93.5V499.5z M35.2,486.6h67.7v-87.1H35.2V486.6z"/>
	</g>
	<g>
		<path class="st0" d="M236.7,499.5h-93.5V297.9h93.5V499.5z M156.1,486.6h67.7V310.9h-67.7V486.6z"/>
	</g>
	<g>
		<path class="st0" d="M357.6,499.5h-93.5v-319h93.5V499.5z M277,486.6h67.7V193.4H277V486.6z"/>
	</g>
	<g>
		<path class="st0" d="M478.5,499.5H385V44.4h93.5V499.5z M397.9,486.6h67.7V57.3h-67.7V486.6z"/>
	</g>
	<g>
		<path class="st0" d="M60.9,339.3C60.9,339.3,60.9,339.3,60.9,339.3c-4.3,0-8.3-1.7-11.2-4.7l-36.4-36.7c-3-3-4.6-7-4.6-11.2
			c0-4.2,1.7-8.2,4.7-11.2l208.2-207c0.7-0.7,0.9-1.6,0.9-2.1c0-0.4-0.1-1.3-0.8-2.1l-16.9-17c-4.2-4.2-5.7-10.3-3.8-16
			c1.8-5.7,6.6-9.8,12.4-10.8l118.5-20c5.1-0.9,10.3,0.8,14,4.6c3.6,3.7,5.2,9,4.2,14.1l-22.6,116.5c-1.1,5.8-5.3,10.4-10.9,12.1
			c-5.6,1.7-11.7,0.2-15.8-4l-16.2-16.3c-1.1-1.1-3-1.1-4.1,0l-208.2,207C69.1,337.6,65.1,339.3,60.9,339.3z M334.5,13.4
			c-0.2,0-0.3,0-0.5,0l-118.5,20c-1.5,0.3-2.1,1.4-2.3,2c-0.2,0.6-0.4,1.8,0.7,2.9l16.9,17c3,3,4.6,7,4.6,11.2
			c0,4.2-1.7,8.2-4.7,11.2l-208.2,207c-0.7,0.7-0.9,1.6-0.9,2.1c0,0.4,0.1,1.3,0.8,2.1l36.4,36.7c0.7,0.8,1.7,0.9,2.1,0.9
			c0.4,0,1.3-0.1,2.1-0.8l208.2-207c6.2-6.2,16.2-6.1,22.4,0.1l16.2,16.3c1.1,1.1,2.3,0.9,2.9,0.7c0.6-0.2,1.7-0.7,2-2.2l22.6-116.5
			c0.3-1.3-0.4-2.2-0.8-2.6C336.2,13.9,335.5,13.4,334.5,13.4z"/>
	</g>
</g>
</svg>
