<?xml version="1.0" encoding="utf-8"?>
<!-- Generator: Adobe Illustrator 27.7.0, SVG Export Plug-In . SVG Version: 6.00 Build 0)  -->
<svg version="1.1" id="Layer_1" xmlns="http://www.w3.org/2000/svg" xmlns:xlink="http://www.w3.org/1999/xlink" x="0px" y="0px"
	 viewBox="0 0 500 500" style="enable-background:new 0 0 500 500;" xml:space="preserve">
<style type="text/css">
	.st0{fill:#FFFFFF;}
</style>
<g>
	<g>
		<path class="st0" d="M367.9,104.7c-1.1-1.1-2.2-2.2-3.3-3.3c-38.8-37-91.2-59.9-149-59.9C96.8,41.6,0.1,138.3,0.1,257.1
			c0,118.8,96.7,215.5,215.5,215.5c50.6,0,97.1-17.5,133.9-46.8c1.2-0.9,2.4-1.9,3.6-2.9c1.2-1.1,2.5-2.1,3.8-3.2
			c-1.5-0.4-2.6-1.8-2.6-3.4v-6.5c-1.5,1.4-3,2.7-4.6,4c-1.5,1.3-3,2.5-4.5,3.7c0,0,0,0,0,0c-35.5,28.7-80.6,45.9-129.6,45.9
			c-113.8,0-206.4-92.6-206.4-206.4c0-113.8,92.6-206.4,206.4-206.4c55.7,0,106.3,22.2,143.4,58.2c1.1,1,2.2,2.1,3.3,3.2
			c1.1,1.1,2.2,2.2,3.2,3.3l5.6-7.4C370,106.9,369,105.8,367.9,104.7z"/>
	</g>
	<g>
		<path class="st0" d="M349.7,360.6c-1.5,1.9-3,3.8-4.6,5.7c-31.1,36.9-77.7,60.3-129.6,60.3c-93.4,0-169.5-76-169.5-169.5
			s76-169.5,169.5-169.5c47.4,0,90.3,19.6,121.1,51.1c1.1,1.1,2.2,2.2,3.2,3.4c1.1,1.1,2.1,2.3,3.1,3.4l2.8-3.8l2.7-3.6
			c-1-1.2-2.1-2.3-3.1-3.4c-1.1-1.1-2.1-2.2-3.2-3.3C309.9,98.7,265,78.5,215.6,78.5C117.1,78.5,37,158.6,37,257.1
			c0,98.4,80.1,178.6,178.6,178.6c51,0,97-21.5,129.6-55.9c1.6-1.6,3.1-3.3,4.6-5c1.6-1.8,3.1-3.5,4.6-5.4v-15.1
			C352.8,356.5,351.3,358.5,349.7,360.6z"/>
	</g>
	<g>
		<path class="st0" d="M493.7,198.6L402.2,76.3c-3.3-4.4-9.8-4.4-13.1,0l-21.2,28.4l-5.6,7.4l-16.9,22.6l-2.7,3.6l-2.8,3.8
			l-42.4,56.6c-4,5.4-0.2,13.1,6.6,13.1h37.4c4.5,0,8.2,3.7,8.2,8.1v196.5c0,2.7,1.4,5.2,3.4,6.6c1.4,1,3,1.5,4.8,1.5h75.5
			c4.5,0,8.2-3.7,8.2-8.2V219.9c0-4.5,3.7-8.1,8.2-8.1h37.5C493.9,211.7,497.8,204,493.7,198.6z M490.4,205.1c-0.3,0.6-1.2,2-3.2,2
			h-37.5c-7,0-12.7,5.7-12.7,12.7v196.5c0,2-1.6,3.6-3.6,3.6h-75.5c-0.4,0-0.7,0-1-0.2c-1.5-0.4-2.6-1.8-2.6-3.4V219.9
			c0-7-5.7-12.7-12.7-12.7h-37.4c-2,0-3-1.4-3.3-2c-0.3-0.6-0.9-2.2,0.3-3.8l41.8-55.9l2.8-3.8l2.7-3.6l16.9-22.7l5.6-7.4L392.7,79
			c0.7-0.9,1.8-1.5,2.9-1.5c1.2,0,2.2,0.5,2.9,1.5l91.6,122.3C491.3,203,490.7,204.6,490.4,205.1z"/>
		<path class="st0" d="M497.4,195.9L405.8,73.6c-2.4-3.3-6.1-5.1-10.2-5.1s-7.8,1.9-10.2,5.1l-20.9,27.9l-5.6,7.4l-16.8,22.5
			l-2.7,3.6l-2.8,3.8l-42.8,57.2c-2.9,3.9-3.4,9-1.2,13.3c2.2,4.3,6.5,7,11.4,7h37.4c2,0,3.6,1.6,3.6,3.6v196.5c0,0.4,0,0.8,0.1,1.3
			c0,0,0,0,0,0c0.3,3.3,1.9,6.2,4.3,8.3c2.3,2,5.2,3.2,8.4,3.2h75.5c7,0,12.7-5.7,12.7-12.7V219.9c0-2,1.6-3.6,3.6-3.6h37.5
			c4.9,0,9.2-2.7,11.4-7C500.8,204.9,500.3,199.8,497.4,195.9z M490.4,205.1c-0.3,0.6-1.2,2-3.2,2h-37.5c-7,0-12.7,5.7-12.7,12.7
			v196.5c0,2-1.6,3.6-3.6,3.6h-75.5c-0.4,0-0.7,0-1-0.2c-1.5-0.4-2.6-1.8-2.6-3.4V219.9c0-7-5.7-12.7-12.7-12.7h-37.4
			c-2,0-3-1.4-3.3-2c-0.3-0.6-0.9-2.2,0.3-3.8l41.8-55.9l2.8-3.8l2.7-3.6l16.9-22.7l5.6-7.4L392.7,79c0.7-0.9,1.8-1.5,2.9-1.5
			c1.2,0,2.2,0.5,2.9,1.5l91.6,122.3C491.3,203,490.7,204.6,490.4,205.1z"/>
	</g>
	<g>
		<path class="st0" d="M220.1,127.8V241c-1.4-0.4-3-0.7-4.6-0.7s-3.1,0.2-4.6,0.7V127.8H220.1z"/>
	</g>
	<g>
		<path class="st0" d="M322.4,351l-6.2,6.7l-85.5-79.6l-3.4-3.1l-3.5-3.3c2.7-1.5,5-3.8,6.4-6.5l3.4,3.2l3.4,3.2L322.4,351z"/>
	</g>
	<g>
		<path class="st0" d="M220.1,236.3c-1.5-0.3-3-0.5-4.6-0.5c-1.6,0-3.1,0.2-4.6,0.5c-9.6,2.1-16.8,10.6-16.8,20.9
			c0,11.8,9.5,21.3,21.3,21.3c4.3,0,8.4-1.3,11.8-3.5c2.6-1.7,4.8-3.9,6.4-6.6c2-3.3,3.2-7.1,3.2-11.2
			C236.9,246.9,229.8,238.3,220.1,236.3z M223.8,271.7c-2.4,1.4-5.3,2.2-8.3,2.2c-9.2,0-16.8-7.5-16.8-16.8
			c0-7.7,5.2-14.2,12.2-16.1c1.4-0.4,3-0.7,4.6-0.7s3.1,0.2,4.6,0.7c7,2,12.2,8.5,12.2,16.1c0,2.9-0.8,5.7-2.1,8
			C228.8,267.9,226.5,270.2,223.8,271.7z"/>
		<path class="st0" d="M220.1,231.6c-1.5-0.3-3-0.4-4.6-0.4c-1.6,0-3.1,0.1-4.6,0.4c-12.1,2.1-21.3,12.8-21.3,25.5
			c0,14.3,11.6,25.9,25.9,25.9c5.7,0,10.9-1.8,15.2-5c2.5-1.8,4.6-4,6.3-6.5c2.8-4.1,4.4-9.1,4.4-14.4
			C241.5,244.4,232.3,233.7,220.1,231.6z M230.3,265.2c-1.5,2.7-3.7,5-6.4,6.5c-2.4,1.4-5.3,2.2-8.3,2.2c-9.2,0-16.8-7.5-16.8-16.8
			c0-7.7,5.2-14.2,12.2-16.1c1.4-0.4,3-0.7,4.6-0.7s3.1,0.2,4.6,0.7c7,2,12.2,8.5,12.2,16.1C232.3,260,231.6,262.8,230.3,265.2z"/>
	</g>
</g>
</svg>
