<?xml version="1.0" encoding="UTF-8"?>
<svg id="Layer_1" data-name="Layer 1" xmlns="http://www.w3.org/2000/svg" viewBox="0 0 499.85 431.1">
  <defs>
    <style>
      .cls-1 {
        fill: #1d1e21;
        stroke-width: 0px;
      }
    </style>
  </defs>
  <path class="cls-1" d="m367.8,63.2c-1.1-1.1-2.2-2.2-3.3-3.3C325.7,22.9,273.3,0,215.5,0,96.7.1,0,96.8,0,215.6s96.7,215.5,215.5,215.5c50.6,0,97.1-17.5,133.9-46.8,1.2-.9,2.4-1.9,3.6-2.9,1.2-1.1,2.5-2.1,3.8-3.2-1.5-.4-2.6-1.8-2.6-3.4v-6.5c-1.5,1.4-3,2.7-4.6,4-1.5,1.3-3,2.5-4.5,3.7h0c-35.5,28.7-80.6,45.9-129.6,45.9-113.8,0-206.4-92.6-206.4-206.4S101.7,9.1,215.5,9.1c55.7,0,106.3,22.2,143.4,58.2,1.1,1,2.2,2.1,3.3,3.2,1.1,1.1,2.2,2.2,3.2,3.3l5.6-7.4c-1.1-1-2.1-2.1-3.2-3.2Z"/>
  <path class="cls-1" d="m349.6,319.1c-1.5,1.9-3,3.8-4.6,5.7-31.1,36.9-77.7,60.3-129.6,60.3-93.4,0-169.5-76-169.5-169.5S121.9,46.1,215.4,46.1c47.4,0,90.3,19.6,121.1,51.1,1.1,1.1,2.2,2.2,3.2,3.4,1.1,1.1,2.1,2.3,3.1,3.4l2.8-3.8,2.7-3.6c-1-1.2-2.1-2.3-3.1-3.4-1.1-1.1-2.1-2.2-3.2-3.3-32.2-32.7-77.1-52.9-126.5-52.9-98.5,0-178.6,80.1-178.6,178.6s80.1,178.6,178.6,178.6c51,0,97-21.5,129.6-55.9,1.6-1.6,3.1-3.3,4.6-5,1.6-1.8,3.1-3.5,4.6-5.4v-15.1c-1.6,2.2-3.1,4.2-4.7,6.3Z"/>
  <g>
    <path class="cls-1" d="m493.6,157.1l-91.5-122.3c-3.3-4.4-9.8-4.4-13.1,0l-21.2,28.4-5.6,7.4-16.9,22.6-2.7,3.6-2.8,3.8-42.4,56.6c-4,5.4-.2,13.1,6.6,13.1h37.4c4.5,0,8.2,3.7,8.2,8.1v196.5c0,2.7,1.4,5.2,3.4,6.6,1.4,1,3,1.5,4.8,1.5h75.5c4.5,0,8.2-3.7,8.2-8.2v-196.4c0-4.5,3.7-8.1,8.2-8.1h37.5c6.6-.1,10.5-7.8,6.4-13.2Zm-3.3,6.5c-.3.6-1.2,2-3.2,2h-37.5c-7,0-12.7,5.7-12.7,12.7v196.5c0,2-1.6,3.6-3.6,3.6h-75.5c-.4,0-.7,0-1-.2-1.5-.4-2.6-1.8-2.6-3.4v-196.4c0-7-5.7-12.7-12.7-12.7h-37.4c-2,0-3-1.4-3.3-2s-.9-2.2.3-3.8l41.8-55.9,2.8-3.8,2.7-3.6,16.9-22.7,5.6-7.4,21.7-29c.7-.9,1.8-1.5,2.9-1.5,1.2,0,2.2.5,2.9,1.5l91.6,122.3c1.2,1.7.6,3.3.3,3.8Z"/>
    <path class="cls-1" d="m497.3,154.4l-91.6-122.3c-2.4-3.3-6.1-5.1-10.2-5.1s-7.8,1.9-10.2,5.1l-20.9,27.9-5.6,7.4-16.8,22.5-2.7,3.6-2.8,3.8-42.8,57.2c-2.9,3.9-3.4,9-1.2,13.3,2.2,4.3,6.5,7,11.4,7h37.4c2,0,3.6,1.6,3.6,3.6v196.5c0,.4,0,.8.1,1.3h0c.3,3.3,1.9,6.2,4.3,8.3,2.3,2,5.2,3.2,8.4,3.2h75.5c7,0,12.7-5.7,12.7-12.7v-196.6c0-2,1.6-3.6,3.6-3.6h37.5c4.9,0,9.2-2.7,11.4-7,2.3-4.4,1.8-9.5-1.1-13.4Zm-7,9.2c-.3.6-1.2,2-3.2,2h-37.5c-7,0-12.7,5.7-12.7,12.7v196.5c0,2-1.6,3.6-3.6,3.6h-75.5c-.4,0-.7,0-1-.2-1.5-.4-2.6-1.8-2.6-3.4v-196.4c0-7-5.7-12.7-12.7-12.7h-37.4c-2,0-3-1.4-3.3-2s-.9-2.2.3-3.8l41.8-55.9,2.8-3.8,2.7-3.6,16.9-22.7,5.6-7.4,21.7-29c.7-.9,1.8-1.5,2.9-1.5,1.2,0,2.2.5,2.9,1.5l91.6,122.3c1.2,1.7.6,3.3.3,3.8Z"/>
  </g>
  <path class="cls-1" d="m220,86.3v113.2c-1.4-.4-3-.7-4.6-.7s-3.1.2-4.6.7v-113.2h9.2Z"/>
  <path class="cls-1" d="m322.3,309.5l-6.2,6.7-85.5-79.6-3.4-3.1-3.5-3.3c2.7-1.5,5-3.8,6.4-6.5l3.4,3.2,3.4,3.2,85.4,79.4Z"/>
  <g>
    <path class="cls-1" d="m220,194.8c-1.5-.3-3-.5-4.6-.5s-3.1.2-4.6.5c-9.6,2.1-16.8,10.6-16.8,20.9,0,11.8,9.5,21.3,21.3,21.3,4.3,0,8.4-1.3,11.8-3.5,2.6-1.7,4.8-3.9,6.4-6.6,2-3.3,3.2-7.1,3.2-11.2.1-10.3-7-18.9-16.7-20.9Zm3.7,35.4c-2.4,1.4-5.3,2.2-8.3,2.2-9.2,0-16.8-7.5-16.8-16.8,0-7.7,5.2-14.2,12.2-16.1,1.4-.4,3-.7,4.6-.7s3.1.2,4.6.7c7,2,12.2,8.5,12.2,16.1,0,2.9-.8,5.7-2.1,8-1.4,2.8-3.7,5.1-6.4,6.6Z"/>
    <path class="cls-1" d="m220,190.1c-1.5-.3-3-.4-4.6-.4s-3.1.1-4.6.4c-12.1,2.1-21.3,12.8-21.3,25.5,0,14.3,11.6,25.9,25.9,25.9,5.7,0,10.9-1.8,15.2-5,2.5-1.8,4.6-4,6.3-6.5,2.8-4.1,4.4-9.1,4.4-14.4.1-12.7-9.1-23.4-21.3-25.5Zm10.2,33.6c-1.5,2.7-3.7,5-6.4,6.5-2.4,1.4-5.3,2.2-8.3,2.2-9.2,0-16.8-7.5-16.8-16.8,0-7.7,5.2-14.2,12.2-16.1,1.4-.4,3-.7,4.6-.7s3.1.2,4.6.7c7,2,12.2,8.5,12.2,16.1-.1,2.9-.8,5.7-2.1,8.1Z"/>
  </g>
</svg>